<svg width="18" height="22" viewBox="0 0 18 22" fill="none" xmlns="http://www.w3.org/2000/svg">
<path d="M15.0394 11.8972C14.4648 9.00538 17.2097 7.30936 17.2097 7.30936C17.2097 7.30936 16.1402 5.76215 14.343 5.36412C12.5465 4.96521 11.6474 5.4636 10.7501 5.83741C9.85189 6.21213 9.4037 6.21213 9.4037 6.21213C8.1075 6.21213 7.15996 4.83971 4.69035 5.46452C2.98897 5.89388 1.19791 7.85795 0.874305 10.2021C0.550701 12.5471 1.24902 15.5393 2.59543 17.8584C3.94183 20.1792 5.31338 21.0514 6.28685 21.0765C7.26036 21.1007 8.23209 20.3791 9.4037 20.2034C10.5762 20.0295 11.2978 20.6283 12.4479 20.9519C13.5935 21.2746 13.9951 20.9752 15.3146 19.8529C16.6377 18.7306 17.8354 15.5116 17.8354 15.5116C17.8354 15.5116 15.6141 14.7908 15.0394 11.8972Z" fill="#F9F9F9"/>
<path d="M12.6796 3.49031C13.9525 2.19323 13.5213 0.185242 13.5213 0.185242C13.5213 0.185242 11.7339 0.498997 10.5363 1.745C9.33955 2.99191 9.53765 4.96134 9.53765 4.96134C9.53765 4.96134 11.4067 4.78655 12.6796 3.49031Z" fill="#F9F9F9"/>
</svg>
