<svg width="22" height="24" viewBox="0 0 22 24" fill="none" xmlns="http://www.w3.org/2000/svg">
<path d="M10.7325 18.7065H18.6469C18.9551 18.7237 19.2626 18.6618 19.54 18.5265C19.8175 18.3912 20.0557 18.1871 20.2319 17.9337C20.4081 17.6802 20.5164 17.3858 20.5466 17.0786C20.5767 16.7714 20.5277 16.4616 20.4041 16.1788C19.9857 14.9143 18.318 13.3977 18.318 11.9055C18.318 8.59329 18.318 7.72166 16.6863 5.77387C16.1577 5.14755 15.5032 4.63952 14.7653 4.28281L13.8553 3.84118C13.7021 3.74964 13.57 3.62673 13.4676 3.48052C13.3653 3.3343 13.295 3.16809 13.2614 2.9928C13.1705 2.4029 12.8585 1.86967 12.3889 1.50126C11.9193 1.13286 11.3271 0.95687 10.7325 1.00898C10.1487 0.973923 9.57272 1.15776 9.11714 1.52459C8.66156 1.89142 8.35907 2.4149 8.26876 2.9928C8.22786 3.17389 8.14764 3.34376 8.03376 3.49038C7.91988 3.63699 7.77514 3.75676 7.60981 3.84118L6.69983 4.28281C5.96236 4.63966 5.30822 5.14768 4.77993 5.77387C3.14941 7.72166 3.14941 8.59329 3.14941 11.9055C3.14941 13.3977 1.55724 14.7621 1.13886 16.102C0.88667 16.9121 0.747209 18.7065 2.85887 18.7065H10.7325Z" stroke="white" stroke-width="1.74325" stroke-linecap="round" stroke-linejoin="round"/>
<path d="M14.5244 18.7065C14.5347 19.2074 14.4437 19.7051 14.2567 20.1698C14.0698 20.6346 13.7908 21.0567 13.4366 21.4109C13.0824 21.7651 12.6603 22.0441 12.1956 22.231C11.7308 22.4179 11.2331 22.509 10.7323 22.4987C10.2314 22.5093 9.73361 22.4185 9.26879 22.2316C8.80396 22.0448 8.38176 21.7659 8.02758 21.4116C7.6734 21.0573 7.39457 20.635 7.20789 20.1701C7.0212 19.7052 6.93051 19.2074 6.94129 18.7065" stroke="white" stroke-width="1.74325" stroke-linecap="round" stroke-linejoin="round"/>
</svg>
