<svg id="icons" height="512" viewBox="0 0 60 60" width="512" xmlns="http://www.w3.org/2000/svg"><path d="m7.386 43.47a.5.5 0 0 1 -.346-.862l.6-.575-2 1.154a.5.5 0 0 1 -.632-.756l1.31-1.55-1.039.6a.5.5 0 0 1 -.678-.69l.364-.6a.5.5 0 0 1 -.315-.237.5.5 0 0 1 .183-.682l1.167-.672a.5.5 0 0 1 .678.69l-.216.359 1.838-1.067a.5.5 0 0 1 .632.756l-1.311 1.55 3.1-1.789a.5.5 0 0 1 .6.794l-.6.577.016-.01a.5.5 0 0 1 .707.636l-.374.839a.5.5 0 0 1 .179.928l-.936.54a.506.506 0 0 1 -.585-.062.5.5 0 0 1 -.122-.574l.3-.672-2.27 1.305a.49.49 0 0 1 -.25.07z" fill="#bac5d8"/><path d="m50.434 43.491a.5.5 0 0 1 -.357-.85l1.272-1.293-2.069 1.193a.5.5 0 0 1 -.615-.774l.582-.621a.5.5 0 0 1 -.7-.594l.238-.8a.5.5 0 0 1 -.01-.872l.5-.288a.5.5 0 0 1 .729.577l-.138.458 1.798-1.027a.5.5 0 0 1 .615.774l-.578.617 2.331-1.345a.5.5 0 0 1 .607.783l-1.273 1.294 1.357-.783a.5.5 0 0 1 .672.7l-.575.9a.5.5 0 0 1 .4.909l-1.659.958a.5.5 0 0 1 -.671-.7l.561-.88-2.768 1.6a.491.491 0 0 1 -.249.064z" fill="#bac5d8"/><path d="m30.689 12.69a.5.5 0 0 1 -.3-.9l3.691-2.815a.5.5 0 0 1 .019-.855l4.566-2.637a.5.5 0 0 1 .553.83l-2.018 1.54 5.573-3.218a.5.5 0 1 1 .5.865l-12.334 7.123a.491.491 0 0 1 -.25.067z" fill="#dd4e6d"/><path d="m29.007 55.029a.5.5 0 0 1 -.311-.891l3.952-3.138-4.648 2.686a.5.5 0 0 1 -.535-.844l4.419-3.064-4.932 2.847a.5.5 0 0 1 -.528-.848l7.14-4.784-7.753 4.476a.5.5 0 0 1 -.527-.849l12.786-8.5-13.689 7.9a.5.5 0 0 1 -.514-.858l4.067-2.525-4.394 2.535a.5.5 0 0 1 -.519-.855l14.892-9.5-15.668 9.044a.5.5 0 0 1 -.518-.854l16.71-10.63-17.537 10.123a.5.5 0 0 1 -.515-.855l15.62-9.819-16.334 9.43a.5.5 0 0 1 -.516-.857l16.3-10.215-17.019 9.823a.5.5 0 0 1 -.512-.859l10.106-6.215-10.561 6.1a.5.5 0 0 1 -.513-.857l13.644-8.449-14.214 8.207a.5.5 0 0 1 -.511-.86l6.761-4.123-7.115 4.108a.5.5 0 0 1 -.511-.86l7.338-4.475-7.7 4.447a.5.5 0 0 1 -.516-.857l19.953-12.529-20.803 12.015a.5.5 0 0 1 -.51-.859l6.547-3.985-6.891 3.974a.5.5 0 0 1 -.509-.861l1.912-1.156-2.163 1.248a.5.5 0 0 1 -.516-.856l20.722-13.02-21.6 12.469a.5.5 0 0 1 -.508-.86l2.269-1.373-2.524 1.458a.5.5 0 0 1 -.516-.857l19.861-12.452-20.69 11.946a.5.5 0 0 1 -.514-.857l16.989-10.568-17.678 10.209a.5.5 0 0 1 -.515-.856l17.428-10.884-18.153 10.481a.5.5 0 0 1 -.512-.859l11.166-6.874-11.595 6.692a.5.5 0 0 1 -.511-.86l6.755-4.133-6.979 4.03a.5.5 0 0 1 -.526-.85l11.426-7.544-11.858 6.848a.5.5 0 0 1 -.527-.85l11.61-7.707-11.867 6.851a.5.5 0 0 1 -.523-.852l8.78-5.71-8.751 5.052a.5.5 0 0 1 -.529-.848l11.071-7.41-10.934 6.312a.5.5 0 0 1 -.519-.851l8.226-5.412-7.837 4.522a.5.5 0 0 1 -.529-.847l8.973-6.056-8.344 4.815a.5.5 0 0 1 -.528-.849l5.983-3.988-5.114 2.954a.5.5 0 0 1 -.539-.841l6.956-4.921-5.524 3.19a.5.5 0 0 1 -.531-.846l1.593-1.085-.032.017a.5.5 0 0 1 -.562-.823l2.966-2.369a.5.5 0 0 1 -.113-.913l4.568-2.638a.5.5 0 0 1 .562.824l-2.174 1.737 5.933-3.425a.5.5 0 0 1 .531.846l-1.588 1.081 3.269-1.887a.5.5 0 0 1 .539.841l-6.96 4.924 9.147-5.281a.5.5 0 0 1 .529.852l-5.969 3.98 7.274-4.2a.5.5 0 0 1 .529.847l-8.975 6.057 10.315-5.959a.5.5 0 0 1 .524.85l-8.234 5.418 9.147-5.281a.5.5 0 0 1 .528.848l-11.074 7.413 12.02-6.939a.5.5 0 0 1 .522.852l-8.773 5.706 9.387-5.419a.5.5 0 0 1 .526.849l-11.608 7.707 12.449-7.187a.5.5 0 0 1 .525.85l-11.429 7.546 26.535-15.319a.5.5 0 0 1 .51.86l-6.74 4.121 8.251-4.761a.5.5 0 0 1 .512.858l-11.171 6.877 12.588-7.266a.5.5 0 0 1 .514.856l-17.424 10.879 18.941-10.933a.5.5 0 0 1 .514.858l-16.979 10.557 18.128-10.465a.5.5 0 0 1 .516.856l-19.873 12.459 20.942-12.091a.5.5 0 0 1 .509.861l-2.275 1.376 2.552-1.473a.5.5 0 0 1 .516.856l-20.717 13.017 21.453-12.386a.5.5 0 0 1 .509.861l-1.93 1.167 2.011-1.163a.5.5 0 0 1 .51.86l-6.541 3.98 6.618-3.82a.5.5 0 0 1 .516.856l-19.962 12.535 20.219-11.673a.5.5 0 0 1 .511.859l-7.328 4.47 7.2-4.158a.5.5 0 0 1 .511.859l-6.745 4.114 6.53-3.77a.5.5 0 0 1 .513.857l-13.655 8.453 13.373-7.722a.5.5 0 0 1 .512.858l-10.118 6.226 9.678-5.584a.5.5 0 0 1 .515.856l-16.287 10.208 15.622-9.018a.5.5 0 0 1 .516.855l-15.622 9.82 14.621-8.441a.5.5 0 0 1 .519.854l-16.708 10.629 15.05-8.689a.5.5 0 0 1 .519.854l-14.9 9.506 11.757-6.787a.5.5 0 0 1 .514.857l-4.054 2.519.483-.278a.5.5 0 0 1 .526.848l-12.789 8.507 7.03-4.058a.5.5 0 0 1 .529.847l-7.136 4.782 2.427-1.4a.5.5 0 0 1 .535.844l-4.417 3.062.048-.027a.5.5 0 0 1 .56.824l-4.776 3.786a.506.506 0 0 1 .293.231.5.5 0 0 1 -.183.682l-4.656 2.689a.491.491 0 0 1 -.247.067z" fill="#dd4e6d"/><path d="m21.435 43.5a.5.5 0 0 1 -.324-.882l.438-.369-.264.151a.5.5 0 0 1 -.6-.793l.326-.311a.5.5 0 0 1 -.46-.637l.254-.894a.489.489 0 0 1 -.2-.2.5.5 0 0 1 .182-.682l.5-.289a.5.5 0 0 1 .732.569l-.165.579 2-1.153a.5.5 0 0 1 .6.793l-.092.088 1.533-.884a.5.5 0 0 1 .573.814l-.436.368 2.056-1.186a.5.5 0 0 1 .578.81l-.672.584 2.424-1.4a.5.5 0 0 1 .645.739l-1.522 1.96 4.687-2.7a.5.5 0 0 1 .57.817l-.292.243 1.843-1.064a.5.5 0 0 1 .606.783l-1.335 1.361 3.11-1.8a.5.5 0 0 1 .67.7l-1.215 1.881.561-.324a.5.5 0 1 1 .5.865l-2.356 1.36a.5.5 0 0 1 -.67-.7l1.215-1.88-4.489 2.591a.5.5 0 0 1 -.606-.783l1.335-1.36-3.722 2.148a.5.5 0 0 1 -.57-.816l.292-.244-1.843 1.064a.5.5 0 0 1 -.644-.739l1.512-1.956-4.687 2.706a.5.5 0 0 1 -.578-.81l.671-.585-2.423 1.4a.494.494 0 0 1 -.248.067z" fill="#bac5d8"/><g fill="#436e8e"><path d="m20.022 55.469a.5.5 0 0 1 -.413-.781l.721-1.06-2.816 1.625a.5.5 0 0 1 -.592-.8l1.526-1.428-2.01 1.161a.5.5 0 0 1 -.578-.811l1.848-1.6-1.426.823a.5.5 0 0 1 -.654-.139.5.5 0 0 1 .07-.666l2.392-2.15-1.808 1.043a.5.5 0 0 1 -.5-.866l5.941-3.429a.5.5 0 0 1 .584.8l-2.394 2.153 1.81-1.044a.5.5 0 0 1 .578.81l-1.847 1.6 1.269-.733a.5.5 0 0 1 .591.8l-1.527 1.433.936-.54a.5.5 0 0 1 .663.714l-.766 1.126a.509.509 0 0 1 .5.245.5.5 0 0 1 -.183.683l-1.668.963a.49.49 0 0 1 -.247.068z"/><path d="m16.032 31.92a.5.5 0 0 1 -.339-.867l1.328-1.227-.739.427a.5.5 0 0 1 -.66-.719l.73-1.047a.5.5 0 0 1 -.284-.931l1.656-.956a.5.5 0 0 1 .66.718l-.66.949 2.689-1.553a.5.5 0 0 1 .589.8l-1.33 1.228 1.839-1.061a.5.5 0 0 1 .5.865l-5.729 3.307a.5.5 0 0 1 -.25.067z"/><path d="m12.109 52.47a.5.5 0 0 1 -.3-.9l3.109-2.325-4.2 2.423a.5.5 0 0 1 -.554-.83l5.393-4.129-5.28 3.048a.5.5 0 0 1 -.548-.834l4.978-3.7-4.43 2.556a.5.5 0 0 1 -.542-.839l3.79-2.723-3.243 1.883a.5.5 0 0 1 -.538-.841l2.926-2.069-2.388 1.378a.5.5 0 0 1 -.55-.833l5.292-3.97-4.742 2.735a.5.5 0 0 1 -.542-.839l3.865-2.782-3.323 1.921a.5.5 0 0 1 -.543-.838l3.945-2.845-3.4 1.963a.5.5 0 0 1 -.549-.833l5.165-3.858-4.614 2.663a.5.5 0 0 1 -.561-.824l.672-.535-.111.064a.5.5 0 0 1 -.561-.823l.45-.36a.5.5 0 0 1 -.479-.846l1.081-1-.491.283a.5.5 0 0 1 -.647-.737l.6-.79a.5.5 0 0 1 -.17-.925l1.656-.956a.5.5 0 0 1 .647.736l-.426.558 2.179-1.258a.5.5 0 0 1 .59.8l-1.082 1 1.732-1a.5.5 0 0 1 .562.824l-.371.3.159-.092a.5.5 0 0 1 .663.151.5.5 0 0 1 -.1.673l-.672.535 6.12-3.533a.5.5 0 0 1 .548.833l-5.163 3.857 4.615-2.663a.5.5 0 0 1 .543.838l-3.948 2.838 3.4-1.963a.5.5 0 0 1 .542.839l-3.863 2.785 3.324-1.918a.5.5 0 0 1 .549.833l-5.293 3.971 4.743-2.737a.5.5 0 0 1 .538.84l-2.926 2.064 2.388-1.378a.5.5 0 0 1 .542.839l-3.79 2.725 3.248-1.875a.5.5 0 0 1 .548.834l-4.978 3.7 4.43-2.559a.5.5 0 0 1 .553.83l-5.392 4.128 4.839-2.793a.5.5 0 0 1 .549.833l-3.111 2.326 2.562-1.478a.5.5 0 0 1 .5.865l-9.864 5.689a.493.493 0 0 1 -.25.07z"/><path d="m47.285 52.47a.5.5 0 0 1 -.385-.82l.9-1.081-2.618 1.511a.5.5 0 0 1 -.6-.794l2.042-1.954-2.324 1.343a.5.5 0 1 1 -.5-.865l5.921-3.418a.5.5 0 0 1 .595.794l-2.04 1.954 1.447-.835a.5.5 0 0 1 .634.752l-.9 1.081.206-.118a.5.5 0 1 1 .5.865l-2.628 1.515a.49.49 0 0 1 -.25.07z"/><path d="m44.318 31.487a.5.5 0 0 1 -.25-.932l1.656-.955a.5.5 0 0 1 .5.865l-1.656.955a.494.494 0 0 1 -.25.067z"/><path d="m41.072 55.47a.5.5 0 0 1 -.394-.808l1.322-1.688-3.164 1.826a.5.5 0 0 1 -.534-.844l1.19-.822-1.171.676a.5.5 0 0 1 -.547-.835l4.792-3.542-4.284 2.467a.5.5 0 0 1 -.533-.844l1.365-.937-.832.48a.5.5 0 0 1 -.542-.839l3.757-2.7-3.215 1.856a.5.5 0 0 1 -.552-.831l5.6-4.246-5.045 2.912a.5.5 0 0 1 -.548-.834l4.978-3.7-4.43 2.556a.5.5 0 0 1 -.542-.839l3.79-2.723-3.251 1.889a.5.5 0 0 1 -.538-.841l2.926-2.069-2.388 1.378a.5.5 0 0 1 -.55-.833l5.292-3.97-4.742 2.735a.5.5 0 0 1 -.544-.837l3.718-2.7-3.174 1.837a.5.5 0 0 1 -.551-.832l3.221-2.429-2.67 1.541a.5.5 0 0 1 -.588-.8l2.6-2.385-2.01 1.159a.5.5 0 0 1 -.561-.824l.672-.535-.111.064a.5.5 0 0 1 -.561-.823l.45-.36a.5.5 0 0 1 -.479-.846l1.081-1-.491.283a.5.5 0 0 1 -.647-.737l.6-.79a.491.491 0 0 1 -.352-.243.5.5 0 0 1 .182-.682l1.657-.956a.5.5 0 0 1 .647.736l-.426.557 2.178-1.257a.5.5 0 0 1 .59.8l-1.082 1 1.732-1a.5.5 0 0 1 .562.824l-.371.3.159-.092a.5.5 0 0 1 .561.824l-.672.534.12-.068a.5.5 0 0 1 .588.8l-2.6 2.386 5.8-3.346a.5.5 0 0 1 .667.156.5.5 0 0 1 -.116.676l-3.221 2.428 4.419-2.55a.5.5 0 0 1 .544.837l-3.716 2.7 3.635-2.1a.5.5 0 0 1 .549.833l-5.291 3.964 4.743-2.737a.5.5 0 0 1 .538.84l-2.926 2.064 2.388-1.378a.5.5 0 0 1 .67.161.5.5 0 0 1 -.128.678l-3.79 2.725 3.248-1.875a.5.5 0 0 1 .548.834l-4.978 3.7 4.43-2.559a.5.5 0 0 1 .551.831l-5.6 4.246 5.045-2.912a.5.5 0 0 1 .542.839l-3.758 2.7 3.216-1.855a.5.5 0 0 1 .533.845l-1.365.937.832-.48a.5.5 0 0 1 .547.834l-4.791 3.542 4.244-2.45a.5.5 0 0 1 .534.844l-5.874 4.056a.5.5 0 0 1 -.016.592l-1.318 1.689.649-.375a.5.5 0 1 1 .5.865l-2.872 1.652a.49.49 0 0 1 -.25.07z"/></g><path d="m20.031 55.468a.5.5 0 0 1 -.413-.782l.7-1.032-2.786 1.609a.5.5 0 0 1 -.583-.806l1.051-.931-1.473.85a.5.5 0 0 1 -.587-.8l2.272-2.076-1.93 1.113a.5.5 0 0 1 -.567-.819l1.2-.986-.637.367a.5.5 0 0 1 -.6-.794l2.923-2.791-2.328 1.344a.5.5 0 0 1 -.586-.8l2.486-2.257-1.9 1.1a.5.5 0 0 1 -.559-.826l.486-.382a.5.5 0 0 1 -.5-.847l1.933-1.667-1.357.782a.5.5 0 0 1 -.586-.8l2.492-2.264-1.906 1.1a.5.5 0 0 1 -.587-.8l2.514-2.288-1.921 1.105a.5.5 0 0 1 -.591-.8l2.723-2.536-2.132 1.23a.5.5 0 0 1 -.583-.8l2.324-2.084-1.741 1a.5.5 0 0 1 -.584-.8l2.372-2.128-1.788 1.031a.5.5 0 0 1 -.591-.8l2.6-2.424-2.013 1.162a.5.5 0 0 1 -.6-.787l1.874-1.86-1.272.734a.5.5 0 0 1 -.619-.094.5.5 0 0 1 -.04-.625l.72-1.026a.511.511 0 0 1 -.457-.25.5.5 0 0 1 .182-.682l1.657-.956a.5.5 0 0 1 .659.719l-.644.918 2.654-1.532a.5.5 0 0 1 .6.787l-1.872 1.867 2.49-1.437a.5.5 0 0 1 .591.8l-2.6 2.423 2.124-1.227a.5.5 0 0 1 .584.8l-2.372 2.128 1.788-1.032a.5.5 0 0 1 .583.806l-2.327 2.085 1.742-1.005a.5.5 0 0 1 .59.8l-2.722 2.536 2.132-1.23a.5.5 0 0 1 .587.8l-2.51 2.285 1.927-1.113a.5.5 0 0 1 .586.8l-2.5 2.266 1.909-1.1a.5.5 0 0 1 .576.812l-1.93 1.665 1.354-.781a.5.5 0 0 1 .559.825l-.486.383a.5.5 0 0 1 .513.837l-2.486 2.257 1.9-1.1a.5.5 0 0 1 .6.794l-2.922 2.797 2.328-1.344a.5.5 0 0 1 .567.819l-1.2.986.637-.367a.5.5 0 0 1 .587.8l-2.272 2.068 1.685-.972a.5.5 0 0 1 .583.805l-1.046.932.463-.267a.5.5 0 0 1 .663.715l-.757 1.109a.508.508 0 0 1 .49.247.5.5 0 0 1 -.182.682l-1.656.956a.49.49 0 0 1 -.259.071z" fill="#305470"/><path d="m41.548 55.47a.5.5 0 0 1 -.38-.825l.516-.6-2.127 1.227a.5.5 0 0 1 -.582-.806l.99-.88-1.421.82a.5.5 0 0 1 -.6-.794l2.7-2.585-2.362 1.363a.5.5 0 0 1 -.573-.815l1.684-1.425-1.111.641a.5.5 0 0 1 -.581-.808l2.2-1.946-1.623.937a.5.5 0 0 1 -.558-.827l.473-.371a.5.5 0 0 1 -.5-.847l2.198-1.929-1.609.929a.5.5 0 0 1 -.585-.8l2.447-2.212-1.862 1.074a.5.5 0 0 1 -.587-.8l2.554-2.335-1.967 1.134a.5.5 0 0 1 -.654-.138.5.5 0 0 1 .068-.665l2.459-2.226-1.873 1.081a.5.5 0 0 1 -.57-.816l1.476-1.232-.906.523a.5.5 0 0 1 -.592-.8l2.756-2.577-2.164 1.249a.5.5 0 0 1 -.592-.8l2.75-2.57-2.158 1.246a.5.5 0 0 1 -.6-.793l2.845-2.744-2.249 1.3a.5.5 0 0 1 -.6-.785l1.817-1.829-1.213.7a.5.5 0 0 1 -.622-.1.5.5 0 0 1 -.031-.63l.655-.892a.5.5 0 0 1 -.216-.931l1.657-.956a.5.5 0 0 1 .653.728l-.53.722 2.4-1.384a.5.5 0 0 1 .605.785l-1.816 1.827 2.533-1.463a.5.5 0 0 1 .6.793l-2.847 2.746 2.406-1.388a.5.5 0 0 1 .591.8l-2.75 2.57 2.159-1.246a.5.5 0 0 1 .591.8l-2.755 2.577 2.164-1.249a.5.5 0 0 1 .57.816l-1.477 1.232.907-.523a.5.5 0 0 1 .586.8l-2.462 2.228 1.876-1.083a.5.5 0 0 1 .587.8l-2.552 2.333 1.965-1.134a.5.5 0 0 1 .585.8l-2.447 2.212 1.862-1.074a.5.5 0 0 1 .581.807l-2.193 1.934 1.612-.93a.5.5 0 0 1 .558.827l-.47.37a.5.5 0 0 1 .493.847l-2.2 1.947 1.623-.937a.5.5 0 0 1 .573.815l-1.684 1.424 1.111-.64a.5.5 0 0 1 .595.794l-2.694 2.584 2.1-1.212a.5.5 0 0 1 .582.806l-.992.88.41-.235a.5.5 0 0 1 .63.758l-.574.668a.507.507 0 0 1 .523.242.5.5 0 0 1 -.183.683l-2.33 1.338a.49.49 0 0 1 -.252.07z" fill="#305470"/><path d="m50.741 35.3c22.429-16.8-2.394-44.054-20.604-23.293-17.924-20.939-43.429 6.965-20.859 23.561v3.032c-1.846.064-5.428-.65-5 2.281-.716 3.328 2.9 2.433 5 2.523.275 5.2-1.871 10.791 5.969 8.549-.416 3.224 2.169 3.782 4.766 3.313 3.261-.213 2.8-3.686 2.721-6.062 8.114 8.508 6.52 7.984 14.541-.186.158 1.758-.388 3.688.362 5.329.83 1.272 2.322 1.107 3.642 1.1 1.941.143 3.8-1.183 3.451-3.291 7.379 1.982 5.925-3.827 6-8.815 3.124 0 5.568.632 4.995-3.535-.472-2.044-3.468-.841-4.995-1.149q.001-1.68.011-3.357zm-48.957-16.8c.494-9.749 11.557-16.218 20.242-11.649 2.926 1.417 5.057 3.992 7.3 6.269.28.284 1.013.07 1.252-.172 15.892-20.527 39.956 5.439 20.16 21 .625-4.462-2.37-5.21-6.01-4.037.426-3.156-2.1-3.638-4.64-3.35-4.867.33-2.156 8.752-2.815 12.152h-14.546v-7.458c0-1.9.361-4.339-2.254-4.55-2.222-.092-5.528.044-5.2 3.134-2.845-.593-6.721-.085-6.016 3.784-4.367-3.89-8.203-8.941-7.473-15.123zm20.943 21.681v-.891h14.548v3.431h-14.548zm-16.794-.834c.049-.054.033-.018 0 0zm2.055 3.253c-2.811.268-2.233-.572-2.26-2.76a.762.762 0 0 1 .154-.436h3.4v3.2zm4.712 9.077c-1.823-.049-1.977-1.508-1.977-2.915v-16.218c-.271-1.988 1.041-2.488 2.8-2.226 1.37.1 1.682 1.076 1.738 2.131.038 5.914.007 11.83.016 17.743-.116 1.624-1.354 1.518-2.577 1.485zm8.574 1.432c.037 1.336-1.092 1.826-2.287 1.6-3.776-.208-1.718-5.075-2.264-7.429 0-6.142-.007-12.287 0-18.427-.035-1.664 1.554-1.721 2.806-1.554 2.074.167 1.745 2.438 1.745 3.891v16.269c-.013 1.866.026 3.773.004 5.65zm9.933.466c-.652.885-1.236 1.277-2 .219l-6.482-6.565v-3.95h14.55v4.154zm12.064-.5c-.141 1.631-1.683 1.622-2.984 1.474-2.822-.779-1.148-4.863-1.582-7.039a.227.227 0 0 0 0-.252q.036-7.59.022-15.177c0-1.118-.507-4.5 1.179-4.64 1.111-.025 2.57-.24 3.153.894.59 8.149-.004 16.53.216 24.743zm5.976-2.713c-.289 1.968-4.782 1.527-4.521-.614q0-7.762 0-15.524c.1-1.224-.474-3.512 1.192-3.75 1.455-.176 3.459-.055 3.348 1.868-.031 6.005.082 12.041-.015 18.023zm4.769-7.617c-.038-.009 0-.024.048-.039-.016.019-.031.035-.021.022-.086.122-.043.014-.023.02zm-2.044-3.406c.69.106 1.637-.286 2.14.309a5.314 5.314 0 0 1 0 3.007h-3.38v-3.313z" fill="#262626"/></svg>