<svg id="icons" height="512" viewBox="0 0 60 60" width="512" xmlns="http://www.w3.org/2000/svg"><g fill="#e8be4b"><path d="m6.23 10.47a.5.5 0 0 1 -.251-.933l2.936-1.694a.5.5 0 0 1 .739.535l-.178.854a.5.5 0 0 1 .06.9l-.476.268a.5.5 0 0 1 -.739-.536l.125-.6-1.967 1.136a.489.489 0 0 1 -.249.07z"/><path d="m13.358 28.364a.491.491 0 0 1 -.23-.056.5.5 0 0 1 -.268-.4l-.122-1.372-1.951 1.126a.5.5 0 0 1 -.638-.748l.357-.438-1.11.639a.5.5 0 0 1 -.628-.76l.8-.919-1.59.917a.494.494 0 0 1 -.623-.1.5.5 0 0 1 -.028-.631l.925-1.243-1.7.979a.494.494 0 0 1 -.612-.088.5.5 0 0 1 -.058-.616l1.032-1.6-1.769 1.022a.5.5 0 0 1 -.618-.771l.458-.5-.628.362a.5.5 0 0 1 -.661-.718l1.111-1.6-1.48.853a.5.5 0 0 1 -.6-.789l.117-.115-.02.011a.5.5 0 0 1 -.607-.783l.428-.437-.309.178a.5.5 0 0 1 -.613-.777l.754-.8-.58.334a.5.5 0 0 1 -.634-.752l1.537-1.849-1.334.769a.5.5 0 0 1 -.649-.131.5.5 0 0 1 .055-.661l.805-.775-.367.212a.5.5 0 0 1 -.586-.8l.476-.437a.5.5 0 0 1 -.472-.87l1.51-1.136-.959.553a.5.5 0 0 1 -.554-.829l1.86-1.425-1.306.753a.5.5 0 0 1 -.616-.772l2.1-2.26-1.483.856a.5.5 0 0 1 -.645-.74l.583-.751a.5.5 0 0 1 -.151-.922l1.659-.957a.5.5 0 0 1 .645.739l-.38.488 2.151-1.241a.5.5 0 0 1 .616.772l-2.1 2.261 5.072-2.928a.5.5 0 0 1 .555.83l-1.858 1.423 1.426-.823a.5.5 0 0 1 .551.832l-4.068 3.062a.334.334 0 0 1 .038.045.5.5 0 0 1 -.068.665l-.49.445a.5.5 0 0 1 .5.836l-.8.774.211-.121a.5.5 0 0 1 .634.752l-1.54 1.856 1.121-.648a.5.5 0 0 1 .642.123.5.5 0 0 1 -.029.654l-.753.8.5-.286a.5.5 0 0 1 .608.782l-.429.439.272-.156a.5.5 0 0 1 .6.789l-.116.114h.009a.5.5 0 0 1 .661.718l-1.11 1.6 1.531-.896a.5.5 0 0 1 .617.771l-.459.5.718-.414a.5.5 0 0 1 .67.7l-1.032 1.6 2-1.154a.5.5 0 0 1 .652.731l-.925 1.242 2.061-1.189a.5.5 0 0 1 .628.76l-.8.921.889-.513a.5.5 0 0 1 .638.748l-.357.438.284-.163a.5.5 0 0 1 .748.388l.123 1.371.081-.037a.5.5 0 1 1 .5.865l-.756.437a.493.493 0 0 1 -.25.062z"/><path d="m47.159 28.292a.5.5 0 0 1 -.288-.908l1.185-.837-1.7.983a.5.5 0 0 1 -.556-.83l5.333-3.961-3.183 1.835a.5.5 0 0 1 -.554-.829l6.4-4.907a.491.491 0 0 1 -.2-.166.5.5 0 0 1 .089-.67l.9-.747a.5.5 0 0 1 -.3-.861l1.25-1.184-.314.181a.5.5 0 0 1 -.6-.791l1.114-1.084-.466.268a.5.5 0 0 1 -.6-.793l.978-.94-.382.22a.5.5 0 0 1 -.617-.773l1.659-1.793-1.511.872a.5.5 0 0 1 -.642-.743l1.522-1.921-4.362 2.519a.5.5 0 0 1 -.567-.82l.177-.144a.508.508 0 0 1 -.538-.177.5.5 0 0 1 .045-.658l.448-.445a.5.5 0 0 1 -.462-.677l.29-.766a.5.5 0 0 1 .032-.847l.523-.3a.5.5 0 0 1 .718.61l-.132.347 1.673-.955a.5.5 0 0 1 .6.787l-.253.252 1.802-1.039a.5.5 0 0 1 .567.819l-.109.089 1.334-.77a.5.5 0 0 1 .642.743l-1.523 1.919 2.1-1.211a.5.5 0 0 1 .617.773l-1.66 1.793 1.082-.624a.5.5 0 0 1 .6.793l-.978.94.382-.219a.5.5 0 0 1 .6.791l-1.124 1.085.517-.3a.5.5 0 0 1 .593.8l-1.245 1.179.647-.373a.5.5 0 0 1 .57.817l-.544.454a.5.5 0 0 1 .442.877l-5.088 3.9 4.05-2.338a.5.5 0 0 1 .547.834l-5.334 3.962 3.684-2.126a.5.5 0 0 1 .538.841l-1.716 1.212a.529.529 0 0 1 .448.25.5.5 0 0 1 -.183.682l-8.717 5.034a.491.491 0 0 1 -.25.066z"/><path d="m20.355 50.5a.5.5 0 0 1 -.3-.9l6.18-4.578-5.957 3.44a.5.5 0 0 1 -.544-.837l5.387-3.91-.386.222a.5.5 0 0 1 -.595-.794l3.08-2.945-.514.3a.5.5 0 0 1 -.706-.63l.608-1.452a.512.512 0 0 1 -.136-.152.5.5 0 0 1 .183-.683l.548-.316a.5.5 0 0 1 .711.626l-.418 1 2.832-1.635a.5.5 0 0 1 .6.794l-3.08 2.943 5.074-2.928a.5.5 0 0 1 .544.836l-5.382 3.908 5.264-3.039a.5.5 0 0 1 .548.834l-6.18 4.576 6.391-3.69a.5.5 0 0 1 .561.824l-4.918 3.925 5.507-3.178a.5.5 0 0 1 .553.831l-2.24 1.7 2.73-1.581a.5.5 0 0 1 .562.823l-1.786 1.431 2.5-1.441a.5.5 0 0 1 .565.822l-.862.7 1.575-.909a.5.5 0 0 1 .639.746l-1.641 2.017 1.869-1.079a.5.5 0 0 1 .688.673l-.5.907a.508.508 0 0 1 .51.244.5.5 0 0 1 -.183.683l-1.336.772a.5.5 0 0 1 -.6-.075.5.5 0 0 1 -.089-.6l.466-.85-2.648 1.528a.5.5 0 0 1 -.639-.746l1.632-2.023-4.807 2.775a.5.5 0 0 1 -.565-.821l.866-.7-2.639 1.523a.5.5 0 0 1 -.563-.823l1.786-1.425-3.914 2.259a.5.5 0 0 1 -.553-.831l2.236-1.7-4.388 2.533a.5.5 0 0 1 -.562-.823l4.916-3.924-8.235 4.756a.488.488 0 0 1 -.245.067z"/></g><path d="m23.091 59.47a.5.5 0 0 1 -.275-.918l.33-.217-1.846 1.065a.5.5 0 0 1 -.545-.836l6.112-4.464-8.067 4.654a.5.5 0 0 1 -.525-.85l.086-.057-.023.013a.5.5 0 0 1 -.535-.843l1.961-1.354-1.479.854a.5.5 0 0 1 -.562-.824l3.654-2.922-3.097 1.786a.5.5 0 0 1 -.608-.783l2.437-2.491-1.829 1.056a.5.5 0 0 1 -.664-.713l.772-1.143a.507.507 0 0 1 -.505-.245.5.5 0 0 1 .183-.682l1.656-.956a.5.5 0 0 1 .664.713l-.728 1.076 3.105-1.789a.5.5 0 0 1 .607.782l-2.435 2.489 5.665-3.271a.5.5 0 0 1 .562.823l-3.656 2.923 6.494-3.746a.5.5 0 0 1 .534.843l-1.957 1.351 3.8-2.194a.5.5 0 0 1 .525.849l-.087.058 1.573-.907a.5.5 0 0 1 .545.836l-6.116 4.472 9.2-5.308a.5.5 0 0 1 .524.85l-.324.213 1.8-1.042a.5.5 0 0 1 .54.84l-5.322 3.782 6.246-3.6a.5.5 0 0 1 .537.843l-3.282 2.294 2.981-1.72a.5.5 0 0 1 .552.83l-3.569 2.715 3.02-1.745a.5.5 0 0 1 .572.816l-2.407 2.024 1.835-1.059a.5.5 0 0 1 .626.762l-1.419 1.617.793-.458a.5.5 0 0 1 .5.866l-3.42 1.972a.5.5 0 0 1 -.626-.762l1.419-1.617-4.12 2.379a.5.5 0 0 1 -.573-.815l2.408-2.024-4.92 2.839a.5.5 0 0 1 -.553-.83l3.579-2.724-6.159 3.554a.5.5 0 0 1 -.536-.842l3.281-2.293-5.435 3.135a.5.5 0 0 1 -.539-.839l5.32-3.782-8.006 4.621a.489.489 0 0 1 -.249.07z" fill="#436e8e"/><path d="m31.529 38.38a.5.5 0 0 1 -.3-.9l7.145-5.247-10.374 5.988a.5.5 0 0 1 -.521-.854l1.6-1.026-2.67 1.541a.5.5 0 0 1 -.53-.847l10.446-7.048-12.225 7.059a.5.5 0 0 1 -.518-.856l4.055-2.56-4.812 2.777a.5.5 0 0 1 -.515-.856l3.471-2.174-4.081 2.356a.5.5 0 0 1 -.524-.851l13.864-9.059-15.019 8.671a.5.5 0 0 1 -.52-.853l12.853-8.229-13.675 7.9a.5.5 0 0 1 -.521-.853l15.694-10.113-16.532 9.544a.5.5 0 0 1 -.518-.855l14.6-9.271-15.202 8.777a.5.5 0 0 1 -.513-.857l9.653-6-9.957 5.749a.5.5 0 0 1 -.518-.856l15.969-10.1-16.425 9.479a.5.5 0 0 1 -.509-.856l10.492-6.5-10.692 6.166a.5.5 0 0 1 -.515-.857l13.955-8.709-14.178 8.181a.5.5 0 0 1 -.513-.858l10.716-6.636-10.81 6.24a.5.5 0 0 1 -.513-.857l10.089-6.27-10.131 5.854a.5.5 0 0 1 -.523-.854l14.01-8.913-14.125 8.155a.5.5 0 0 1 -.522-.851l14.36-9.32-14.466 8.352a.5.5 0 0 1 -.525-.851l12.941-8.509-12.97 7.487a.5.5 0 0 1 -.527-.849l11.141-7.42-11.076 6.4a.5.5 0 0 1 -.518-.859l4.42-2.84-4.178 2.411a.5.5 0 0 1 -.523-.852l4.227-2.752-3.946 2.278a.5.5 0 0 1 -.542-.838l7.992-5.744-7.76 4.48a.5.5 0 0 1 -.533-.845l3.309-2.273-2.938 1.7a.5.5 0 0 1 -.528-.847l.979-.669-.546.315a.5.5 0 0 1 -.573-.815l3.876-3.283-3.425 1.972a.5.5 0 0 1 -.606-.784l2.095-2.116-1.52.88a.5.5 0 0 1 -.657-.722l.7-.985a.467.467 0 0 1 -.44-.25.5.5 0 0 1 .183-.682l1.656-.961a.5.5 0 0 1 .657.722l-.611.861 2.745-1.583a.5.5 0 0 1 .605.784l-2.09 2.116 5.022-2.9a.5.5 0 0 1 .573.814l-3.877 3.286 7.1-4.1a.5.5 0 0 1 .532.845l-.975.666 2.62-1.511a.5.5 0 0 1 .534.844l-3.31 2.274 5.401-3.118a.5.5 0 0 1 .542.839l-7.99 5.742 11.4-6.581a.5.5 0 0 1 .523.851l-4.223 2.749 6.238-3.6a.5.5 0 0 1 .52.853l-4.42 2.84 6.398-3.693a.5.5 0 0 1 .527.848l-11.143 7.419 14.325-8.267a.5.5 0 0 1 .524.85l-12.936 8.505 16.209-9.355a.5.5 0 0 1 .522.851l-14.357 9.316 17.613-10.167a.5.5 0 0 1 .518.854l-14.008 8.91 16.917-9.764a.5.5 0 0 1 .513.857l-10.094 6.268 11.925-6.885a.5.5 0 0 1 .514.857l-10.717 6.637 11.119-6.419a.5.5 0 0 1 .515.856l-13.942 8.708 13.539-7.816a.5.5 0 0 1 .513.858l-10.513 6.514 9.973-5.758a.5.5 0 0 1 .518.856l-15.959 10.1 15.327-8.852a.5.5 0 0 1 .514.857l-9.656 6 9-5.193a.5.5 0 0 1 .517.854l-14.6 9.272 13.803-7.971a.5.5 0 0 1 .521.853l-15.694 10.109 14.753-8.517a.5.5 0 0 1 .52.853l-12.856 8.229 11.817-6.822a.5.5 0 0 1 .523.852l-13.867 9.062 12.6-7.271a.5.5 0 0 1 .515.856l-3.453 2.161 2.37-1.365a.5.5 0 0 1 .517.856l-4.055 2.561 2.844-1.641a.5.5 0 0 1 .529.846l-10.449 7.047 8.528-4.924a.5.5 0 0 1 .521.854l-1.59 1.02.012-.006a.5.5 0 0 1 .546.836l-7.145 5.251 3.8-2.2a.5.5 0 0 1 .544.837l-3.023 2.2a.532.532 0 0 1 .109.131.5.5 0 0 1 -.183.683l-5.1 2.945a.5.5 0 0 1 -.543-.837l.449-.327-3.439 1.986a.5.5 0 0 1 -.248.062z" fill="#f9d76a"/><path d="m19.015 18.47a.5.5 0 0 1 -.42-.773l.826-1.27-2.879 1.662a.5.5 0 0 1 -.578-.811l.274-.236a.5.5 0 0 1 -.66-.67l.559-1.175a.5.5 0 0 1 -.3-.929l1.163-.668a.5.5 0 0 1 .7.647l-.527 1.108 3.083-1.78a.5.5 0 0 1 .578.811l-.26.225.154-.088a.5.5 0 0 1 .669.705l-.827 1.272.171-.1a.5.5 0 1 1 .5.866l-1.976 1.134a.493.493 0 0 1 -.25.07z" fill="#fff"/><path d="m41.612 18.48a.5.5 0 0 1 -.4-.8l.923-1.256-2.855 1.651a.5.5 0 0 1 -.629-.76l1.188-1.375-.559.323a.5.5 0 0 1 -.731-.567l.258-.93a.5.5 0 0 1 -.027-.881l.5-.288a.5.5 0 0 1 .732.567l-.173.622 2.061-1.186a.5.5 0 0 1 .629.759l-1.186 1.374 2.356-1.36a.5.5 0 0 1 .654.729l-.923 1.254.292-.167a.5.5 0 0 1 .5.865l-2.358 1.361a.489.489 0 0 1 -.252.065z" fill="#fff"/><path d="m24.146 18.5a.5.5 0 0 1 -.341-.866l1.046-.972-.571.329a.5.5 0 0 1 -.74-.53l.331-1.669a.489.489 0 0 1 -.274-.224.5.5 0 0 1 .183-.682l.5-.29a.5.5 0 0 1 .74.53l-.287 1.448 3.444-1.988a.5.5 0 0 1 .591.8l-1.046.971 3.078-1.777a.5.5 0 0 1 .633.754l-1.515 1.8 4.447-2.569a.5.5 0 0 1 .641.745l-1.526 1.909 2.248-1.3a.5.5 0 0 1 .619.771l-.347.391a.5.5 0 0 1 .243.933l-2.416 1.395a.5.5 0 0 1 -.618-.771l.194-.211-1.711.987a.5.5 0 0 1 -.64-.745l1.524-1.908-4.611 2.663a.5.5 0 0 1 -.633-.754l1.515-1.805-4.447 2.568a.494.494 0 0 1 -.254.067z" fill="#fff"/><path d="m22.272 23.47a.5.5 0 0 1 -.383-.823l.866-1.028-1.962 1.132a.5.5 0 0 1 -.615-.774l2.122-2.261-2.02 1.164a.5.5 0 0 1 -.592-.8l1.781-1.672-1.189.692a.5.5 0 0 1 -.59-.8l1.642-1.516-1.052.608a.5.5 0 0 1 -.6-.786l2.278-2.286-1.674.966a.5.5 0 0 1 -.589-.8l1.517-1.4-.928.536a.5.5 0 0 1 -.588-.8l.776-.713-.188.109a.5.5 0 0 1 -.659-.721l.712-1.009a.477.477 0 0 1 -.45-.25.5.5 0 0 1 .183-.682l1.652-.956a.5.5 0 0 1 .658.72l-.631.9 2.151-1.248a.5.5 0 0 1 .588.8l-.774.711.906-.522a.5.5 0 0 1 .588.8l-1.52 1.4 1.028-.593a.5.5 0 0 1 .6.786l-2.276 2.284 1.672-.965a.5.5 0 0 1 .59.8l-1.642 1.515 1.052-.607a.5.5 0 0 1 .592.8l-1.783 1.674 1.191-.688a.5.5 0 0 1 .615.775l-2.111 2.258 1.5-.868a.5.5 0 0 1 .633.755l-.866 1.028.177-.1a.5.5 0 1 1 .5.865l-2.639 1.52a.489.489 0 0 1 -.249.07z" fill="#436e8e"/><path d="m36.731 23.448a.5.5 0 0 1 -.393-.807l1.653-2.117-2.616 1.51a.5.5 0 0 1 -.594-.8l1.764-1.671-1.265.737a.5.5 0 0 1 -.605-.784l2.325-2.351-1.718.991a.5.5 0 0 1 -.57-.816l.512-.428a.5.5 0 0 1 -.551-.809l2.452-2.533-1.845 1.064a.5.5 0 0 1 -.619-.77l2.091-2.29-1.472.85a.5.5 0 0 1 -.613-.089.5.5 0 0 1 -.055-.618l.815-1.241a.5.5 0 0 1 -.362-.92l1.657-.956a.5.5 0 0 1 .668.707l-.787 1.2 2.447-1.413a.5.5 0 0 1 .619.769l-2.09 2.288 2.141-1.235a.5.5 0 0 1 .609.78l-2.452 2.533 1.843-1.064a.5.5 0 0 1 .57.816l-.515.43a.5.5 0 0 1 .55.813l-2.325 2.347 1.717-.991a.5.5 0 0 1 .593.8l-1.765 1.672 1.172-.676a.5.5 0 0 1 .643.74l-1.65 2.113 1-.579a.5.5 0 0 1 .5.866l-3.232 1.865a.489.489 0 0 1 -.247.067z" fill="#436e8e"/><path d="m58.019 5.691c-1.735-.318-3.573-.007-5.34-.1-.064-1.542.53-3.475-.918-4.54-4.524-1.118-9.561-.114-14.247-.44h-24.4c-4.014-.311-6.623.298-5.843 5.068-2.922-.113-7.807-.5-6.995 3.85-1.365 8.751 3.824 18.546 13.47 18.753 2.869 4.487 7.122 8.451 12.413 9.638-.8 8.058-7.379 5.775-6.9 10.712-2.248.539-2.148 3.108-2 4.954-.624 6.659 1.712 6.051 7.292 5.933h15.382c3.432-.277 2.8-3.827 2.8-6.282.153-1.754.243-4.329-2-4.66.632-5.018-5.945-2.581-6.877-10.764 5.268-1.357 9.339-5.016 12.259-9.458 8.691-.5 14.7-8.97 13.608-17.336.001-1.783.565-4.697-1.704-5.328zm-3.906 10.291a9.681 9.681 0 0 1 -5.081 6.862 47.65 47.65 0 0 0 3.306-12.582c1.9-.3 2.124.834 1.937 2.432a17.622 17.622 0 0 1 -.162 3.288zm-48.389-5.11c.008-.1.054-.319.055-.342.111-.137.095-.212-.04-.226.644-.007 1.267.016 1.908.007a44.539 44.539 0 0 0 3.053 12.081c-4.114-2.231-5.45-7.08-4.976-11.52zm-3.5 6.657c-.393-1.782-1.348-10.57.358-11.215 1.5-.236 3.2.116 4.728 0 .062 1.12.132 2.236.254 3.35-1.647-.185-3.774.374-3.288 2.449-.585 4.976 2.053 10.173 7.024 11.676a35.79 35.79 0 0 0 1.977 3.75 14.021 14.021 0 0 1 -11.052-10.01zm39.043 33.715c-.273 1.692.954 7.015-1.2 7.237h-17.92c-1.491 0-3.31.331-3.414-1.774.267-2.035-1.356-7.183 1.76-7.188h16.707c1.553 0 3.955-.506 4.067 1.725zm-5.156-6.35c1.441 1.05 3.6 1.249 3.173 3.579-6.187-.07-12.378.019-18.565 0-.687-3.939 5.671-2.137 6.841-10.276a15.8 15.8 0 0 0 4.838-.063 9.813 9.813 0 0 0 3.713 6.76zm1.122-9.214a14.115 14.115 0 0 1 -9.733 1.592c-13.142-3.349-18.109-19.031-18.727-31.189-.3-3.182-.464-5.315 3.5-4.694h32.79c2.473.085 6.768-1.119 6.214 2.806-.151 11.579-3.65 24.999-14.044 31.485zm20.96-20.063c-.561 5.96-5.483 11.344-11.548 11.9a35.167 35.167 0 0 0 2.094-4 10.534 10.534 0 0 0 6.985-10.629c.355-3.155-.392-3.359-3.323-3.184.129-1.1.2-2.2.258-3.3 1.222-.013 2.447-.035 3.666.009 3.182-.261 1.71 7.03 1.868 9.204z" fill="#262626"/><path d="m44.73 14.979c-.051-2.065-2.643-1.329-4.006-1.456-.075-1.726.5-4.23-1.712-4.809-3.838-.82-5.218 1.487-4.736 5h-8.522c.141-2.427.169-5.544-3.167-5.108-3.079-.126-3.6 2.435-3.321 4.956-2.914-.2-4.45.16-3.992 3.47.062 2.036 2.658 1.258 4 1.4-.212 2.694-.058 5.432 3.441 4.956 2.769 0 3.292-2.592 3.011-4.862h8.552c-.085 1.983-.3 4.853 2.433 4.847 3.522.222 4.409-1.7 4.015-4.9 2.941.217 4.456-.173 4.004-3.494zm-27.976-.543c-.021 0-.04 0-.026 0zm.6 3.128c-.361.026-.61-.338-.629-.7a8.926 8.926 0 0 1 .128-2.411s.015-.013.024-.02h2.384q.006 1.564.012 3.128-.959.003-1.918.003zm5.932 5.044c-3.047.573-2.6-2.77-2.562-4.773.273-2.646-.6-5.678.428-8.125 4.247-1.966 2.985 4.277 3.122 6.623-.301 1.51.842 5.901-.987 6.275zm3.014-5.138h-.577c0-1.06.019-2.123.027-3.186h8.523v3.186zm12.723 4.6c-.411.693-1.043.557-1.735.557-1.261-.06-1.567-1.289-1.567-2.31.113-3.369-.227-6.81.137-10.15.9-1.738 3.7-.525 3.414 1.321-.188 3.494.399 7.166-.246 10.578zm4.057-4.517c-.038.014-.022.008 0 0zm.031-.01c-.011.011-.052.041.003-.004zm.156-1.687c-.059.53.152 1.221-.149 1.671q-1.2 0-2.4 0v-3.05c.7 0 1.4-.005 2.1 0 .028.01.057.018.086.027.007.009.1.059.118.075.305.201.251.851.248 1.273z" fill="#262626"/></svg>