<svg width="104" height="104" viewBox="0 0 104 104" fill="none" xmlns="http://www.w3.org/2000/svg">
<circle cx="52" cy="52" r="52" fill="#BDFE30" fill-opacity="0.06"/>
<circle cx="52.0108" cy="52.0108" r="45.0108" fill="#BDFE30" fill-opacity="0.97"/>
<path d="M41.2038 46.277C41.9484 49.3367 43.3427 52.0588 44.986 54.6655C45.9798 56.2415 47.1009 57.7188 48.4176 59.0475C48.7351 59.3677 48.9722 59.3622 49.3284 59.1536C50.109 58.696 50.909 58.2687 51.7053 57.8388C53.0174 57.1292 54.0251 57.4226 54.7642 58.707C55.5909 60.1437 56.4232 61.5786 57.262 63.0079C57.9762 64.224 57.656 65.3876 56.3928 66.0021C54.7097 66.8206 53.0174 67.6224 51.3196 68.4104C51.1222 68.5018 50.8407 68.5258 50.6322 68.4649C49.01 67.9906 47.6296 67.0725 46.3452 66.0104C43.4091 63.5827 41.1336 60.5995 39.1479 57.3774C37.5885 54.8473 36.2875 52.1907 35.3251 49.3773C34.5066 46.9838 33.9142 44.5432 34.0102 41.9854C34.0259 41.572 34.0794 41.1595 34.1182 40.7471C34.1781 40.115 34.4642 39.6795 35.0298 39.3178C36.4656 38.4006 37.8469 37.3985 39.2522 36.4324C40.3595 35.6712 41.5618 35.9305 42.2391 37.0885C43.1313 38.6119 44.0162 40.1399 44.8956 41.6707C45.4991 42.7217 45.2195 43.8096 44.1851 44.4601C43.6914 44.7711 43.1876 45.0654 42.6894 45.369C42.2059 45.6625 41.7223 45.9596 41.2038 46.277Z" fill="#141514"/>
<path d="M49.036 57.2807C48.1391 56.0276 47.2044 54.8115 46.3675 53.5326C45.18 51.7176 44.2139 49.7817 43.4701 47.7388C43.2385 47.103 43.2293 47.1095 43.8235 46.7468C44.4658 46.3547 45.1034 45.957 45.7936 45.5316C46.792 46.2126 47.8273 46.9185 48.8626 47.6253C50.6886 48.8737 52.5147 50.1213 54.338 51.3716C55.1694 51.9418 55.3106 51.9363 56.1401 51.3679C60.3976 48.4511 64.6578 45.5399 68.9171 42.6269C69.0001 42.5697 69.0924 42.5263 69.2419 42.4414C69.253 42.6785 69.2687 42.8548 69.2687 43.032C69.2696 48.274 69.2705 53.515 69.2687 58.7571C69.2677 60 68.7455 60.5241 67.5044 60.525C64.4299 60.5278 61.3554 60.5222 58.2808 60.5324C57.9856 60.5333 57.8093 60.4586 57.6598 60.1873C57.2022 59.3531 56.7048 58.5411 56.2333 57.7135C55.1251 55.7683 52.9751 55.1474 51.0088 56.2103C50.3906 56.5453 49.7724 56.8812 49.036 57.2807Z" fill="#141514"/>
<path d="M46.744 44.0385C47.0707 43.1417 47.0485 42.2697 46.7256 41.3516C53.6756 41.3516 60.5905 41.3516 67.6272 41.3516C66.9462 41.8249 66.352 42.2429 65.7522 42.6535C62.3944 44.9511 59.0301 47.2395 55.6825 49.5518C55.3263 49.7982 55.1067 49.7714 54.7625 49.5334C52.1881 47.7488 49.5962 45.9901 47.0098 44.2231C46.9341 44.1705 46.8594 44.1188 46.744 44.0385Z" fill="#141514"/>
</svg>
