<svg id="icons" height="512" viewBox="0 0 60 60" width="512" xmlns="http://www.w3.org/2000/svg"><path d="m25.8 38.26a.5.5 0 0 1 -.342-.865l2.8-2.615-3.571 2.061a.5.5 0 0 1 -.538-.841l.354-.246-.581.335a.5.5 0 0 1 -.543-.838l5.977-4.317-6.722 3.88a.5.5 0 0 1 -.538-.841l4.984-3.509-1.86 1.073a.5.5 0 0 1 -.544-.838l3.836-2.78a.493.493 0 0 1 -.275-.186.5.5 0 0 1 .06-.663l4.542-4.243a.5.5 0 0 1 .243-.517l.867-.5a.5.5 0 0 1 .592.8l-2.367 2.211 3.042-1.755a.5.5 0 0 1 .544.837l-2.7 1.958 3.146-1.816a.5.5 0 0 1 .538.842l-4.979 3.506 5.58-3.222a.5.5 0 0 1 .543.838l-5.988 4.315 2.432-1.4a.5.5 0 0 1 .535.843l-2.833 1.969a.514.514 0 0 1 .149.134.5.5 0 0 1 -.06.663l-4.875 4.557a.5.5 0 0 1 -.236.548l-.966.557a.49.49 0 0 1 -.246.065z" fill="#bac5d8"/><path d="m36.983 27.96a.5.5 0 0 1 -.367-.84l1.352-1.462-1.945 1.122a.5.5 0 0 1 -.646-.128.5.5 0 0 1 .042-.658l1.109-1.111-1.523.879a.5.5 0 0 1 -.627-.762l1.55-1.782-2.2 1.268a.5.5 0 0 1 -.618-.77l1.407-1.532-1.793 1.036a.5.5 0 0 1 -.611-.78l2.587-2.691a.5.5 0 0 1 .221-.6l.867-.5a.5.5 0 0 1 .61.779l-1.121 1.167 1.564-.9a.5.5 0 0 1 .618.771l-1.406 1.532 1.966-1.135a.5.5 0 0 1 .627.761l-1.552 1.776 2.2-1.272a.5.5 0 0 1 .6.786l-1.109 1.111 1.528-.881a.5.5 0 0 1 .617.772l-1.83 1.984a.506.506 0 0 1 .224.2.5.5 0 0 1 -.182.683l-1.913 1.105a.5.5 0 0 1 -.246.072z" fill="#8a9cb7"/><path d="m23.484 41.943a.5.5 0 0 1 -.347-.859l1.114-1.079-1.52.877a.5.5 0 0 1 -.6-.788l1.541-1.526-2.072 1.194a.5.5 0 0 1 -.592-.8l1.249-1.171-1.67.964a.5.5 0 0 1 -.624-.755l2.02-2.325-2.847 1.643a.5.5 0 0 1 -.62-.768l2.577-2.841a.485.485 0 0 1 -.105-.127.5.5 0 0 1 .183-.682l1.448-.837a.5.5 0 0 1 .62.768l-1.839 2.021 2.666-1.54a.5.5 0 0 1 .627.761l-2.016 2.327 2.839-1.638a.5.5 0 0 1 .591.8l-1.249 1.171 1.665-.961a.5.5 0 0 1 .6.788l-1.54 1.525 1.673-.966a.5.5 0 0 1 .6.792l-3.035 2.94a.5.5 0 0 1 -.238.54l-.848.49a.489.489 0 0 1 -.251.062z" fill="#8a9cb7"/><path d="m50.983 28.927a.5.5 0 0 1 -.317-.887l3.194-2.625-5.308 3.065a.5.5 0 0 1 -.552-.83l4.348-3.324-6.53 3.774a.5.5 0 0 1 -.532-.846l2.046-1.395-3.394 1.958a.5.5 0 0 1 -.54-.839l6.067-4.315-7.017 4.05a.5.5 0 0 1 -.538-.842l6.763-4.758-7.5 4.329a.5.5 0 0 1 -.533-.845l6.494-4.468-7.145 4.121a.5.5 0 0 1 -.53-.847l5.687-3.846-6.245 3.6a.5.5 0 0 1 -.529-.847l5.466-3.687-6.005 3.467a.5.5 0 0 1 -.522-.852l1.65-1.072-1.935 1.116a.5.5 0 0 1 -.529-.848l5.403-3.634-5.931 3.424a.5.5 0 0 1 -.527-.85l3.791-2.508-4.2 2.424a.5.5 0 0 1 -.539-.841l8.188-5.8-9.058 5.229a.5.5 0 0 1 -.521-.853l1.28-.83-1.419.82a.5.5 0 0 1 -.529-.848l5.281-3.559-5.036 2.91a.5.5 0 0 1 -.524-.852l1.506-.983-1.147.662a.5.5 0 0 1 -.54-.84l7.075-5.049-6.812 3.932a.5.5 0 0 1 -.529-.848l2.651-1.787-2.306 1.331a.5.5 0 0 1 -.529-.848l.775-.52-.406.234a.5.5 0 0 1 -.563-.822l4.946-3.968-4.277 2.47a.5.5 0 0 1 -.584-.8l4.942-4.439c-.008-.012-.017-.025-.024-.038a.5.5 0 0 1 .183-.683l1.847-1.07a.5.5 0 0 1 .584.8l-3.306 2.973 5.805-3.352a.5.5 0 0 1 .563.823l-4.946 3.967 7.522-4.342a.5.5 0 0 1 .528.847l-.77.518 1.944-1.122a.5.5 0 0 1 .529.848l-2.651 1.787 3.374-1.947a.5.5 0 0 1 .54.84l-7.074 5.048 7.876-4.547a.5.5 0 0 1 .523.852l-1.5.98 1.782-1.028a.5.5 0 0 1 .529.848l-5.29 3.565 5.814-3.358a.5.5 0 0 1 .522.852l-1.271.823 1.538-.887a.5.5 0 0 1 .539.84l-8.187 5.8 9.057-5.228a.5.5 0 0 1 .527.849l-3.785 2.5 4.192-2.42a.5.5 0 0 1 .529.848l-5.401 3.645 5.938-3.428a.5.5 0 0 1 .522.852l-1.645 1.069 1.93-1.114a.5.5 0 0 1 .53.846l-5.462 3.685 6-3.464a.5.5 0 0 1 .53.847l-5.691 3.849 5.94-3.428a.5.5 0 0 1 .533.844l-6.493 4.468 6.211-3.586a.5.5 0 0 1 .538.842l-6.769 4.762 6.5-3.749a.5.5 0 0 1 .54.839l-6.062 4.312 5.78-3.337a.5.5 0 0 1 .533.846l-2.053 1.394 1.692-.976a.5.5 0 0 1 .554.83l-4.347 3.323 3.875-2.237a.5.5 0 0 1 .567.819l-3.97 3.262a.5.5 0 0 1 .1.909l-4.086 2.358a.493.493 0 0 1 -.252.068z" fill="#436e8e"/><path d="m32.59 16.688a.5.5 0 0 1 -.389-.815l1.621-2.007-1.271.735a.5.5 0 0 1 -.638-.748l.831-1.022-.41.236a.5.5 0 0 1 -.663-.714l.526-.772-.067.039a.5.5 0 0 1 -.671-.7l.214-.335a.5.5 0 0 1 -.2-.063.5.5 0 0 1 -.251-.431l-.009-1.6a.481.481 0 0 1 -.166-.172.5.5 0 0 1 .181-.683l.231-.134a.5.5 0 0 1 .751.43l.007 1.293.62-.358a.5.5 0 0 1 .671.7l-.1.161.191-.11a.5.5 0 0 1 .663.715l-.528.771.863-.5a.5.5 0 0 1 .637.748l-.83 1.021 1.249-.721a.5.5 0 0 1 .639.747l-1.992 2.471a.488.488 0 0 1 .222.2.5.5 0 0 1 -.183.683l-1.5.864a.49.49 0 0 1 -.249.071z" fill="#305470"/><path d="m43.033 6.44a.5.5 0 0 1 -.386-.818l1.41-1.707-2.047 1.185a.5.5 0 0 1 -.646-.74l.675-.869-1.039.596a.5.5 0 0 1 -.73-.575l.31-1.035-.754.434a.491.491 0 0 1 -.382.05.5.5 0 0 1 -.3-.237l-.563-1a.5.5 0 0 1 -.457-.889l.4-.229a.5.5 0 0 1 .681.194l.561 1 1.405-.819a.5.5 0 0 1 .559.04.5.5 0 0 1 .17.536l-.309 1.036 2.155-1.244a.5.5 0 0 1 .646.739l-.674.868 2.238-1.292a.5.5 0 0 1 .636.751l-2.162 2.619c.017.023.034.046.049.071a.5.5 0 0 1 -.183.683l-1.013.585a.489.489 0 0 1 -.25.067z" fill="#305470"/><path d="m46.768 23.407a.5.5 0 0 1 -.336-.87l3.455-3.137-4.32 2.5a.5.5 0 0 1 -.557-.827l1.78-1.391-2.184 1.26a.5.5 0 0 1 -.58-.808l3.235-2.846-4 2.311a.5.5 0 0 1 -.573-.815l2.889-2.446-3.539 2.043a.5.5 0 0 1 -.562-.823l2.2-1.759-2.675 1.544a.5.5 0 0 1 -.571-.816l2.8-2.355-3.43 1.975a.5.5 0 0 1 -.575-.812l3.015-2.587-3.706 2.14a.5.5 0 0 1 -.556-.827l1.661-1.29-2.048 1.179a.5.5 0 0 1 -.553-.83l1.218-.927-.72.415a.5.5 0 0 1 -.593-.8l5.115-4.808a.5.5 0 0 1 .242-.523l.863-.5a.5.5 0 0 1 .593.8l-3 2.826 3.828-2.21a.5.5 0 0 1 .553.831l-1.222.929 1.542-.89a.5.5 0 0 1 .557.827l-1.659 1.28 2.045-1.178a.5.5 0 0 1 .576.813l-3.018 2.589 3.708-2.141a.5.5 0 0 1 .571.816l-2.8 2.355 3.428-1.979a.5.5 0 0 1 .563.823l-2.2 1.759 2.672-1.544a.5.5 0 0 1 .574.814l-2.89 2.446 3.539-2.043a.5.5 0 0 1 .58.808l-3.234 2.846 4-2.311a.5.5 0 0 1 .557.826l-1.78 1.392 2.184-1.26a.5.5 0 0 1 .586.8l-4.743 4.3a.46.46 0 0 1 .081.105.5.5 0 0 1 -.182.683l-2.154 1.251a.491.491 0 0 1 -.25.067z" fill="#355975"/><path d="m58.729 22.128a.493.493 0 0 1 -.267-.077.5.5 0 0 1 -.232-.462l.03-.38-.09.052a.5.5 0 0 1 -.717-.612l.214-.559-.43.248a.5.5 0 0 1 -.652-.73l.078-.106-.171.1a.5.5 0 0 1 -.644-.741l.479-.615-.761.439a.5.5 0 0 1 -.614-.776l.469-.5-.721.416a.5.5 0 0 1 -.642-.743l2.534-3.2-.008-.014a.5.5 0 0 1 .183-.682l.776-.449a.5.5 0 0 1 .628.106.5.5 0 0 1 .015.638l-1.721 2.174 1.4-.808a.5.5 0 0 1 .614.775l-.469.5.034-.019a.5.5 0 0 1 .644.74l-.479.615.026-.015a.5.5 0 0 1 .653.73l-.209.284a.5.5 0 0 1 .426.677l-.256.671a.5.5 0 0 1 .481.539l-.059.759a.5.5 0 0 1 -.059.827l-.234.135a.518.518 0 0 1 -.249.063z" fill="#305470"/><path d="m51.673 29.017a.492.492 0 0 1 -.157-.026.5.5 0 0 1 -.3-.277l-.244-.571-.947.545a.5.5 0 0 1 -.75-.445l.035-1.312-2.31 1.331a.5.5 0 0 1 -.7-.658l.873-1.724-3.317 1.914a.5.5 0 0 1 -.6-.788l2.785-2.759a.5.5 0 0 1 .232-.564l.866-.5a.5.5 0 0 1 .6.788l-1.029 1.029 1.424-.821a.5.5 0 0 1 .7.658l-.873 1.724 1.622-.937a.5.5 0 0 1 .75.445l-.033 1.308.656-.377a.5.5 0 0 1 .408-.042.507.507 0 0 1 .3.277l.249.581a.5.5 0 0 1 .4.91l-.393.227a.492.492 0 0 1 -.247.064z" fill="#305470"/><path d="m20.19 59.315a.5.5 0 0 1 -.321-.882l3.976-3.341-6.445 3.722a.5.5 0 0 1 -.555-.828l5.268-4.086-7.755 4.478a.5.5 0 0 1 -.527-.849l.886-.589-1.8 1.041a.5.5 0 0 1 -.541-.838l6.8-4.867-7.631 4.406a.5.5 0 0 1 -.53-.847l4.634-3.133-5.125 2.958a.5.5 0 0 1 -.533-.845l6.44-4.415-7.082 4.089a.5.5 0 0 1 -.532-.845l6.155-4.193-6.759 3.9a.5.5 0 0 1 -.526-.851l3.256-2.143-3.629 2.098a.5.5 0 0 1 -.521-.852l.677-.437-.916.528a.5.5 0 0 1 -.528-.848l4.613-3.078-5.079 2.932a.5.5 0 0 1 -.524-.851l2.094-1.367-2.4 1.387a.5.5 0 0 1 -.524-.851l2.424-1.584-2.75 1.587a.5.5 0 0 1 -.537-.842l7.7-5.4-8.416 4.866a.5.5 0 0 1 -.534-.844l6.934-4.79-6.782 3.915a.5.5 0 0 1 -.534-.844l6.205-4.291-5.916 3.415a.5.5 0 0 1 -.527-.849l2.744-1.829-2.4 1.386a.5.5 0 0 1 -.547-.835l6.5-4.812-6.247 3.6a.5.5 0 0 1 -.537-.842l2.574-1.806-2.23 1.292a.5.5 0 0 1 -.541-.839l1.826-1.311-.948.547a.5.5 0 0 1 -.582-.806l4.815-4.281a.24.24 0 0 1 -.016-.027.5.5 0 0 1 .182-.683l1.853-1.069a.5.5 0 0 1 .582.807l-3.079 2.737 5.452-3.148a.5.5 0 0 1 .541.839l-1.826 1.311 3.245-1.873a.5.5 0 0 1 .537.842l-2.57 1.8 4.084-2.357a.5.5 0 0 1 .548.835l-6.5 4.814 8.228-4.749a.5.5 0 0 1 .527.849l-2.745 1.83 3.1-1.792a.5.5 0 0 1 .534.844l-6.2 4.289 6.849-3.953a.5.5 0 0 1 .534.844l-6.934 4.789 7.631-4.4a.5.5 0 0 1 .537.842l-7.7 5.393 8.494-4.9a.5.5 0 0 1 .524.852l-2.424 1.584 2.749-1.587a.5.5 0 0 1 .523.852l-2.106 1.364 2.413-1.393a.5.5 0 0 1 .527.849l-4.6 3.073 5.07-2.928a.5.5 0 0 1 .521.853l-.685.446.925-.533a.5.5 0 0 1 .525.85l-3.256 2.143 3.629-2.095a.5.5 0 0 1 .531.846l-6.147 4.188 6.579-3.8a.5.5 0 0 1 .533.844l-6.449 4.424 6.2-3.576a.5.5 0 0 1 .531.847l-4.626 3.127 4.305-2.486a.5.5 0 0 1 .541.839l-6.821 4.868 6.543-3.777a.5.5 0 0 1 .527.849l-.872.58.505-.291a.5.5 0 0 1 .555.828l-5.271 4.082 4.984-2.878a.5.5 0 0 1 .572.815l-3.979 3.344.115-.066a.5.5 0 1 1 .5.865l-5.039 2.911a.491.491 0 0 1 -.25.067z" fill="#436e8e"/><path d="m27.728 52.012a.493.493 0 0 1 -.307-.106.5.5 0 0 1 -.175-.53l.182-.646-.428.247a.5.5 0 0 1 -.675-.7l.258-.414-.444.257a.5.5 0 0 1 -.66-.72l.664-.947-1.066.615a.5.5 0 0 1 -.645-.738l1.207-1.56-1.82 1.05a.5.5 0 0 1 -.6-.785l2.881-2.886a.5.5 0 0 1 .237-.543l.774-.447a.5.5 0 0 1 .605.785l-1.121 1.125.751-.433a.5.5 0 0 1 .645.738l-1.207 1.56.82-.473a.5.5 0 0 1 .659.72l-.663.946.22-.127a.5.5 0 0 1 .675.7l-.3.489a.5.5 0 0 1 .538.632l-.233.779a.5.5 0 0 1 .19.928l-.715.413a.506.506 0 0 1 -.247.071z" fill="#305470"/><path d="m21.23 59.458a.5.5 0 0 1 -.426-.24l-.723-1.187-1.62.935a.507.507 0 0 1 -.556-.036.5.5 0 0 1 -.176-.529l.372-1.363-2.607 1.505a.5.5 0 0 1 -.629-.759l.753-.876-2.259 1.3a.5.5 0 0 1 -.6-.791l2.84-2.759a.5.5 0 0 1 .236-.549l.866-.5a.5.5 0 0 1 .6.791l-.958.931 1.318-.761a.5.5 0 0 1 .629.759l-.752.875 1.113-.643a.5.5 0 0 1 .733.565l-.372 1.363.988-.568a.5.5 0 0 1 .677.173l.723 1.188a.5.5 0 0 1 .473.881l-.4.229a.5.5 0 0 1 -.243.066z" fill="#305470"/><path d="m16.317 53.826a.5.5 0 0 1 -.317-.883l1.238-1.043-1.606.927a.5.5 0 0 1 -.564-.822l2.232-1.792-2.719 1.569a.5.5 0 0 1 -.551-.832l1.031-.777-1.328.765a.5.5 0 0 1 -.563-.822l2.26-1.816-2.751 1.588a.5.5 0 0 1 -.548-.835l.518-.384-.755.436a.5.5 0 0 1 -.56-.825l1.906-1.5-2.331 1.346a.5.5 0 0 1 -.568-.818l2.6-2.146-3.17 1.83a.5.5 0 0 1 -.547-.835l.347-.256-.571.326a.5.5 0 0 1 -.556-.829l1.572-1.214-1.938 1.116a.5.5 0 0 1 -.573-.815l2.888-2.444-3.538 2.046a.5.5 0 0 1 -.573-.815l3.031-2.565a.508.508 0 0 1 -.483-.2.5.5 0 0 1 .069-.665l2.713-2.451a.5.5 0 0 1 .247-.49l.865-.5a.5.5 0 0 1 .585.8l-.24.217.43-.248a.5.5 0 0 1 .573.814l-2.886 2.444 3.535-2.041a.5.5 0 0 1 .573.814l-2.894 2.451 3.539-2.043a.5.5 0 0 1 .556.829l-1.567 1.211 1.937-1.118a.5.5 0 0 1 .547.835l-.348.256.568-.327a.5.5 0 0 1 .568.818l-2.6 2.146 3.17-1.83a.5.5 0 0 1 .56.825l-1.91 1.5 2.335-1.348a.5.5 0 0 1 .548.835l-.514.38.751-.434a.5.5 0 0 1 .563.823l-2.258 1.817 2.755-1.584a.5.5 0 0 1 .55.832l-1.03.778 1.327-.766a.5.5 0 0 1 .564.822l-2.236 1.8.915-.528a.5.5 0 0 1 .572.815l-3.32 2.785.015.025a.5.5 0 0 1 -.183.682l-2.207 1.275a.491.491 0 0 1 -.25.063z" fill="#355975"/><path d="m2.222 47.375a.5.5 0 0 1 -.34-.867l.439-.406-.047.026a.5.5 0 0 1 -.593-.8l.337-.318a.512.512 0 0 1 -.529-.139.5.5 0 0 1 -.037-.627l1-1.394-.594.342a.5.5 0 0 1 -.685-.677l.569-1.015-.118.068a.5.5 0 0 1 -.71-.628l.261-.615a.5.5 0 0 1 -.488-.525l.052-.889a.5.5 0 0 1 .049-.835l.234-.135a.514.514 0 0 1 .512.008.5.5 0 0 1 .237.455l-.032.529.18-.1a.5.5 0 0 1 .71.629l-.213.5.408-.235a.5.5 0 0 1 .686.677l-.573 1.018 1.01-.583a.5.5 0 0 1 .657.724l-1 1.393 1.567-.9a.5.5 0 0 1 .594.8l-.3.287.219-.126a.5.5 0 0 1 .589.8l-2.8 2.59a.5.5 0 0 1 -.248.476l-.755.436a.491.491 0 0 1 -.248.056z" fill="#305470"/><path d="m12.628 36.905a.5.5 0 0 1 -.344-.863l.836-.791-1.16.669a.5.5 0 0 1 -.651-.731l.935-1.258-1.441.832a.5.5 0 0 1 -.635-.752l.1-.126-.22.127a.5.5 0 0 1 -.732-.567l.184-.645-.419.241a.493.493 0 0 1 -.4.043.5.5 0 0 1 -.3-.271l-.281-.627a.5.5 0 0 1 -.409-.907l.393-.227a.5.5 0 0 1 .706.228l.278.618 1-.575a.5.5 0 0 1 .731.567l-.179.647 1.58-.912a.5.5 0 0 1 .635.752l-.1.125 1.118-.645a.5.5 0 0 1 .651.731l-.935 1.259 2.739-1.581a.5.5 0 0 1 .594.8l-2.919 2.763a.5.5 0 0 1 -.241.526l-.849.489a.5.5 0 0 1 -.265.061z" fill="#305470"/><path d="m59.376 18.638a53.492 53.492 0 0 0 -.935-5.805.466.466 0 0 0 -.223-.408c-2.578-3.069-5.718-5.764-8.488-8.68-1.545-2.264-4.13-2.464-6.63-2.69-1.321-.189-2.652-.45-3.98-.569-1.748-.157-2.713 1.103-3.82 2.214-1.393 1.592-3.462 2.919-4.382 4.825-.152.128-.209.28-.1.428a49.4 49.4 0 0 0 1.2 8.8c-.073.111 0 .191.109.242a14.461 14.461 0 0 0 2.314 2.562c-.8 1.188-3.369 2.264-2.51 3.919l-8.571 8.565c-1.7-.443-2.72 1.425-3.83 2.38-2.478-3.512-7.1-2.728-10.856-3.515-1.746-.159-2.713 1.108-3.82 2.215-1.395 1.641-3.643 2.981-4.425 5a.183.183 0 0 0 -.051.228 49.65 49.65 0 0 0 1.2 8.843c-.073.108-.007.182.1.228 3.018 3.629 6.659 6.869 9.991 10.241 1.126 1.038 3.062.99 4.5 1.2 3.557.589 6.444 1.606 8.853-1.864 1.311-1.566 3.353-2.741 4.123-4.655a.21.21 0 0 0 .043-.245 47.5 47.5 0 0 0 -1.208-8.868c.064-.105-.01-.174-.119-.215a15.091 15.091 0 0 0 -2.288-2.543c.818-1.19 3.363-2.27 2.5-3.945l8.587-8.587c1.683.381 2.663-1.4 3.756-2.348a15.668 15.668 0 0 0 2.262 2.021c2.7 1.018 5.791.936 8.642 1.463 3.44-.223 5.183-4.2 7.744-6.134 1.001-1.25.536-2.841.312-4.303zm-2.129-4.46c.241 2.145.566 3.8.962 6.041l-3.5-3.5q1.269-1.271 2.538-2.541zm-6.54-7.488c1.993 2.123 4.248 4.017 6.156 6.2q-1.5 1.5-2.993 2.993l-9.838-9.841 2.968-2.964c1.312 1.079 2.467 2.435 3.707 3.612zm2.227 10.125-5.663 5.663-9.838-9.837 5.667-5.664zm-7.341-14.264a4.094 4.094 0 0 1 .5.107l-2.722 2.723-3.713-3.712c1.969.351 3.957.584 5.935.882zm-11.305 2.812a31.46 31.46 0 0 1 3.65-3.544l4.5 4.5-5.666 5.661q-2.211-2.212-4.423-4.423a8.046 8.046 0 0 1 1.939-2.194zm-1.088 10.189c-.306-2.04-.545-4.059-.9-6.1l3.5 3.5zm-5.736 20.326c-1.117-1.111-2.223-2.232-3.346-3.338l8.423-8.423q1.672 1.671 3.34 3.344zm-4.871-3.009c.008.017 0 .02-.018.018zm-7.427.131a4.151 4.151 0 0 1 .49.1l-2.707 2.707-3.679-3.672c1.957.347 3.93.574 5.896.865zm-11.314 2.82a31.355 31.355 0 0 1 3.648-3.543q2.247 2.247 4.493 4.493l-5.666 5.666-4.42-4.42a8.1 8.1 0 0 1 1.945-2.196zm8.791 1.6 9.941 9.942-5.666 5.666-9.941-9.942zm-9.872 8.572c-.308-2.052-.56-4.082-.914-6.135l3.525 3.525zm5.565 6.356c-1.706-1.838-3.686-3.421-5.245-5.376l2.94-2.941 9.941 9.942-2.972 2.975c-1.619-1.437-3.1-3.093-4.664-4.6zm5.535 5.01 2.743-2.743 3.655 3.654c-2.114-.369-4.301-.469-6.398-.911zm10.973-1.874a18.219 18.219 0 0 1 -2.737 2.732l-4.547-4.547q2.834-2.833 5.666-5.669l4.443 4.442c-.681 1.195-1.924 2.006-2.825 3.042zm2.042-10.279c.235 1.917.522 3.4.88 5.426l-3.584-3.584q1.305-1.3 2.611-2.611c.036.264.06.536.093.769zm-.38-1.766-2.966 2.966-9.94-9.941 2.946-2.947c3.364 3.221 6.793 6.541 9.96 9.922zm-.007-5.4-1.676 1.676q-2.268-2.27-4.538-4.538c.739-.755 1.512-1.49 2.244-2.243.711.948 5.312 4.222 3.971 5.105zm11.364-11.322c-.123.123-.262.242-.375.375-1.426-1.271-2.719-2.712-4.1-4.043-.751-1.138 1.227-1.933 1.764-2.784 1.539 1.511 3.026 3.076 4.551 4.61zm.915-4.8c-1.711-1.838-3.672-3.42-5.249-5.369l2.932-2.933q4.92 4.918 9.838 9.838l-2.981 2.981c-1.546-1.467-3.018-3.028-4.54-4.52zm5.671 5.062 2.688-2.688 3.56 3.559c-2.065-.357-4.197-.457-6.248-.874zm10.84-1.916a19.028 19.028 0 0 1 -2.716 2.72l-4.464-4.464 5.663-5.663 4.348 4.344c-.666 1.208-1.929 2.017-2.831 3.06z" fill="#262626"/></svg>