<svg id="icons" height="512" viewBox="0 0 60 60" width="512" xmlns="http://www.w3.org/2000/svg"><path d="m8.408 54.47a.5.5 0 0 1 -.262-.926l21.78-13.444-24.358 14.058a.5.5 0 0 1 -.511-.858l21.893-13.437-23.2 13.4a.5.5 0 0 1 -.513-.859l25.604-15.776-26.441 15.272a.5.5 0 0 1 -.513-.859l27.624-17.047-27.978 16.152a.5.5 0 0 1 -.508-.861l11.459-6.9-11.184 6.455a.5.5 0 0 1 -.509-.861l14.267-8.614-13.779 7.955a.5.5 0 0 1 -.511-.858l26.244-16.148-25.733 14.856a.5.5 0 0 1 -.509-.86l14.7-8.922-14.195 8.2a.5.5 0 0 1 -.513-.857l23.295-14.453-22.779 13.151a.5.5 0 0 1 -.513-.858l19.908-12.351-19.4 11.2a.5.5 0 0 1 -.511-.858l13.278-8.168-12.763 7.367a.5.5 0 0 1 -.515-.861l16.616-10.4-16.1 9.3a.5.5 0 0 1 -.515-.857l13.866-8.69-13.353 7.71a.5.5 0 0 1 -.521-.853l16.558-10.7-16.038 9.256a.5.5 0 0 1 -.517-.854l9.842-6.236-9.325 5.381a.5.5 0 0 1 -.516-.857l5.361-3.37-4.845 2.8a.5.5 0 0 1 -.52-.853l7.154-4.592-6.635 3.83a.5.5 0 0 1 -.531-.846l9.973-6.776-9.442 5.448a.5.5 0 0 1 -.538-.841l8.331-5.861-7.794 4.5a.5.5 0 0 1 -.544-.839l6.312-4.619-5.768 3.33a.5.5 0 0 1 -.54-.84l2.7-1.925-2.161 1.246a.5.5 0 0 1 -.544-.836l1.328-.973-.784.452a.5.5 0 0 1 -.59-.8l2.218-2.065-1.633.942a.5.5 0 0 1 -.7-.646l.833-1.758a.514.514 0 0 1 -.5-.245.5.5 0 0 1 .183-.684l1.18-.679a.5.5 0 0 1 .7.647l-.806 1.7 4.072-2.347a.5.5 0 0 1 .59.8l-2.219 2.061 4.961-2.861a.5.5 0 0 1 .544.836l-1.332.975 3.138-1.811a.5.5 0 0 1 .54.84l-2.7 1.924 4.793-2.764a.5.5 0 0 1 .545.836l-6.314 4.62 9.454-5.456a.5.5 0 0 1 .538.842l-8.326 5.857 11.6-6.7a.5.5 0 0 1 .531.845l-9.972 6.777 13.212-7.627a.5.5 0 0 1 .52.853l-7.144 4.586 9.422-5.44a.5.5 0 0 1 .517.855l-5.367 3.373 7.324-4.228a.5.5 0 0 1 .518.854l-9.851 6.243 12.295-7.1a.5.5 0 0 1 .521.852l-16.552 10.7 20.01-11.553a.5.5 0 0 1 .516.856l-13.872 8.697 16.544-9.551a.5.5 0 0 1 .516.856l-16.613 10.4 19.49-11.253a.5.5 0 0 1 .512.858l-13.275 8.163 15.634-9.025a.5.5 0 0 1 .513.857l-19.908 12.353 22.88-13.21a.5.5 0 0 1 .514.857l-23.295 14.453 26.519-15.311a.5.5 0 0 1 .51.86l-14.71 8.925 16.949-9.785a.5.5 0 0 1 .512.858l-26.239 16.143 26.998-15.59a.5.5 0 0 1 .509.86l-14.248 8.6 13.739-7.926a.5.5 0 0 1 .508.862l-11.478 6.913 10.97-6.333a.5.5 0 0 1 .512.858l-27.632 17.045 27.12-15.656a.5.5 0 0 1 .512.858l-25.6 15.768 25.088-14.483a.5.5 0 0 1 .511.859l-21.89 13.434 21.379-12.343a.5.5 0 0 1 .512.859l-21.8 13.459 21.288-12.288a.5.5 0 0 1 .51.859l-14.041 8.588 13.531-7.812a.5.5 0 0 1 .514.858l-18.879 11.761 18.365-10.6a.5.5 0 0 1 .509.859l-4.94 3.007 4.431-2.566a.5.5 0 0 1 .515.855l-16.048 10.093 15.533-8.967a.5.5 0 0 1 .514.857l-10.98 6.853 10.466-6.042a.5.5 0 0 1 .513.858l-5.894 3.652 5.381-3.106a.5.5 0 0 1 .524.85l-14.465 9.478 13.941-8.048a.5.5 0 0 1 .525.849l-11.828 7.824 11.3-6.526a.5.5 0 0 1 .517.855l-3.119 1.979 2.6-1.5a.5.5 0 0 1 .527.849l-7.042 4.686 6.52-3.763a.5.5 0 0 1 .52.853l-.639.411.119-.068a.5.5 0 0 1 .527.849l-2.624 1.746 2.1-1.21a.5.5 0 0 1 .526.849l-.386.255a.507.507 0 0 1 .529.215.5.5 0 0 1 -.123.676l-3.485 2.564 2.939-1.7a.5.5 0 0 1 .551.832l-1.754 1.325 1.053-.608a.5.5 0 0 1 .606.784l-1.926 1.951a.512.512 0 0 1 .5.245.5.5 0 0 1 -.183.683l-2.936 1.7a.5.5 0 0 1 -.606-.784l1.832-1.854-4.86 2.8a.5.5 0 0 1 -.552-.832l1.757-1.326-3.737 2.158a.5.5 0 0 1 -.546-.835l3.48-2.561-5.882 3.396a.5.5 0 0 1 -.527-.849l.08-.053-1.563.9a.5.5 0 0 1 -.528-.848l2.628-1.749-4.5 2.6a.5.5 0 0 1 -.52-.853l.634-.407-2.185 1.259a.5.5 0 0 1 -.527-.848l7.052-4.692-9.6 5.54a.5.5 0 0 1 -.518-.854l3.109-1.973-4.895 2.827a.5.5 0 0 1 -.525-.849l11.829-7.824-15.024 8.673a.5.5 0 0 1 -.524-.85l14.467-9.48-17.893 10.33a.5.5 0 0 1 -.513-.857l5.883-3.643-7.8 4.5a.5.5 0 0 1 -.515-.856l10.985-6.857-13.359 7.713a.5.5 0 0 1 -.516-.855l16.039-10.081-18.947 10.936a.5.5 0 0 1 -.51-.859l4.957-3.018-6.715 3.877a.5.5 0 0 1 -.514-.857l18.876-11.755-21.849 12.612a.5.5 0 0 1 -.511-.859l14.05-8.594-16.373 9.453a.5.5 0 0 1 -.25.07z" fill="#d6ddef"/><path d="m21.908 47.5a.5.5 0 0 1 -.374-.831l1.484-1.676-1.738 1a.5.5 0 0 1 -.74-.529l.331-1.673a.488.488 0 0 1 -.273-.224.5.5 0 0 1 .182-.682l.5-.289a.5.5 0 0 1 .74.529l-.287 1.451 3.444-1.987a.5.5 0 0 1 .624.764l-1.483 1.675 4.235-2.445a.5.5 0 0 1 .59.8l-1.025.948 3.035-1.752a.5.5 0 0 1 .573.816l-.4.336 2-1.156a.5.5 0 0 1 .645.739l-1.522 1.959 4.684-2.7a.5.5 0 0 1 .592.8l-1.069 1 2.066-1.191a.5.5 0 0 1 .583.8l-.356.319a.492.492 0 0 1 .327.1.5.5 0 0 1 .193.511l-.292 1.311a.5.5 0 0 1 .068.9l-.5.288a.5.5 0 0 1 -.738-.541l.237-1.062-2.784 1.601a.5.5 0 0 1 -.583-.8l.169-.151-1.663.959a.5.5 0 0 1 -.592-.8l1.067-1-3.119 1.8a.5.5 0 0 1 -.644-.739l1.521-1.958-4.682 2.7a.5.5 0 0 1 -.573-.816l.4-.337-2.005 1.157a.5.5 0 0 1 -.59-.8l1.022-.946-3.032 1.751a.489.489 0 0 1 -.248.071z" fill="#8a9cb7"/><path d="m7.8 47.47a.5.5 0 0 1 -.388-.817l1.448-1.769-3.466 2a.5.5 0 0 1 -.6-.786l.751-.751-.261.15a.5.5 0 0 1 -.679-.689l.371-.62a.5.5 0 0 1 -.139-.92l1.163-.668a.5.5 0 0 1 .68.689l-.231.385 1.885-1.088a.5.5 0 0 1 .6.786l-.752.751 2.538-1.464a.5.5 0 0 1 .637.749l-1.444 1.77.822-.475a.5.5 0 0 1 .554.035.5.5 0 0 1 .18.526l-.257.971a.5.5 0 0 1 .035.885l-.5.287a.507.507 0 0 1 -.554-.036.5.5 0 0 1 -.179-.525l.178-.676-2.139 1.23a.49.49 0 0 1 -.253.07z" fill="#8a9cb7"/><path d="m49.907 47.5a.5.5 0 0 1 -.377-.829l1.484-1.7-1.734 1a.5.5 0 0 1 -.74-.53l.328-1.647a.5.5 0 0 1 -.088-.906l.5-.288a.5.5 0 0 1 .741.531l-.285 1.422 3.383-1.953a.5.5 0 0 1 .627.761l-1.482 1.7 2.456-1.418a.5.5 0 0 1 .663.715l-.745 1.088.082-.046a.5.5 0 0 1 .5.865l-1.988 1.148a.5.5 0 0 1 -.663-.715l.746-1.09-3.158 1.824a.489.489 0 0 1 -.25.068z" fill="#8a9cb7"/><path d="m2.616 13.5a.5.5 0 0 1 -.281-.914l.364-.246-1.419.818a.5.5 0 0 1 -.536-.843l1.361-.947-.825.476a.5.5 0 0 1 -.58-.809l3.46-3.035-2.542 1.468a.5.5 0 0 1 -.585-.8l1.448-1.313a.508.508 0 0 1 -.238-.21.5.5 0 0 1 .183-.683l2.936-1.695a.5.5 0 0 1 .585.8l-.747.68 2.857-1.647a.5.5 0 0 1 .58.808l-3.458 3.03 6.652-3.838a.5.5 0 0 1 .536.842l-1.359.947 3.1-1.789a.5.5 0 0 1 .532.846l-.366.247 1.9-1.093a.5.5 0 0 1 .535.843l-1.631 1.127 3.422-1.97a.5.5 0 0 1 .544.837l-3.322 2.415 5.636-3.252a.5.5 0 0 1 .565.821l-4.88 3.942 8.257-4.763a.5.5 0 0 1 .538.841l-2.259 1.586 4.209-2.427a.5.5 0 0 1 .539.84l-2.477 1.754 4.5-2.6a.5.5 0 0 1 .535.842l-1.727 1.2 3.542-2.036a.5.5 0 0 1 .555.829l-4.35 3.344 7.23-4.173a.5.5 0 0 1 .53.846l-.145.1 1.637-.946a.5.5 0 0 1 .536.842l-1.829 1.275 3.671-2.117a.5.5 0 0 1 .532.845l-.735.5 2.335-1.345a.5.5 0 0 1 .54.84l-2.663 1.9 4.744-2.74a.5.5 0 0 1 .564.822l-4.852 3.905 8.2-4.727a.5.5 0 0 1 .537.841l-2.09 1.468 4-2.309a.5.5 0 0 1 .544.836l-3.416 2.5 5.45-3.146a.5.5 0 0 1 .56.824l-4.453 3.53 5.908-3.412a.5.5 0 0 1 .559.827l-3.156 2.48 3.777-2.181a.5.5 0 0 1 .6.792l-2.957 2.858 3.317-1.915a.5.5 0 0 1 .6.79l-1.193 1.164.907-.524a.5.5 0 0 1 .662.718l-.5.715a.5.5 0 0 1 .377.916l-1.785 1.028a.5.5 0 0 1 -.661-.717l.473-.681-2.426 1.4a.5.5 0 0 1 -.6-.79l1.2-1.166-3.391 1.957a.5.5 0 0 1 -.6-.792l2.957-2.853-6.324 3.65a.5.5 0 0 1 -.558-.826l3.151-2.482-5.728 3.31a.5.5 0 0 1 -.56-.824l4.453-3.531-7.548 4.357a.5.5 0 0 1 -.545-.836l3.418-2.5-5.785 3.339a.5.5 0 0 1 -.537-.842l2.086-1.465-4 2.309a.5.5 0 0 1 -.564-.822l4.848-3.908-8.2 4.732a.5.5 0 0 1 -.54-.84l2.663-1.9-4.746 2.74a.5.5 0 0 1 -.533-.846l.738-.5-2.339 1.35a.5.5 0 0 1 -.536-.843l1.832-1.28-3.673 2.12a.5.5 0 0 1 -.53-.847l.141-.1-1.634.943a.5.5 0 0 1 -.555-.829l4.351-3.346-7.234 4.176a.5.5 0 0 1 -.535-.843l1.721-1.2-3.539 2.043a.5.5 0 0 1 -.539-.841l2.48-1.749-4.5 2.6a.5.5 0 0 1 -.538-.842l2.258-1.591-4.22 2.433a.5.5 0 0 1 -.564-.822l4.88-3.942-8.256 4.766a.5.5 0 0 1 -.544-.837l3.314-2.414-5.636 3.253a.5.5 0 0 1 -.535-.844l1.627-1.129-3.42 1.974a.494.494 0 0 1 -.25.068z" fill="#6886ff"/><g fill="#436e8e"><path d="m18.39 59.47a.5.5 0 0 1 -.369-.838l1.379-1.5-2.674 1.544a.5.5 0 0 1 -.6-.787l2.758-2.737-2.6 1.5a.5.5 0 0 1 -.586-.8l2.491-2.262-1.9 1.1a.5.5 0 0 1 -.5-.866l5.94-3.429a.5.5 0 0 1 .586.8l-2.493 2.264 1.907-1.1a.5.5 0 0 1 .6.788l-2.756 2.734 2.154-1.243a.5.5 0 0 1 .618.77l-1.38 1.5.762-.439a.5.5 0 0 1 .5.865l-3.587 2.066a.49.49 0 0 1 -.25.07z"/><path d="m16.03 36.211a.5.5 0 0 1 -.347-.859l1.784-1.73-1.187.685a.5.5 0 0 1 -.663-.715l.756-1.107a.506.506 0 0 1 -.489-.247.5.5 0 0 1 .182-.682l1.655-.956a.5.5 0 0 1 .663.714l-.7 1.03 2.784-1.608a.5.5 0 0 1 .6.792l-1.784 1.731 2.329-1.345a.5.5 0 1 1 .5.865l-5.833 3.365a.5.5 0 0 1 -.25.067z"/><path d="m14.029 56.468a.5.5 0 0 1 -.295-.9l.448-.327-2.009 1.159a.5.5 0 0 1 -.542-.838l1.939-1.4-2.768 1.6a.5.5 0 0 1 -.553-.83l5.182-3.949-5.151 2.973a.5.5 0 0 1 -.539-.841l3.222-2.286-2.683 1.549a.5.5 0 0 1 -.547-.835l4.846-3.584-4.3 2.481a.5.5 0 0 1 -.552-.83l5.709-4.35-5.156 2.976a.5.5 0 0 1 -.542-.838l3.888-2.8-3.346 1.93a.5.5 0 0 1 -.543-.838l4-2.887-3.457 1.997a.5.5 0 0 1 -.554-.829l5.882-4.514-5.328 3.073a.5.5 0 0 1 -.548-.834l4.974-3.696-4.426 2.558a.5.5 0 0 1 -.565-.821l.98-.8-.415.24a.5.5 0 0 1 -.613-.777l2.053-2.17-1.44.832a.5.5 0 0 1 -.65-.733l.631-.844a.5.5 0 0 1 -.2-.929l1.657-.956a.5.5 0 0 1 .65.732l-.483.647 2.3-1.327a.5.5 0 0 1 .613.777l-2.051 2.171 2.872-1.659a.5.5 0 0 1 .566.821l-.98.8 6.515-3.762a.5.5 0 0 1 .548.834l-4.974 3.693 4.426-2.555a.5.5 0 0 1 .554.83l-5.882 4.513 5.328-3.076a.5.5 0 0 1 .543.838l-4 2.888 3.457-1.995a.5.5 0 0 1 .542.837l-3.888 2.8 3.346-1.931a.5.5 0 0 1 .552.83l-5.71 4.35 5.158-2.976a.5.5 0 0 1 .547.835l-4.846 3.585 4.3-2.482a.5.5 0 0 1 .539.841l-3.222 2.286 2.682-1.545a.5.5 0 0 1 .552.83l-5.18 3.948 4.628-2.678a.5.5 0 0 1 .542.839l-1.942 1.4 1.4-.808a.5.5 0 0 1 .545.836l-6.081 4.447a.5.5 0 0 1 -.25.431l-1.655.956a.493.493 0 0 1 -.25.067z"/><path d="m48.029 56.468a.5.5 0 0 1 -.426-.761l.917-1.5-3.3 1.9a.5.5 0 0 1 -.6-.791l2.108-2.047-2.434 1.4a.5.5 0 1 1 -.5-.865l5.92-3.418a.5.5 0 0 1 .6.791l-2.107 2.046 1.509-.871a.5.5 0 0 1 .676.694l-.918 1.505a.5.5 0 0 1 .456.887l-1.655.956a.49.49 0 0 1 -.246.074z"/><path d="m44.316 35.487a.5.5 0 0 1 -.25-.932l1.655-.955a.5.5 0 0 1 .5.865l-1.655.955a.494.494 0 0 1 -.25.067z"/><path d="m42.029 59.468a.5.5 0 0 1 -.429-.768l.891-1.435-3.23 1.864a.5.5 0 0 1 -.556-.828l5.047-3.9-5.465 3.154a.5.5 0 0 1 -.536-.842l2.3-1.6-1.771 1.029a.5.5 0 0 1 -.541-.839l3.615-2.588-3.074 1.774a.5.5 0 0 1 -.536-.843l2.3-1.6-1.764 1.016a.5.5 0 0 1 -.551-.833l5.417-4.082-4.866 2.809a.5.5 0 0 1 -.539-.841l3.222-2.286-2.683 1.549a.5.5 0 0 1 -.547-.835l4.846-3.584-4.3 2.481a.5.5 0 0 1 -.552-.83l5.709-4.35-5.156 2.976a.5.5 0 0 1 -.542-.838l3.888-2.8-3.346 1.93a.5.5 0 0 1 -.544-.837l3.844-2.8-3.3 1.9a.5.5 0 0 1 -.595-.791l2.955-2.834-2.36 1.362a.5.5 0 0 1 -.587-.8l2.507-2.278-1.92 1.108a.5.5 0 0 1 -.565-.821l.98-.8-.415.24a.5.5 0 0 1 -.613-.777l2.053-2.17-1.44.832a.5.5 0 0 1 -.65-.733l.631-.844a.5.5 0 0 1 -.2-.929l1.657-.956a.5.5 0 0 1 .65.732l-.483.647 2.3-1.327a.5.5 0 0 1 .613.777l-2.051 2.171 2.872-1.659a.5.5 0 0 1 .566.821l-.979.8.514-.3a.5.5 0 0 1 .587.8l-2.507 2.282 1.918-1.108a.5.5 0 0 1 .595.794l-2.956 2.834 7.9-4.558a.5.5 0 0 1 .544.837l-3.845 2.8 3.764-2.173a.5.5 0 0 1 .542.837l-3.888 2.8 3.346-1.931a.5.5 0 0 1 .552.83l-5.71 4.35 5.158-2.976a.5.5 0 0 1 .547.835l-4.846 3.585 4.3-2.482a.5.5 0 0 1 .539.841l-3.222 2.286 2.682-1.545a.5.5 0 0 1 .551.832l-5.417 4.082 4.866-2.814a.5.5 0 0 1 .536.843l-2.3 1.6 1.764-1.013a.5.5 0 0 1 .541.839l-3.611 2.585 3.07-1.772a.5.5 0 0 1 .536.843l-2.313 1.612 1.777-1.025a.5.5 0 0 1 .555.828l-6.129 4.732a.5.5 0 0 1 .249.732l-.9 1.443a.5.5 0 0 1 .435.9l-1.655.956a.49.49 0 0 1 -.246.065z"/></g><path d="m20.029 59.468a.5.5 0 0 1 -.4-.8l.5-.681-2.344 1.353a.5.5 0 0 1 -.583-.806l.8-.709-1.338.773a.5.5 0 0 1 -.6-.791l2.688-2.618-2.472 1.429a.5.5 0 0 1 -.59-.8l2.681-2.486-2.091 1.208a.5.5 0 0 1 -.577-.811l1.94-1.674-1.363.786a.5.5 0 0 1 -.586-.8l2.5-2.27-1.911 1.1a.5.5 0 0 1 -.591-.8l2.7-2.513-2.112 1.22a.5.5 0 0 1 -.559-.825l.5-.39a.5.5 0 0 1 -.5-.855l.766-.612-.2.117a.5.5 0 0 1 -.593-.8l2.806-2.64-2.22 1.279a.5.5 0 0 1 -.59-.8l2.664-2.465-2.074 1.2a.5.5 0 0 1 -.589-.8l2.619-2.412-2.03 1.172a.5.5 0 0 1 -.57-.816l1.482-1.237-.912.526a.5.5 0 0 1 -.578-.81l2.026-1.763-1.448.835a.5.5 0 0 1 -.593-.8l2.046-1.943-1.453.838a.5.5 0 0 1 -.681-.685l.986-1.684-.02.011a.5.5 0 0 1 -.5-.865l1.657-.956a.5.5 0 0 1 .681.685l-.986 1.684 3.475-2.006a.5.5 0 0 1 .593.795l-2.047 1.944 2.268-1.308a.5.5 0 0 1 .578.809l-2.026 1.765 1.462-.844a.5.5 0 0 1 .57.816l-1.479 1.235.909-.525a.5.5 0 0 1 .589.8l-2.619 2.413 2.03-1.172a.5.5 0 0 1 .59.8l-2.665 2.466 2.075-1.2a.5.5 0 0 1 .592.8l-2.806 2.645 2.214-1.278a.5.5 0 0 1 .562.823l-.771.616.209-.12a.5.5 0 0 1 .559.826l-.493.388a.5.5 0 0 1 .525.831l-2.7 2.514 2.114-1.22a.5.5 0 0 1 .586.8l-2.5 2.271 1.913-1.1a.5.5 0 0 1 .577.811l-1.942 1.668 1.361-.785a.5.5 0 0 1 .59.8l-2.681 2.485 2.091-1.207a.5.5 0 0 1 .6.791l-2.687 2.617 2.089-1.206a.5.5 0 0 1 .583.806l-.8.712.215-.124a.5.5 0 0 1 .651.73l-.641.865a.5.5 0 0 1 .2.93l-1.655.956a.49.49 0 0 1 -.246.068z" fill="#305470"/><path d="m42.029 59.468a.5.5 0 0 1 -.411-.784l.672-.972-2.716 1.568a.5.5 0 0 1 -.595-.794l1.621-1.549-2.167 1.251a.5.5 0 0 1 -.6-.792l2.9-2.82-2.453 1.424a.5.5 0 0 1 -.571-.816l1.52-1.271-.949.547a.5.5 0 0 1 -.592-.8l2.75-2.57-2.158 1.243a.5.5 0 0 1 -.595-.794l2.915-2.787-2.32 1.342a.5.5 0 0 1 -.579-.809l2.109-1.847-1.53.882a.5.5 0 0 1 -.582-.806l2.264-2.014-1.682.971a.5.5 0 0 1 -.556-.828l.392-.306a.486.486 0 0 1 -.486-.194.5.5 0 0 1 .057-.662l2.859-2.708-2.266 1.311a.5.5 0 0 1 -.589-.8l2.647-2.445-2.058 1.187a.5.5 0 0 1 -.593-.8l2.822-2.659-2.229 1.289a.5.5 0 0 1 -.6-.792l2.985-2.881-2.385 1.378a.5.5 0 0 1 -.583-.806l1.571-1.4-.988.571a.5.5 0 0 1 -.578-.81l.327-.285a.5.5 0 0 1 -.381-.822l.473-.56a.491.491 0 0 1 -.238-.211.5.5 0 0 1 .182-.682l1.657-.956a.5.5 0 0 1 .632.754l-.094.112 1.5-.867a.5.5 0 0 1 .578.809l-.065.057.727-.416a.5.5 0 0 1 .583.8l-1.569 1.4 1.685-.973a.5.5 0 0 1 .6.792l-2.989 2.885 2.41-1.391a.5.5 0 0 1 .592.8l-2.821 2.66 2.229-1.287a.5.5 0 0 1 .589.8l-2.647 2.446 2.058-1.188a.5.5 0 0 1 .593.8l-2.859 2.708 2.266-1.308a.5.5 0 0 1 .556.828l-.394.307a.5.5 0 0 1 .42.866l-2.262 2.006 1.68-.97a.5.5 0 0 1 .579.809l-2.109 1.843 1.53-.883a.5.5 0 0 1 .595.794l-2.915 2.787 2.324-1.342a.5.5 0 0 1 .592.8l-2.751 2.571 2.159-1.246a.5.5 0 0 1 .571.817l-1.517 1.268.946-.546a.5.5 0 0 1 .6.791l-2.9 2.822 2.3-1.331a.5.5 0 0 1 .594.794l-1.623 1.55 1.029-.594a.5.5 0 0 1 .661.717l-.736 1.064a.506.506 0 0 1 .471.249.5.5 0 0 1 -.182.682l-1.655.956a.49.49 0 0 1 -.254.066z" fill="#305470"/><path d="m11.64 9.435a.5.5 0 0 1 -.379-.827l.407-.472-.939.541a.5.5 0 0 1 -.6-.791l.631-.615-.473.272a.5.5 0 0 1 -.613-.776l1.559-1.645-.955.551a.5.5 0 0 1 -.6-.785l.818-.822-.214.123a.5.5 0 0 1 -.657-.722l.7-.979a.5.5 0 0 1 -.255-.932l1.652-.956a.5.5 0 0 1 .657.722l-.607.852 1.491-.861a.5.5 0 0 1 .6.786l-.818.821.669-.386a.5.5 0 0 1 .613.777l-1.56 1.644.949-.547a.5.5 0 0 1 .6.791l-.632.617.036-.016a.5.5 0 0 1 .629.759l-.516.6a.517.517 0 0 1 .456.25.5.5 0 0 1 -.183.683l-2.216 1.275a.49.49 0 0 1 -.25.068z" fill="#d6ddef"/><path d="m23.015 9.2a.5.5 0 0 1 -.367-.841l.678-.726-.9.521a.5.5 0 0 1 -.623-.765l1.726-1.936-1.245.719a.5.5 0 0 1 -.642-.742l1.681-2.13-1.043.6a.5.5 0 0 1 -.64-.744l.545-.683a.5.5 0 0 1 -.12-.915l1.657-.958a.5.5 0 0 1 .64.744l-.291.365 1.014-.585a.5.5 0 0 1 .628.1.5.5 0 0 1 .015.637l-1.686 2.139 1.678-.969a.5.5 0 0 1 .623.766l-1.729 1.937 1.106-.634a.5.5 0 0 1 .616.773l-.677.727.061-.035a.5.5 0 0 1 .5.865l-2.955 1.703a.489.489 0 0 1 -.25.067z" fill="#d6ddef"/><path d="m35.882 9.461a.5.5 0 0 1 -.414-.781l.864-1.272-1.774 1.024a.5.5 0 0 1 -.621-.77l1.5-1.649-1.158.669a.5.5 0 0 1 -.629-.759l1.75-2.032-1.116.643a.5.5 0 0 1 -.673-.7l.869-1.372a.5.5 0 0 1 -.593-.224.5.5 0 0 1 .182-.682l1.653-.956a.5.5 0 0 1 .61.086.5.5 0 0 1 .068.614l-.858 1.354 1.9-1.095a.5.5 0 0 1 .628.758l-1.75 2.032 1.4-.808a.5.5 0 0 1 .62.77l-1.5 1.65.882-.509a.5.5 0 0 1 .664.714l-.863 1.272a.5.5 0 0 1 .493.869l-1.884 1.087a.5.5 0 0 1 -.25.067z" fill="#d6ddef"/><path d="m48.028 9.468a.5.5 0 0 1 -.392-.809l.338-.43-1.084.625a.5.5 0 0 1 -.592-.8l.14-.131-.079.045a.5.5 0 0 1 -.585-.8l.4-.363a.5.5 0 0 1 -.515-.817l1.569-1.711-.951.549a.5.5 0 0 1 -.682-.682l1.005-1.744-.039.023a.5.5 0 0 1 -.5-.865l1.661-.958a.493.493 0 0 1 .6.079.5.5 0 0 1 .079.6l-1.001 1.745 2.154-1.242a.5.5 0 0 1 .618.771l-1.572 1.711 1.12-.647a.5.5 0 0 1 .585.8l-.442.4a.5.5 0 0 1 .449.854l-.349.329a.768.768 0 0 1 .385.173.5.5 0 0 1 .014.636l-.563.717a.5.5 0 0 1 .135.919l-1.656.955a.49.49 0 0 1 -.25.068z" fill="#d6ddef"/><path d="m59.727 11.807c.461-5.344-4.262-7.832-9-7.249 1.087-5.5-6.343-5.162-5.456.028h-6.541c1.073-5.618-6.4-5.2-5.46.089h-6.541c1.1-5.613-6.247-5.418-5.458-.121h-6.547c1.056-5.52-6.317-5.02-5.448.092-10.842-.79-8.96 8.489-9 16.03v26.629c-.42 5.323 4.376 7.663 9.062 7.045.211 2.66 4.006 2.59 5.912 1.841-.411 3.077 2.544 3.682 4.975 3.182 2.63-.281 2.632-2.992 2.578-5.051h14.47c-.221 3.231 0 5.579 3.937 5.125 1.879.144 3.815-1.056 3.518-3.148 1.986.578 5.3.5 5.863-1.851 10.905.916 9.127-8.425 9.135-16.012q.001-13.314.001-26.629zm-13-8.853c-.054-.777.624-1.669 1.219-1.489 1.884.434 1.208 2.745 1.325 4.159 0 .968.23 2.8-1.107 2.911-2.388-.535-1.159-3.817-1.436-5.581zm-12 .008c.01-.641.319-1.4 1.037-1.482-.09 0 .2.013.187.011 1.883.407 1.2 2.727 1.316 4.125 0 .976.233 2.788-1.122 2.893-2.371-.522-1.134-3.797-1.415-5.547zm-11.998-.002c.01-.638.318-1.415 1.039-1.488-.113 0 .2.014.184.012 1.883.414 1.2 2.732 1.319 4.134 0 .974.232 2.791-1.118 2.9-2.379-.527-1.144-3.804-1.424-5.558zm-12-.1c.019-1.886 1.871-1.913 2.445-.298-.026 1.457.829 5.584-.881 6.067-2.542-.468-1.299-3.946-1.569-5.773zm-8.683 6.072c.97-3.212 4.274-3.9 7.23-3.588-1.116 5.5 6.235 5.242 5.448.1h6.547c-1.032 5.572 6.409 5.181 5.458-.121h6.541c-1.116 5.573 6.314 5.457 5.46.089h6.542c-1.085 5.491 6.326 5.254 5.456.018 4.587-.632 8.167 2.556 7.545 7.276h-56.549a11.687 11.687 0 0 1 .322-3.774zm4.2 37.674c-.622-.2-.546-.983-.525-1.5.051-.559-.158-1.219.162-1.713h3.382v3.222c-.981-.015-2.148.008-3.016-.009zm6.207 8.844c-1.733-.027-1.721-1.438-1.721-2.714v-16.182c-.326-1.984 1.409-2.23 3.019-2.01 1.21.089 1.466.949 1.511 1.883-.01 5.923.021 11.85-.011 17.771-.18 1.502-1.672 1.27-2.795 1.252zm8.82 1.623c-.1 1.531-1.271 1.518-2.475 1.518-2.164 0-2.077-1.726-2.077-3.294.066-7.474-.017-14.944 0-22.421.136-1.731 1.714-1.467 2.994-1.467 1.92.155 1.558 2.518 1.558 3.85q-.003 10.907.003 21.814zm16-10.438h-14.52c-.018-1.079-.032-2.152-.029-3.227h14.549zm-12.985 7.042h-1.465c.024-2.1-.023-4.21-.061-6.312h14.511v6.312zm18.985 3.4c-.131 2.443-5 1.921-4.545-.593-.053-6.816.023-13.633 0-20.449 0-1.115-.5-4.448 1.178-4.593 1.187-.025 2.793-.253 3.269 1.119.269 8.133-.04 16.364.098 24.517zm3.106-1.613a1.662 1.662 0 0 1 -1.652-1.85c0-5.832.016-11.662 0-17.493-.017-1.962 2.227-1.785 3.562-1.474 1.818 1.088.679 3.824.977 5.593-.113 4.759.206 9.583-.083 14.312-.359 1.148-1.829.969-2.804.913zm7.9-10.615c-.057.6.171 1.338-.205 1.855h-3.34v-3.404c1.352.132 3.966-.689 3.542 1.55zm3.475 5.674c-1.194 2.852-4.289 3.265-7.025 3.039.024-2.088 0-4.179.008-6.268 3 .033 5.616.543 4.99-3.483-.473-2.019-3.474-.785-4.99-1.107-.174-5.05 1.683-11.219-6.007-8.858.433-3.131-2.167-3.549-4.639-3.288-4.853.33-2.164 8.647-2.815 12.033h-14.552c-.524-2.885 1.6-11.661-2.159-11.962-2.278-.174-5.532-.032-5.291 3.089-7.743-1.667-5.814 3.6-6.009 8.892-1.834.065-5.405-.646-4.989 2.263-.719 3.327 2.894 2.427 4.989 2.516.008 2.09-.019 4.181.011 6.271-9.742.968-7.284-9.351-7.551-15.67q0-12.349 0-24.7h56.548c-.433 12.362.876 25.01-.522 37.234z" fill="#262626"/></svg>