<svg width="25" height="24" viewBox="0 0 25 24" fill="none" xmlns="http://www.w3.org/2000/svg">
<path d="M24.0179 11.9148C23.9789 18.4259 18.7418 23.8081 12.0113 23.8123C5.28209 23.8165 -0.00419392 18.4337 2.49669e-06 11.898C0.00419891 5.38041 5.2755 0.00419887 11.9988 2.4517e-06C18.7268 -0.00419397 23.9873 5.37921 24.0179 11.9148ZM6.72866 7.39469C6.6789 7.32935 6.64713 7.28319 6.61176 7.24062C6.30782 6.87793 5.91755 6.89292 5.68915 7.30417C5.58244 7.4972 5.5033 7.7346 5.50211 7.95221C5.48952 10.6199 5.49311 13.2871 5.49791 15.9548C5.49791 16.1005 5.53328 16.2533 5.58364 16.3912C5.67536 16.6436 5.82163 16.8654 6.11478 16.905C6.39414 16.9427 6.54761 16.7467 6.68909 16.5447C6.69689 16.5333 6.72086 16.5327 6.73945 16.5261C6.75683 16.6832 6.75743 16.8432 6.794 16.9943C6.88452 17.3714 7.12432 17.5578 7.46963 17.544C7.78556 17.5314 8.01096 17.3162 8.07631 16.9505C8.10268 16.8043 8.12067 16.6538 8.12067 16.5051C8.12307 13.4681 8.12307 10.4305 8.12067 7.39349C8.12067 7.23523 8.10269 7.07456 8.07271 6.9187C8.00976 6.58958 7.79155 6.39594 7.48581 6.37796C7.1441 6.35818 6.9151 6.50625 6.81319 6.84616C6.76343 7.01342 6.75863 7.19146 6.72866 7.39469ZM17.2683 7.41687C17.2533 7.22204 17.2569 7.08116 17.2299 6.94627C17.1562 6.58059 16.908 6.37316 16.5681 6.37616C16.2222 6.37916 15.9991 6.58118 15.9314 6.96606C15.9056 7.11233 15.8894 7.2628 15.8894 7.41148C15.887 10.4389 15.887 13.4657 15.89 16.4931C15.89 16.6616 15.9086 16.8324 15.941 16.9979C16.0033 17.3174 16.2401 17.5296 16.5273 17.5452C16.8576 17.5638 17.0944 17.4061 17.1951 17.0662C17.2467 16.8924 17.2533 16.7047 17.2838 16.4997C17.4601 16.7323 17.619 16.9751 17.9403 16.896C18.276 16.8133 18.3971 16.5315 18.478 16.2353C18.5116 16.1125 18.5164 15.9788 18.5164 15.8505C18.5188 13.2529 18.5188 10.6553 18.5152 8.05772C18.5152 7.90006 18.4978 7.737 18.4534 7.58713C18.3719 7.31196 18.24 7.05718 17.9241 6.99603C17.6166 6.93608 17.4565 7.15789 17.2683 7.41687ZM15.3775 12.8704C15.3775 12.1636 15.3775 11.4736 15.3775 10.7872C13.1126 10.7872 10.8717 10.7872 8.62664 10.7872C8.62664 11.491 8.62664 12.1744 8.62664 12.8704C10.8861 12.8704 13.127 12.8704 15.3775 12.8704ZM5.01532 10.7854C4.52794 10.8238 4.27255 11.244 4.29534 11.919C4.31452 12.4855 4.58489 12.8542 5.01532 12.8566C5.01532 12.2631 5.01532 11.669 5.01532 11.0749C5.01532 10.9796 5.01532 10.8837 5.01532 10.7854ZM19.0068 12.8524C19.4354 12.8674 19.7148 12.4622 19.7172 11.8387C19.7196 11.2002 19.4402 10.7872 19.0068 10.7998C19.0068 11.4844 19.0068 12.169 19.0068 12.8524Z" fill="#B6B6B6"/>
<path d="M6.72857 7.3947C6.75854 7.19147 6.76334 7.01283 6.81309 6.84797C6.91501 6.50806 7.14461 6.35939 7.48572 6.37977C7.79146 6.39775 8.00967 6.59139 8.07262 6.92051C8.10259 7.07637 8.12058 7.23704 8.12058 7.3953C8.12358 10.4323 8.12298 13.4699 8.12058 16.5069C8.12058 16.6556 8.10259 16.8055 8.07622 16.9523C8.01087 17.318 7.78546 17.5332 7.46953 17.5458C7.12363 17.5596 6.88443 17.3726 6.79391 16.9961C6.75734 16.8444 6.75674 16.6844 6.73936 16.5279C6.72077 16.5345 6.69679 16.5351 6.689 16.5465C6.54812 16.7479 6.39465 16.9439 6.11469 16.9068C5.82154 16.8672 5.67527 16.6454 5.58354 16.393C5.53319 16.2551 5.49842 16.1029 5.49782 15.9566C5.49242 13.2889 5.48942 10.6217 5.50201 7.95402C5.50321 7.73641 5.58235 7.49901 5.68905 7.30598C5.91686 6.89413 6.30713 6.87974 6.61167 7.24243C6.64764 7.2838 6.67941 7.32936 6.72857 7.3947Z" fill="#4A4A4A"/>
<path d="M17.2679 7.41683C17.4561 7.15845 17.6162 6.93604 17.9231 6.99539C18.239 7.05654 18.3715 7.31132 18.4525 7.58649C18.4968 7.73696 18.5142 7.90002 18.5142 8.05709C18.5178 10.6547 18.5172 13.2522 18.5154 15.8498C18.5154 15.9787 18.5106 16.1118 18.477 16.2347C18.3961 16.5309 18.275 16.8126 17.9393 16.8953C17.618 16.9745 17.4585 16.7317 17.2829 16.4991C17.2523 16.7041 17.2457 16.8917 17.1941 17.0656C17.0934 17.4055 16.8566 17.5632 16.5263 17.5446C16.2391 17.5284 16.0024 17.3168 15.94 16.9973C15.9076 16.8318 15.8896 16.6609 15.889 16.4925C15.8861 13.4651 15.8861 10.4383 15.8884 7.41084C15.8884 7.26216 15.9052 7.11169 15.9304 6.96542C15.9982 6.58055 16.2212 6.37852 16.5671 6.37552C16.907 6.37252 17.1552 6.57995 17.2289 6.94563C17.2565 7.08112 17.2529 7.222 17.2679 7.41683Z" fill="#4A4A4A"/>
<path d="M15.3778 12.8703C13.1273 12.8703 10.8864 12.8703 8.62695 12.8703C8.62695 12.1743 8.62695 11.4909 8.62695 10.7871C10.8714 10.7871 13.1123 10.7871 15.3778 10.7871C15.3778 11.4735 15.3778 12.1635 15.3778 12.8703Z" fill="#4A4A4A"/>
<path d="M5.0154 10.7856C5.0154 10.884 5.0154 10.9799 5.0154 11.0758C5.0154 11.6699 5.0154 12.264 5.0154 12.8575C4.58497 12.8551 4.314 12.4864 4.29542 11.9199C4.27204 11.2443 4.52742 10.8246 5.0154 10.7856Z" fill="#4A4A4A"/>
<path d="M19.0068 12.8522C19.0068 12.1682 19.0068 11.4842 19.0068 10.7996C19.4403 10.787 19.7202 11.2001 19.7172 11.8385C19.7148 12.4626 19.4355 12.8672 19.0068 12.8522Z" fill="#4A4A4A"/>
</svg>
