<svg width="26" height="25" viewBox="0 0 26 25" fill="none" xmlns="http://www.w3.org/2000/svg">
<path d="M11.8075 3.57422H3.93845C3.34198 3.57422 2.76994 3.81117 2.34817 4.23294C1.9264 4.6547 1.68945 5.22675 1.68945 5.82322V21.5632C1.68945 22.1597 1.9264 22.7317 2.34817 23.1535C2.76994 23.5753 3.34198 23.8122 3.93845 23.8122H19.6785C20.2749 23.8122 20.847 23.5753 21.2687 23.1535C21.6905 22.7317 21.9275 22.1597 21.9275 21.5632V13.6932" stroke="#1E1E1E" stroke-width="1.5" stroke-linecap="round" stroke-linejoin="round"/>
<path d="M20.2355 1.88802C20.6828 1.44074 21.2895 1.18945 21.922 1.18945C22.5546 1.18945 23.1613 1.44074 23.6085 1.88802C24.0558 2.33531 24.3071 2.94196 24.3071 3.57452C24.3071 4.20708 24.0558 4.81374 23.6085 5.26102L12.9355 15.941L8.43555 17.065L9.55955 12.565L20.2355 1.88802Z" stroke="#1E1E1E" stroke-width="1.5" stroke-linecap="round" stroke-linejoin="round"/>
</svg>
