<svg width="17" height="27" viewBox="0 0 17 27" fill="none" xmlns="http://www.w3.org/2000/svg">
<path d="M16.6532 1.07566C16.6532 0.883356 16.5768 0.698926 16.4408 0.562945C16.3049 0.426964 16.1204 0.35057 15.9281 0.35057H12.3027C10.477 0.25963 8.68966 0.894957 7.33101 2.11774C5.97237 3.34052 5.15293 5.05134 5.05173 6.8764V10.7919H1.42626C1.23396 10.7919 1.04953 10.8683 0.913547 11.0043C0.777565 11.1403 0.701172 11.3247 0.701172 11.517V15.2875C0.701172 15.4798 0.777565 15.6642 0.913547 15.8002C1.04953 15.9362 1.23396 16.0126 1.42626 16.0126H5.05173V25.7288C5.05173 25.9211 5.12812 26.1056 5.2641 26.2415C5.40008 26.3775 5.58451 26.4539 5.77682 26.4539H10.1274C10.3197 26.4539 10.5041 26.3775 10.6401 26.2415C10.7761 26.1056 10.8525 25.9211 10.8525 25.7288V16.0126H14.652C14.8132 16.0149 14.9706 15.9634 15.0993 15.8662C15.228 15.769 15.3206 15.6317 15.3625 15.476L16.4067 11.7055C16.4355 11.5984 16.4394 11.4861 16.418 11.3772C16.3966 11.2683 16.3505 11.1658 16.2833 11.0775C16.216 10.9893 16.1294 10.9176 16.0302 10.8681C15.9309 10.8186 15.8215 10.7925 15.7106 10.7919H10.8525V6.8764C10.8885 6.51745 11.0571 6.18483 11.3253 5.94349C11.5934 5.70215 11.9419 5.56943 12.3027 5.57124H15.9281C16.1204 5.57124 16.3049 5.49484 16.4408 5.35886C16.5768 5.22288 16.6532 5.03845 16.6532 4.84614V1.07566Z" fill="#507CC0"/>
</svg>
