<svg width="31" height="48" viewBox="0 0 31 48" fill="none" xmlns="http://www.w3.org/2000/svg">
<path d="M30.9375 15.4688C30.9375 6.92559 24.0119 0 15.4688 0C6.92559 0 0 6.92559 0 15.4688C0 22.8858 5.22066 29.0826 12.1875 30.5876V34.875H7.03125C6.25462 34.875 5.625 35.5046 5.625 36.2812V40.0312C5.625 40.8079 6.25462 41.4375 7.03125 41.4375H12.1875V46.5938C12.1875 47.3704 12.8171 48 13.5938 48H17.3438C18.1204 48 18.75 47.3704 18.75 46.5938V41.4375H23.9062C24.6829 41.4375 25.3125 40.8079 25.3125 40.0312V36.2812C25.3125 35.5046 24.6829 34.875 23.9062 34.875H18.75V30.5876C25.7168 29.0826 30.9375 22.8858 30.9375 15.4688ZM6.5625 15.4688C6.5625 10.55 10.55 6.5625 15.4688 6.5625C20.3875 6.5625 24.375 10.55 24.375 15.4688C24.375 20.3875 20.3875 24.375 15.4688 24.375C10.55 24.375 6.5625 20.3875 6.5625 15.4688Z" fill="#B6B6B6"/>
</svg>
