<svg width="22" height="22" viewBox="0 0 22 22" fill="none" xmlns="http://www.w3.org/2000/svg">
<path d="M21.4991 8.56664C21.5919 8.56664 21.6672 8.64191 21.6672 8.73477V10.5C21.6672 11.1607 21.6058 11.8067 21.4881 12.4334C20.5776 17.301 16.2893 20.9796 11.1491 20.9442C5.38145 20.9044 0.765577 16.2442 0.778347 10.4765C0.791035 4.71908 5.46239 0.0555573 11.2227 0.0555573C14.0449 0.0555573 16.6055 1.17515 18.4855 2.99379C18.5534 3.05944 18.5551 3.16763 18.4883 3.23438L15.991 5.7317C15.9267 5.796 15.8228 5.79768 15.7569 5.73497C14.577 4.61182 12.9806 3.92229 11.2227 3.92229C7.59286 3.92229 4.66984 6.82454 4.6452 10.4543C4.62043 14.108 7.57491 17.0777 11.2227 17.0777C14.1825 17.0777 16.6858 15.1224 17.5113 12.4334H11.3909C11.298 12.4334 11.2227 12.3581 11.2227 12.2652V8.73473C11.2227 8.64187 11.298 8.5666 11.3909 8.5666H21.4991V8.56664Z" fill="#2196F3"/>
<path d="M21.4982 8.88147H20.2374C20.3302 8.88147 20.4055 8.95674 20.4055 9.0496V10.8148C20.4055 11.4755 20.3441 12.1215 20.2264 12.7482C19.3578 17.392 15.4148 20.9535 10.5908 21.2404C10.7754 21.2513 10.9612 21.2577 11.1483 21.259C16.2885 21.2944 20.5768 17.6158 21.4873 12.7482C21.605 12.1215 21.6664 11.4755 21.6664 10.8148V9.04956C21.6664 8.95674 21.5911 8.88147 21.4982 8.88147Z" fill="#1E88E5"/>
<path d="M5.24916 8.05812L2.07715 5.76622C3.8567 2.54757 7.28591 0.368317 11.2237 0.368317C14.0459 0.368317 16.6065 1.48791 18.4864 3.30655C18.5543 3.3722 18.5561 3.48039 18.4893 3.54714L15.992 6.04446C15.9278 6.10864 15.8239 6.11064 15.7582 6.04805C14.5783 4.92471 12.9817 4.23509 11.2237 4.23509C8.57457 4.23509 6.29107 5.8011 5.24916 8.05812Z" fill="#F44336"/>
<path d="M4.33105 7.39871L5.24678 8.06034C6.1978 6.00026 8.18338 4.51657 10.5371 4.27321C10.5548 4.27129 10.5718 4.26896 10.5898 4.26725C10.3827 4.24759 10.1728 4.2373 9.96045 4.2373C7.56732 4.2373 5.4817 5.49892 4.33105 7.39871Z" fill="#E53935"/>
<path d="M17.2242 3.30655C17.2921 3.3722 17.2938 3.48039 17.227 3.54718L15.2 5.57418C15.3942 5.72187 15.5801 5.87984 15.7565 6.04777C15.8224 6.11048 15.9263 6.1088 15.9906 6.0445L18.4879 3.54718C18.5547 3.48039 18.5529 3.37224 18.4851 3.30655C16.6051 1.48791 14.0445 0.368317 11.2223 0.368317C11.0106 0.368317 10.8004 0.375375 10.5918 0.387818C13.1637 0.541017 15.4852 1.62434 17.2242 3.30655Z" fill="#E53935"/>
<path d="M18.8833 17.9133C16.9759 19.9715 14.249 21.2598 11.2216 21.2598C7.13255 21.2598 3.59237 18.9099 1.87793 15.4865L5.11632 13.2673C6.0881 15.6853 8.45565 17.393 11.2216 17.393C12.9574 17.393 14.5361 16.7205 15.7113 15.6218L18.8833 17.9133Z" fill="#4CAF50"/>
<path d="M5.11802 13.2673L4.16309 13.9217C5.2722 15.9879 7.45325 17.393 9.9624 17.393C10.1746 17.393 10.3843 17.3826 10.5914 17.3629C8.10068 17.1255 6.01485 15.499 5.11802 13.2673Z" fill="#43A047"/>
<path d="M11.2226 21.2618C14.25 21.2618 16.9769 19.9735 18.8843 17.9153L18.1073 17.3541C16.3164 19.5829 13.6299 21.0615 10.5938 21.2427C10.8018 21.2551 11.0114 21.2618 11.2226 21.2618Z" fill="#43A047"/>
<path d="M4.64509 10.8138C4.64509 11.6804 4.81277 12.508 5.1175 13.2658L1.87907 15.485C1.17468 14.0795 0.77832 12.4929 0.77832 10.8138C0.77832 8.98341 1.24905 7.2631 2.07621 5.76726L5.24822 8.05916C4.86112 8.8968 4.64509 9.83031 4.64509 10.8138Z" fill="#FFC107"/>
<path d="M4.16315 13.9219L5.11809 13.2675C4.81336 12.5097 4.64568 11.6821 4.64568 10.8155C4.64568 9.83199 4.86171 8.89847 5.24881 8.06083L4.33308 7.3992C3.73844 8.38102 3.39333 9.53314 3.38492 10.7699C3.37717 11.9104 3.65978 12.9842 4.16315 13.9219Z" fill="#FFB300"/>
</svg>
