<svg width="180" height="180" viewBox="0 0 180 180" fill="none" xmlns="http://www.w3.org/2000/svg">
<circle cx="90" cy="90" r="90" fill="#303030" fill-opacity="0.26"/>
<g filter="url(#filter0_d_6_3003)">
<path d="M90.1541 111.308C92.485 111.308 94.7204 110.382 96.3686 108.734C98.0167 107.086 98.9427 104.851 98.9427 102.52C98.9427 97.6421 94.9878 93.7312 90.1541 93.7312C87.8233 93.7312 85.5879 94.6571 83.9397 96.3053C82.2915 97.9535 81.3656 100.189 81.3656 102.52C81.3656 104.851 82.2915 107.086 83.9397 108.734C85.5879 110.382 87.8233 111.308 90.1541 111.308ZM116.52 71.7599C118.851 71.7599 121.086 72.6858 122.734 74.334C124.382 75.9821 125.308 78.2175 125.308 80.5484V124.491C125.308 126.822 124.382 129.057 122.734 130.705C121.086 132.354 118.851 133.28 116.52 133.28H63.7885C61.4577 133.28 59.2223 132.354 57.5741 130.705C55.9259 129.057 55 126.822 55 124.491V80.5484C55 75.6708 58.9548 71.7599 63.7885 71.7599H68.1828V62.9713C68.1828 57.1442 70.4976 51.5557 74.6181 47.4353C78.7385 43.3148 84.327 41 90.1541 41C93.0394 41 95.8965 41.5683 98.5622 42.6725C101.228 43.7766 103.65 45.395 105.69 47.4353C107.73 49.4755 109.349 51.8976 110.453 54.5633C111.557 57.229 112.125 60.086 112.125 62.9713V71.7599H116.52ZM90.1541 49.7885C86.6578 49.7885 83.3047 51.1774 80.8325 53.6497C78.3602 56.1219 76.9713 59.475 76.9713 62.9713V71.7599H103.337V62.9713C103.337 59.475 101.948 56.1219 99.4758 53.6497C97.0035 51.1774 93.6504 49.7885 90.1541 49.7885Z" fill="#BDFE30"/>
</g>
<defs>
<filter id="filter0_d_6_3003" x="55" y="41" width="77.4118" height="96.6511" filterUnits="userSpaceOnUse" color-interpolation-filters="sRGB">
<feFlood flood-opacity="0" result="BackgroundImageFix"/>
<feColorMatrix in="SourceAlpha" type="matrix" values="0 0 0 0 0 0 0 0 0 0 0 0 0 0 0 0 0 0 127 0" result="hardAlpha"/>
<feOffset dx="4.91793" dy="2.18575"/>
<feGaussianBlur stdDeviation="1.09287"/>
<feComposite in2="hardAlpha" operator="out"/>
<feColorMatrix type="matrix" values="0 0 0 0 0 0 0 0 0 0 0 0 0 0 0 0 0 0 0.25 0"/>
<feBlend mode="normal" in2="BackgroundImageFix" result="effect1_dropShadow_6_3003"/>
<feBlend mode="normal" in="SourceGraphic" in2="effect1_dropShadow_6_3003" result="shape"/>
</filter>
</defs>
</svg>
