<svg width="28" height="35" viewBox="0 0 28 35" fill="none" xmlns="http://www.w3.org/2000/svg">
<g clip-path="url(#clip0_116_4762)">
<path d="M21.7816 6.49194H18.9876C18.638 6.49194 18.3555 6.18409 18.3555 5.80481C18.3555 5.42553 18.638 5.11768 18.9876 5.11768H21.7816C22.1306 5.11768 22.4138 5.42489 22.4138 5.80481C22.4138 6.18472 22.1306 6.49194 21.7816 6.49194Z" fill="#F27E00"/>
<path d="M20.6093 16.5742C20.515 16.5741 20.4222 16.5511 20.3387 16.5072C19.3273 15.9844 18.6358 14.5962 19.2799 12.9546C20.0682 10.9469 21.8167 10.0088 23.3591 9.18074C24.4881 8.57515 25.5545 8.00244 26.2037 7.09912C26.576 6.58077 27.3017 5.2261 26.0065 3.84552C25.5924 3.40303 24.411 3.17672 23.428 3.80886C22.6207 4.32784 22.4931 5.25644 22.6283 5.8949C22.7225 6.33739 22.9994 6.86523 23.4729 6.90632C23.8205 6.93666 24.0803 7.2679 24.0525 7.64591C24.0247 8.02393 23.72 8.30649 23.3717 8.27805C22.4235 8.19524 21.6466 7.38231 21.3969 6.20591C21.0916 4.77097 21.6359 3.36699 22.7845 2.62866C24.2807 1.66655 26.0817 2.00285 26.8933 2.86697C28.5476 4.63 28.0944 6.70593 27.2025 7.94744C26.3756 9.09856 25.1278 9.76799 23.9217 10.4128C22.445 11.2055 21.0499 11.9539 20.4449 13.4938C20.096 14.3819 20.4133 15.0242 20.883 15.2638C21.1991 15.4262 21.3325 15.8359 21.1826 16.1791C21.1362 16.2939 21.0572 16.3925 20.9553 16.4627C20.8533 16.5329 20.733 16.5717 20.6093 16.5742Z" fill="#FBA300"/>
<path d="M8.95518 6.49194H6.16241C5.81347 6.49194 5.53027 6.18409 5.53027 5.80481C5.53027 5.42553 5.81347 5.11768 6.16241 5.11768H8.95644C9.30602 5.11768 9.58858 5.42489 9.58858 5.80481C9.58858 6.18472 9.30475 6.49194 8.95518 6.49194Z" fill="#F27E00"/>
<path d="M13.0241 15.9438L13.0039 27.52L14.8927 27.5233L14.9129 15.947L13.0241 15.9438Z" fill="#FF9800"/>
<path d="M13.6975 27.5213L13.2588 27.5182L13.2784 15.9419L13.7177 15.9451L13.6975 27.5213Z" fill="#FFCC45"/>
<path d="M13.0225 19.596C13.0225 19.596 13.25 19.3545 13.9846 19.3545C14.7191 19.3545 14.9062 19.596 14.9062 19.596V18.8481L13.0225 18.8646V19.596Z" fill="#C86021"/>
<path d="M15.9054 17.2646C15.9054 17.7806 15.7004 18.2755 15.3356 18.6404C14.9707 19.0053 14.4758 19.2103 13.9597 19.2103C13.4438 19.2101 12.9491 19.005 12.5843 18.6402C12.2196 18.2753 12.0146 17.7805 12.0146 17.2646C12.0146 16.7486 12.2196 16.2538 12.5843 15.889C12.9491 15.5241 13.4438 15.319 13.9597 15.3188C14.4758 15.3188 14.9707 15.5238 15.3356 15.8887C15.7004 16.2536 15.9054 16.7485 15.9054 17.2646Z" fill="#F99109"/>
<path d="M13.9597 15.3188C13.4438 15.319 12.9491 15.5241 12.5843 15.889C12.2196 16.2538 12.0146 16.7486 12.0146 17.2646C12.0146 17.324 12.0146 17.3828 12.0229 17.4409C12.619 17.3417 13.332 17.2513 13.9502 17.2513C14.5685 17.2513 15.2942 17.3423 15.8972 17.4409C15.9023 17.3821 15.9054 17.3227 15.9054 17.2627C15.9049 16.747 15.6997 16.2525 15.3349 15.8881C14.97 15.5236 14.4754 15.3188 13.9597 15.3188Z" fill="#C86021"/>
<path d="M18.8741 29.1344C18.6035 28.2456 18.2597 26.9061 18.0333 26.4693C16.8481 24.1829 15.2627 23.3946 14.0762 23.3965H13.8315C12.645 23.3965 11.0577 24.1917 9.87691 26.4845C9.65314 26.9187 9.94582 28.2544 9.67969 29.1337L18.8741 29.1344Z" fill="#FDA300"/>
<path d="M12.1222 29.1343C12.3005 28.2531 12.0887 26.9219 12.2417 26.4851C12.8106 24.8699 13.5275 24.0001 14.1931 23.6253C14.0408 23.5406 14.0629 23.4805 13.9188 23.4438C13.1444 23.643 11.5305 24.5039 10.8327 26.4851C10.6797 26.9193 10.8365 28.255 10.6582 29.1343H12.1222Z" fill="#FFCC45"/>
<path d="M20.1667 3.70411L14.0255 3.69336L7.88492 3.68262C7.88492 3.68262 7.71741 9.86742 8.33627 12.1406C9.26551 15.5541 11.3996 17.0327 13.7581 17.0371H14.2442C16.6021 17.0415 18.7412 15.5686 19.6806 12.1595C20.3095 9.88955 20.1667 3.70411 20.1667 3.70411Z" fill="#FDA300"/>
<path d="M14.0261 3.69336H13.8877V17.0371H14.2448C16.6027 17.0415 18.7419 15.5686 19.6812 12.1595C20.3083 9.88891 20.1654 3.70347 20.1654 3.70347L14.0261 3.69336Z" fill="#F59209"/>
<path d="M13.7277 16.353C12.0905 16.3499 11.3623 14.071 11.0727 12.7928C10.8199 11.655 10.727 8.96274 10.7188 6.66113L17.195 6.67314C17.1785 8.97727 17.0787 11.6714 16.8189 12.8049C16.5293 14.0773 15.7935 16.353 14.1582 16.353H13.7277Z" fill="#FDA300"/>
<path d="M19.4326 5.07888L14.1511 5.0694L8.86966 5.06055C8.86966 5.06055 8.86966 5.12882 8.86523 5.25019L13.2029 5.25777L17.9781 5.26726C17.9781 5.26726 18.1045 10.5867 17.5621 12.54C16.9401 14.7923 16.2163 16.0603 14.7599 16.5268C16.6184 16.3631 18.2632 15.0774 19.0161 12.3503C19.5553 10.3983 19.4326 5.07888 19.4326 5.07888Z" fill="#E06511"/>
<path d="M10.693 12.2644C10.1468 10.3269 10.2922 5.07134 10.2935 5.02393H8.9843C8.9843 5.02393 8.83512 10.3193 9.38444 12.2657C10.2062 15.1874 12.0995 16.4548 14.1887 16.458H14.6192C14.6659 16.458 14.7127 16.458 14.7595 16.458C12.7038 16.4163 11.5059 15.1469 10.693 12.2644Z" fill="#FFCC45"/>
<path d="M14.0255 3.69336L7.88499 3.68262C7.88499 3.68262 7.79901 5.44754 7.89889 7.80414C8.80411 7.64737 10.7043 7.47479 13.8871 7.47479C17.2684 7.47479 19.2602 7.67392 20.1351 7.82942C20.2445 5.47093 20.1667 3.70411 20.1667 3.70411L14.0255 3.69336Z" fill="#BA531B"/>
<path d="M20.6513 0.710938H7.25V7.12015H20.6513V0.710938Z" fill="#F59209"/>
<path d="M9.58686 0.710938H8.07227V7.12015H9.58686V0.710938Z" fill="#FBD047"/>
<path d="M10.9772 0.710938H10.0947V7.12015H10.9772V0.710938Z" fill="#FBD047"/>
<path d="M20.0165 0.710938H18.502V7.12015H20.0165V0.710938Z" fill="#E06511"/>
<path d="M7.25 2.75589C7.25 2.75589 7.56607 2.37661 13.6567 2.37661C19.7473 2.37661 20.6513 2.76032 20.6513 2.76032V0.944824H7.25V2.75589Z" fill="#BA531B"/>
<path d="M21.4437 0.228516H6.45898V2.07877H21.4437V0.228516Z" fill="#FEA402"/>
<path d="M20.435 26.6353H7.4668V30.033H20.435V26.6353Z" fill="#F59209"/>
<path d="M11.8409 26.6353H8.2832V30.033H11.8409V26.6353Z" fill="#FBD047"/>
<path d="M19.7161 26.6353H14.7393V30.033H19.7161V26.6353Z" fill="#E87A02"/>
<path d="M16.0926 22.5264H11.8086V24.0909H16.0926V22.5264Z" fill="#EE8716"/>
<path d="M9.23334 0.228516H7.71875V2.09078H9.23334V0.228516Z" fill="#FBD047"/>
<path d="M20.4852 0.228516H19.4131V2.09078H20.4852V0.228516Z" fill="#E87A02"/>
<path d="M8.72327 12.9547C7.935 10.947 6.18651 10.0089 4.6441 9.18082C3.51511 8.57524 2.4487 8.00252 1.7995 7.0992C1.42717 6.58085 0.701484 5.22619 1.99673 3.84561C2.41078 3.40311 3.5916 3.17681 4.5752 3.80894C5.38244 4.32793 5.51013 5.25653 5.37486 5.89499C5.3253 6.13848 5.22445 6.36863 5.07901 6.57011C4.9218 6.45978 4.73439 6.40062 4.54233 6.4007C4.2937 6.4007 4.05526 6.49946 3.87945 6.67527C3.70364 6.85108 3.60488 7.08952 3.60488 7.33815C3.60486 7.58461 3.70189 7.82115 3.87497 7.9966C4.04805 8.17205 4.28326 8.27228 4.52969 8.27561C4.56355 8.27846 4.5976 8.27846 4.63146 8.27561C5.57967 8.1928 6.35656 7.37987 6.60625 6.20347C6.91157 4.76852 6.36731 3.36455 5.21872 2.62622C3.72245 1.66411 1.9215 2.00041 1.10984 2.86453C-0.543824 4.62756 -0.0912156 6.70349 0.801359 7.945C1.62819 9.09612 2.87603 9.76555 4.08214 10.4103C5.55881 11.203 6.95393 11.9515 7.55888 13.4914C7.90782 14.3795 7.59049 15.0217 7.12081 15.2613C6.80474 15.4238 6.67136 15.8334 6.82118 16.1767C6.86766 16.2903 6.9462 16.3879 7.04723 16.4576C7.14826 16.5273 7.2674 16.5661 7.3901 16.5692C7.48437 16.5691 7.57722 16.5461 7.66065 16.5022C8.67839 15.9845 9.36742 14.5963 8.72327 12.9547Z" fill="#FEA200"/>
<path d="M21.4437 0.228516H6.45898V0.435224H21.4437V0.228516Z" fill="#FBD047"/>
<path d="M1.11869 8.1984C0.227382 6.95689 -0.304245 4.83481 1.35005 3.07116C2.16045 2.20766 4.03852 1.91751 5.53478 2.88151C5.56892 2.90301 5.60179 2.92576 5.63403 2.94852C5.50505 2.83016 5.36609 2.72314 5.21872 2.62866C3.72245 1.66655 1.9215 2.00285 1.10984 2.86697C-0.543824 4.63 -0.0912156 6.70593 0.801359 7.94744C1.14232 8.41092 1.55103 8.82048 2.01379 9.1624C1.67765 8.87834 1.3771 8.55465 1.11869 8.1984Z" fill="#FBD047"/>
<path d="M7.13857 16.4343C6.98876 16.0911 7.12277 15.6814 7.43821 15.519C7.90788 15.2769 8.22521 14.634 7.87627 13.749C7.55389 12.9272 7.00583 12.3311 6.34082 11.833C6.86296 12.2793 7.28902 12.809 7.56021 13.4962C7.90915 14.3843 7.59181 15.0266 7.12214 15.2661C6.80607 15.4286 6.67269 15.8382 6.82251 16.1815C6.85704 16.2632 6.90794 16.337 6.97209 16.3983C7.03623 16.4596 7.11225 16.5072 7.19547 16.538C7.17403 16.5048 7.15501 16.4702 7.13857 16.4343Z" fill="#FBD047"/>
<path d="M21.4228 6.31893C21.2066 4.95478 21.7522 3.64563 22.847 2.94207C24.3433 1.97996 26.1442 2.31625 26.9559 3.18038C27.497 3.75689 27.8112 4.3669 27.9597 4.96995C27.8516 4.26512 27.5286 3.54196 26.8927 2.86431C26.0829 2.00018 24.282 1.66326 22.7838 2.626C21.6352 3.36433 21.091 4.7683 21.3963 6.20325C21.4047 6.24244 21.4136 6.281 21.4228 6.31893Z" fill="#FBD047"/>
<path d="M20.8807 15.2663C20.6336 15.1347 20.4477 14.912 20.3623 14.6455C20.3983 15.0981 20.6385 15.4249 20.9439 15.5823C21.0765 15.6523 21.1813 15.7653 21.241 15.9028C21.246 15.7737 21.2149 15.6458 21.1513 15.5333C21.0876 15.4209 20.9939 15.3284 20.8807 15.2663Z" fill="#E87A02"/>
<path d="M23.4715 6.90598C23.0429 6.86869 22.7761 6.43125 22.6592 6.021C22.6668 6.08421 22.6775 6.14742 22.6902 6.21064C22.7843 6.65313 23.0612 7.18096 23.5347 7.22205C23.6475 7.23393 23.755 7.27594 23.846 7.34367C23.937 7.4114 24.008 7.50237 24.0518 7.60702C24.06 7.24481 23.8071 6.93443 23.4715 6.90598Z" fill="#FBD047"/>
<path d="M19.3431 13.2705C20.1313 11.2628 21.8798 10.3247 23.4222 9.49664C24.5512 8.89106 25.6176 8.31834 26.2668 7.41502C26.5367 7.0389 26.9919 6.22282 26.7277 5.27588C26.8282 6.08564 26.4432 6.76582 26.2036 7.09896C25.555 8.00228 24.4886 8.57499 23.359 9.18058C21.8166 10.0087 20.0681 10.9468 19.2798 12.9544C18.9941 13.6826 18.9714 14.3609 19.1224 14.9355C19.0502 14.3708 19.1262 13.7969 19.3431 13.2705Z" fill="#E06511"/>
<path d="M23.0801 28.7485H4.83984V34.2222H23.0801V28.7485Z" fill="#7F302E"/>
<path d="M20.435 26.6353H7.4668V26.8818H20.435V26.6353Z" fill="#FBD047"/>
</g>
<defs>
<clipPath id="clip0_116_4762">
<rect width="27.9985" height="34" fill="white" transform="translate(0.00195312 0.228516)"/>
</clipPath>
</defs>
</svg>
