<svg width="37" height="37" viewBox="0 0 37 37" fill="none" xmlns="http://www.w3.org/2000/svg">
<g clip-path="url(#clip0_6_2204)">
<path d="M35.916 0H24.7148C24.1162 0 23.6309 0.485336 23.6309 1.08398V3.97461C23.6309 4.57326 24.1162 5.05859 24.7148 5.05859H28.3644L22.1061 11.3169C19.8307 9.74076 17.0694 8.81641 14.0918 8.81641C6.30908 8.81641 0 15.1255 0 22.9082C0 30.6908 6.30908 37 14.0918 37C21.8745 37 28.1836 30.6908 28.1836 22.9082C28.1836 19.9306 27.2592 17.1693 25.6831 14.8939L31.9414 8.63553V12.2852C31.9414 12.8838 32.4267 13.3691 33.0254 13.3691H35.916C36.5147 13.3691 37 12.8838 37 12.2852V1.08398C37 0.485336 36.5147 0 35.916 0ZM14.0918 31.9414C9.10287 31.9414 5.05859 27.8971 5.05859 22.9082C5.05859 17.9193 9.10287 13.875 14.0918 13.875C19.0807 13.875 23.125 17.9193 23.125 22.9082C23.125 27.8971 19.0807 31.9414 14.0918 31.9414Z" fill="black"/>
</g>
<defs>
<clipPath id="clip0_6_2204">
<rect width="37" height="37" fill="white"/>
</clipPath>
</defs>
</svg>
