<svg width="4" height="13" viewBox="0 0 4 13" fill="none" xmlns="http://www.w3.org/2000/svg">
<path d="M0.828126 2.03313C0.828126 1.8062 0.895419 1.58437 1.0215 1.39568C1.14757 1.20699 1.32677 1.05993 1.53643 0.973083C1.74609 0.886239 1.97679 0.863517 2.19936 0.90779C2.42193 0.952062 2.62638 1.06134 2.78685 1.22181C2.94731 1.38227 3.05659 1.58672 3.10086 1.80929C3.14513 2.03186 3.12241 2.26256 3.03557 2.47222C2.94873 2.68188 2.80166 2.86108 2.61297 2.98716C2.42429 3.11323 2.20245 3.18053 1.97552 3.18053C1.67121 3.18053 1.37937 3.05964 1.16419 2.84446C0.949011 2.62929 0.828126 2.33744 0.828126 2.03313ZM1.97552 5.76216C1.74858 5.76216 1.52675 5.82945 1.33806 5.95553C1.14937 6.08161 1.00231 6.2608 0.915466 6.47046C0.828622 6.68012 0.8059 6.91082 0.850172 7.13339C0.894445 7.35597 1.00372 7.56041 1.16419 7.72088C1.32465 7.88134 1.5291 7.99062 1.75167 8.03489C1.97424 8.07917 2.20495 8.05645 2.41461 7.9696C2.62426 7.88276 2.80346 7.73569 2.92954 7.54701C3.05562 7.35832 3.12291 7.13648 3.12291 6.90955C3.12291 6.60524 3.00202 6.3134 2.78685 6.09822C2.57167 5.88304 2.27982 5.76216 1.97552 5.76216ZM1.97552 10.6386C1.74858 10.6386 1.52675 10.7059 1.33806 10.8319C1.14937 10.958 1.00231 11.1372 0.915466 11.3469C0.828622 11.5565 0.8059 11.7872 0.850172 12.0098C0.894445 12.2324 1.00372 12.4368 1.16419 12.5973C1.32465 12.7578 1.5291 12.867 1.75167 12.9113C1.97424 12.9556 2.20495 12.9329 2.41461 12.846C2.62426 12.7592 2.80346 12.6121 2.92954 12.4234C3.05562 12.2347 3.12291 12.0129 3.12291 11.786C3.12291 11.4817 3.00202 11.1898 2.78685 10.9746C2.57167 10.7595 2.27982 10.6386 1.97552 10.6386Z" fill="#F2F2F2"/>
</svg>
