<svg width="15" height="15" viewBox="0 0 15 15" fill="none" xmlns="http://www.w3.org/2000/svg">
<path d="M8.41837 0.971351C8.41837 0.713732 8.31603 0.466665 8.13387 0.284502C7.95171 0.102338 7.70464 0 7.44702 0C7.1894 0 6.94234 0.102338 6.76017 0.284502C6.57801 0.466665 6.47567 0.713732 6.47567 0.971351V6.47567H0.971351C0.713732 6.47567 0.466665 6.57801 0.284502 6.76017C0.102338 6.94234 0 7.1894 0 7.44702C0 7.70464 0.102338 7.95171 0.284502 8.13387C0.466665 8.31603 0.713732 8.41837 0.971351 8.41837H6.47567V13.9227C6.47567 14.1803 6.57801 14.4274 6.76017 14.6095C6.94234 14.7917 7.1894 14.894 7.44702 14.894C7.70464 14.894 7.95171 14.7917 8.13387 14.6095C8.31603 14.4274 8.41837 14.1803 8.41837 13.9227V8.41837H13.9227C14.1803 8.41837 14.4274 8.31603 14.6095 8.13387C14.7917 7.95171 14.894 7.70464 14.894 7.44702C14.894 7.1894 14.7917 6.94234 14.6095 6.76017C14.4274 6.57801 14.1803 6.47567 13.9227 6.47567H8.41837V0.971351Z" fill="#141414"/>
</svg>
