<svg width="12" height="12" viewBox="0 0 12 12" fill="none" xmlns="http://www.w3.org/2000/svg">
<path d="M5.225 10.5H1.25C0.5605 10.5 0 9.9395 0 9.25V1.25C0 0.5605 0.5605 0 1.25 0H7.25C7.9395 0 8.5 0.5605 8.5 1.25V3.92C8.5 4.058 8.388 4.17 8.25 4.17C8.112 4.17 8 4.058 8 3.92V1.25C8 0.8365 7.6635 0.5 7.25 0.5H1.25C0.8365 0.5 0.5 0.8365 0.5 1.25V9.25C0.5 9.6635 0.8365 10 1.25 10H5.225C5.363 10 5.475 10.112 5.475 10.25C5.475 10.388 5.3635 10.5 5.225 10.5Z" fill="#F7F9FA"/>
<path d="M6.75 4.5H1.75C1.612 4.5 1.5 4.388 1.5 4.25C1.5 4.112 1.612 4 1.75 4H6.75C6.888 4 7 4.112 7 4.25C7 4.388 6.888 4.5 6.75 4.5Z" fill="#F7F9FA"/>
<path d="M4.75 6.5H1.75C1.612 6.5 1.5 6.388 1.5 6.25C1.5 6.112 1.612 6 1.75 6H4.75C4.888 6 5 6.112 5 6.25C5 6.388 4.888 6.5 4.75 6.5Z" fill="#F7F9FA"/>
<path d="M4.25 2.5H1.75C1.612 2.5 1.5 2.388 1.5 2.25C1.5 2.112 1.612 2 1.75 2H4.25C4.388 2 4.5 2.112 4.5 2.25C4.5 2.388 4.388 2.5 4.25 2.5Z" fill="#F7F9FA"/>
<path d="M9 12.0001C8.967 12.0001 8.934 11.9936 8.903 11.9806C8.784 11.9301 6 10.7271 6 8.26813V6.17863C6 6.07113 6.0685 5.97613 6.17 5.94163L8.92 5.01313C8.972 4.99562 9.0285 4.99562 9.08 5.01313L11.83 5.94163C11.9315 5.97563 12 6.07113 12 6.17863V8.26813C12 10.7271 9.216 11.9301 9.097 11.9806C9.066 11.9936 9.033 12.0001 9 12.0001ZM6.5 6.35863V8.26813C6.5 10.1601 8.5275 11.2471 9 11.4746C9.472 11.2466 11.5 10.1551 11.5 8.26813V6.35863L9 5.51412L6.5 6.35863Z" fill="#F7F9FA"/>
<path d="M8.74976 9.50013C8.74526 9.50013 8.74026 9.50013 8.73626 9.49963C8.66476 9.49563 8.59926 9.46213 8.55476 9.40613L7.55476 8.15613C7.46876 8.04813 7.48576 7.89113 7.59376 7.80463C7.70276 7.71963 7.85926 7.73663 7.94526 7.84363L8.77026 8.87513L10.3228 7.32313C10.4203 7.22562 10.5788 7.22562 10.6763 7.32313C10.7738 7.42063 10.7738 7.57912 10.6763 7.67662L8.92626 9.42663C8.87976 9.47363 8.81576 9.50013 8.74976 9.50013Z" fill="#F7F9FA"/>
</svg>
