<svg width="67" height="67" viewBox="0 0 67 67" fill="none" xmlns="http://www.w3.org/2000/svg">
<circle cx="33.5" cy="33.5" r="33.5" fill="#1E1E1E" fill-opacity="0.27"/>
<circle cx="34" cy="34" r="28" fill="#1E1E1E"/>
<path d="M43.4585 33.7682C43.4585 34.2034 43.2856 34.6209 42.9778 34.9287C42.6701 35.2365 42.2526 35.4093 41.8174 35.4093C41.7307 35.4072 41.6444 35.399 41.559 35.3847H41.4768C40.1154 35.1483 38.8499 34.5276 37.8294 33.5958L39.368 30.3628C39.6657 30.8371 40.0613 31.2425 40.5283 31.5517C40.9953 31.8609 41.5229 32.0668 42.0759 32.1557C42.4629 32.2172 42.815 32.4152 43.0688 32.7138C43.3188 33.0084 43.4568 33.3818 43.4585 33.7682Z" fill="white"/>
<path d="M31.8023 37.8424C31.3685 38.1802 30.896 38.4652 30.3949 38.6916C29.3258 39.1601 28.1691 39.3951 27.002 39.381C26.0298 39.3837 25.0624 39.2455 24.1299 38.9707C23.7197 38.8362 23.3789 38.5454 23.1815 38.1614C22.9842 37.7774 22.946 37.3311 23.0755 36.9192C23.1628 36.6519 23.3173 36.4116 23.5242 36.2212C23.7311 36.0308 23.9834 35.8968 24.257 35.8319C24.9627 35.6637 25.6438 36.0248 26.3331 36.1027C27.0711 36.1847 27.8182 36.1148 28.5282 35.8976C28.9741 35.7669 29.3915 35.554 29.7591 35.2699C29.8591 35.5952 29.9968 35.9078 30.1694 36.2012C30.5755 36.8703 31.1353 37.4329 31.8023 37.8424Z" fill="white"/>
<path d="M42.8677 43.492C42.8677 43.6552 42.8028 43.8118 42.6874 43.9272C42.572 44.0426 42.4155 44.1074 42.2523 44.1074H29.123C28.9598 44.1074 28.8032 44.0426 28.6878 43.9272C28.5724 43.8118 28.5076 43.6552 28.5076 43.492C28.5076 43.3288 28.5724 43.1723 28.6878 43.0569C28.8032 42.9415 28.9598 42.8766 29.123 42.8766H37.3288C37.4232 42.8766 37.456 42.852 37.4478 42.7453C37.4189 42.1306 37.3532 41.5182 37.2509 40.9113C37.1153 40.1968 36.8541 39.512 36.4795 38.8886C36.272 38.552 36.0209 38.2444 35.7327 37.9737C35.6384 37.8875 35.5358 37.8013 35.4291 37.7152C35.0351 37.4071 34.5891 37.1723 34.1121 37.0218C33.0905 36.6772 32.1715 36.3489 31.5889 35.3807C31.3748 35.0218 31.2383 34.6221 31.1881 34.2073C31.1379 33.7925 31.1752 33.3718 31.2976 32.9723C31.4371 32.6112 31.6463 32.2583 31.8146 31.9096L33.189 29.0047C33.2259 28.9268 33.4434 28.2949 33.5336 28.2744C33.1976 28.3392 32.867 28.4298 32.5449 28.5452C31.4158 28.9698 30.3813 29.6125 29.5005 30.4367C29.3405 30.5811 29.1535 30.6926 28.9504 30.7648C28.7473 30.8369 28.532 30.8684 28.3168 30.8573C28.1015 30.8463 27.8905 30.7929 27.6958 30.7003C27.5012 30.6077 27.3268 30.4777 27.1824 30.3177C27.038 30.1576 26.9264 29.9708 26.8542 29.7677C26.782 29.5646 26.7506 29.3492 26.7617 29.134C26.7727 28.9187 26.826 28.7077 26.9186 28.5131C27.0112 28.3184 27.1413 28.1439 27.3014 27.9996C28.4991 26.8898 29.9027 26.0255 31.4329 25.4557C32.5192 25.0602 33.6659 24.8562 34.8219 24.8526C35.4018 24.8516 35.9804 24.9079 36.5492 25.0209C36.7009 25.032 36.8502 25.0652 36.9923 25.1193C37.1855 25.1477 37.3743 25.2001 37.5545 25.2752C38.1567 25.5272 38.6343 26.008 38.882 26.612C39.1298 27.216 39.1275 27.8937 38.8756 28.496L38.7525 28.7914L36.1144 34.3344C36.2703 34.4082 36.4302 34.4862 36.5821 34.5682C36.7339 34.6503 36.9923 34.8185 37.1811 34.9539C37.7775 35.3769 38.3108 35.8825 38.7648 36.4556C39.6828 37.6653 40.2875 39.0832 40.525 40.5831C40.6873 41.3447 40.7234 42.1279 40.6316 42.9012C41.1691 42.9012 41.7066 42.9012 42.2441 42.9012C42.4045 42.899 42.5595 42.9594 42.676 43.0698C42.7925 43.1802 42.8613 43.3317 42.8677 43.492Z" fill="white"/>
<path d="M26.1362 42.8766H24.655C24.4918 42.8766 24.3353 42.9415 24.2198 43.0569C24.1044 43.1723 24.0395 43.3288 24.0395 43.492C24.0395 43.6552 24.1044 43.8118 24.2198 43.9272C24.3353 44.0426 24.4918 44.1074 24.655 44.1074H26.1362C26.2994 44.1074 26.4559 44.0426 26.5713 43.9272C26.6867 43.8118 26.7516 43.6552 26.7516 43.492C26.7516 43.3288 26.6867 43.1723 26.5713 43.0569C26.4559 42.9415 26.2994 42.8766 26.1362 42.8766Z" fill="white"/>
<path d="M39.0479 24.9142C40.1288 24.9142 41.005 24.0379 41.005 22.9571C41.005 21.8762 40.1288 21 39.0479 21C37.9671 21 37.0909 21.8762 37.0909 22.9571C37.0909 24.0379 37.9671 24.9142 39.0479 24.9142Z" fill="white"/>
</svg>
