<svg width="12" height="12" viewBox="0 0 12 12" fill="none" xmlns="http://www.w3.org/2000/svg">
<path d="M12 6.63068C12 6.85672 11.8986 7.07351 11.718 7.23335C11.5375 7.39318 11.2927 7.48296 11.0374 7.48296C10.9866 7.48186 10.9359 7.47761 10.8858 7.47019H10.8376C10.039 7.34737 9.29678 7.02504 8.69821 6.54119L9.60067 4.86221C9.77532 5.10855 10.0074 5.31907 10.2813 5.47964C10.5552 5.64021 10.8647 5.74714 11.189 5.79331C11.416 5.82526 11.6226 5.92806 11.7714 6.08311C11.918 6.23612 11.999 6.43002 12 6.63068Z" fill="#232323"/>
<path d="M5.16301 8.74646C4.90855 8.92189 4.63142 9.06993 4.33752 9.1875C3.71042 9.43079 3.03197 9.55284 2.34735 9.54547C1.77714 9.54691 1.20971 9.47514 0.662765 9.3324C0.422121 9.26255 0.222254 9.11156 0.106484 8.91214C-0.00928645 8.71273 -0.031649 8.48096 0.0442633 8.26706C0.0954822 8.12826 0.186116 8.00344 0.30748 7.90457C0.428845 7.8057 0.576842 7.73609 0.737324 7.70242C1.15125 7.61507 1.55075 7.80257 1.95506 7.84306C2.38794 7.88559 2.8261 7.84934 3.24259 7.73652C3.5041 7.66866 3.74896 7.55809 3.96455 7.41052C4.0232 7.5795 4.10397 7.74183 4.20521 7.89419C4.44343 8.24165 4.77177 8.53381 5.16301 8.74646Z" fill="#232323"/>
<path d="M11.6534 11.6804C11.6534 11.7652 11.6154 11.8465 11.5477 11.9064C11.48 11.9663 11.3882 12 11.2925 12H3.59148C3.49574 12 3.40389 11.9663 3.33619 11.9064C3.2685 11.8465 3.23049 11.7652 3.23049 11.6804C3.23049 11.5956 3.2685 11.5144 3.33619 11.4544C3.40389 11.3945 3.49574 11.3608 3.59148 11.3608H8.40459C8.45994 11.3608 8.47921 11.348 8.47439 11.2926C8.45746 10.9734 8.41889 10.6554 8.35888 10.3402C8.27936 9.96916 8.12615 9.6135 7.90642 9.28978C7.78474 9.11498 7.63745 8.95522 7.46841 8.81464C7.41306 8.7699 7.3529 8.72515 7.29033 8.68041C7.05922 8.52044 6.79759 8.39849 6.51783 8.32033C5.9186 8.14136 5.37955 7.9709 5.03782 7.46806C4.91225 7.28172 4.83218 7.07413 4.80275 6.85872C4.77332 6.6433 4.79519 6.42483 4.86697 6.21735C4.94879 6.02985 5.07153 5.84659 5.17019 5.66549L5.97636 4.15697C5.99801 4.11649 6.12558 3.78836 6.17853 3.7777C5.98141 3.81135 5.78754 3.85837 5.59857 3.91834C4.93631 4.13883 4.32951 4.47258 3.81286 4.90058C3.71901 4.97558 3.60938 5.03348 3.49025 5.07096C3.37111 5.10845 3.24483 5.12477 3.11857 5.11903C2.99231 5.11329 2.86852 5.0856 2.75435 5.03752C2.64018 4.98943 2.53787 4.92189 2.45318 4.83878C2.36847 4.75568 2.30304 4.65865 2.2607 4.55317C2.21837 4.4477 2.19993 4.33587 2.20642 4.22408C2.2129 4.11229 2.24417 4.00272 2.29848 3.90164C2.3528 3.80056 2.42911 3.70995 2.52298 3.63496C3.22552 3.05864 4.0488 2.60982 4.94634 2.31393C5.5835 2.10852 6.25608 2.00256 6.93416 2.00072C7.27431 2.00017 7.61367 2.02944 7.94731 2.08809C8.03629 2.09388 8.12386 2.1111 8.20724 2.13922C8.32051 2.15397 8.4313 2.18117 8.53696 2.22019C8.89022 2.35102 9.17031 2.60074 9.31563 2.9144C9.46095 3.22807 9.4596 3.57999 9.31187 3.89277L9.23966 4.04617L7.69226 6.92473C7.78371 6.96308 7.87754 7.00355 7.96658 7.04616C8.05562 7.08878 8.20723 7.17615 8.31793 7.24646C8.66776 7.46611 8.98055 7.72869 9.24689 8.0263C9.78533 8.65451 10.14 9.39084 10.2793 10.1698C10.3745 10.5653 10.3957 10.972 10.3419 11.3736C10.6571 11.3736 10.9724 11.3736 11.2876 11.3736C11.3818 11.3724 11.4727 11.4038 11.541 11.4611C11.6093 11.5185 11.6497 11.5971 11.6534 11.6804Z" fill="#232323"/>
<path d="M1.83952 11.3608H0.970731C0.874992 11.3608 0.783202 11.3945 0.715504 11.4544C0.647807 11.5144 0.609747 11.5956 0.609747 11.6804C0.609747 11.7652 0.647807 11.8464 0.715504 11.9064C0.783202 11.9663 0.874992 12 0.970731 12H1.83952C1.93526 12 2.02705 11.9663 2.09475 11.9064C2.16245 11.8464 2.20051 11.7652 2.20051 11.6804C2.20051 11.5956 2.16245 11.5144 2.09475 11.4544C2.02705 11.3945 1.93526 11.3608 1.83952 11.3608Z" fill="#232323"/>
<path d="M9.41296 2.03267C10.0469 2.03267 10.5609 1.57764 10.5609 1.01634C10.5609 0.455029 10.0469 0 9.41296 0C8.77898 0 8.26503 0.455029 8.26503 1.01634C8.26503 1.57764 8.77898 2.03267 9.41296 2.03267Z" fill="#232323"/>
</svg>
