<svg width="23" height="24" viewBox="0 0 23 24" fill="none" xmlns="http://www.w3.org/2000/svg">
<path d="M23 15.2636C23 15.3682 23 15.4727 23 15.5773C22.4438 17.1026 21.6963 18.5171 20.6352 19.7612C20.2944 20.1605 19.9452 20.2787 19.4475 20.0874C18.6394 19.7779 17.8198 19.4998 16.9991 19.2259C16.0582 18.9112 15.2365 19.4005 15.0566 20.3707C14.9082 21.1705 14.7702 21.9734 14.6249 22.7742C14.4963 23.482 14.3353 23.6304 13.616 23.7339C13.155 23.8008 12.6939 23.8719 12.2329 23.9409C11.7446 23.9409 11.2575 23.9409 10.7692 23.9409C10.2737 23.8688 9.77814 23.7966 9.28154 23.7266C8.80586 23.6597 8.48909 23.4495 8.40755 22.9258C8.27477 22.0706 8.10332 21.2206 7.94441 20.3696C7.76355 19.3995 6.94391 18.9112 6.00195 19.2259C5.23041 19.4841 4.46723 19.7643 3.69986 20.0351C2.92832 20.308 2.79764 20.2599 2.26968 19.6378C1.24618 18.4314 0.541545 17.0503 0 15.5773C0 15.4727 0 15.3682 0 15.2636C0.717182 14.6144 1.41659 13.9432 2.15677 13.3222C3.26495 12.3928 3.26495 11.5491 2.15677 10.6197C1.41659 9.99768 0.717182 9.3265 0 8.67727C0 8.57273 0 8.46818 0 8.36364C0.556182 6.83832 1.30368 5.42382 2.36482 4.17973C2.70564 3.78036 3.05377 3.66223 3.55245 3.8525C4.36059 4.16195 5.18023 4.44005 6.00091 4.71395C6.94182 5.02864 7.76459 4.53936 7.94336 3.57023C8.09182 2.76941 8.23086 1.96755 8.37514 1.16673C8.50059 0.465227 8.66577 0.3105 9.38505 0.207C9.84609 0.140091 10.3071 0.069 10.7682 0C11.2564 0 11.7436 0 12.2318 0C12.7451 0.0742273 13.2595 0.140091 13.7707 0.224773C14.1941 0.294818 14.4984 0.476727 14.5747 0.966C14.7106 1.83791 14.8925 2.7025 15.0556 3.57023C15.2385 4.54041 16.0571 5.02968 16.998 4.71395C17.7696 4.45573 18.5328 4.17555 19.3001 3.90477C20.0717 3.63191 20.2034 3.67895 20.7303 4.30205C21.7528 5.50955 22.4585 6.88955 23 8.36364C23 8.46818 23 8.57273 23 8.67727C22.2828 9.3265 21.5834 9.99768 20.8432 10.6187C19.735 11.5481 19.735 12.3918 20.8432 13.3212C21.5834 13.9432 22.2828 14.6144 23 15.2636ZM11.5125 15.4727C13.4372 15.4685 15.0545 13.8439 15.0253 11.9443C14.996 10.0332 13.4174 8.47027 11.5125 8.46714C9.58055 8.464 7.97264 10.0552 7.97264 11.9705C7.97368 13.8857 9.58159 15.478 11.5125 15.4727Z" fill="#141414"/>
</svg>
