<svg width="23" height="23" viewBox="0 0 23 23" fill="none" xmlns="http://www.w3.org/2000/svg">
<path d="M8.85106e-06 11.5011C-0.0077804 5.14151 5.12654 0.00479675 11.4951 3.3689e-06C17.8656 -0.00479002 22.9861 5.10616 23.0041 11.4874C23.022 17.8554 17.8709 23.01 11.4939 23.0059C5.12833 23.0017 0.00719893 17.8757 8.85106e-06 11.5011ZM18.385 4.6412C18.3024 4.65798 18.273 4.65857 18.2484 4.66996C15.2112 6.08281 12.174 7.49566 9.1398 8.9157C9.04333 8.96064 8.95046 9.0619 8.90492 9.15956C7.60052 11.9505 6.30211 14.7445 5.0031 17.5378C4.88027 17.802 4.76044 18.0675 4.61784 18.3796C4.7143 18.3485 4.75145 18.3401 4.78501 18.3245C7.81323 16.9159 10.842 15.5084 13.8667 14.0926C13.9697 14.0446 14.062 13.9272 14.1123 13.8199C14.9889 11.9517 15.8595 10.0799 16.7295 8.20868C17.2754 7.03549 17.8194 5.86052 18.385 4.6412Z" fill="#141414"/>
</svg>
