<svg id="icons" height="512" viewBox="0 0 60 60" width="512" xmlns="http://www.w3.org/2000/svg"><path d="m11.476 50.47a.5.5 0 0 1 -.263-.926l10.387-6.41-12.566 7.256a.5.5 0 0 1 -.516-.856l20.534-12.95-22.502 12.991a.5.5 0 0 1 -.509-.86l4.7-2.849-5.154 2.975a.5.5 0 0 1 -.51-.861l5.068-3.08-5.357 3.1a.5.5 0 0 1 -.514-.857l13.735-8.5-14.109 8.133a.5.5 0 0 1 -.509-.86l.849-.516-.846.489a.5.5 0 0 1 -.518-.856l15.968-10.089-16.179 9.341a.5.5 0 0 1 -.517-.855l12.582-7.921-12.582 7.263a.5.5 0 0 1 -.512-.858l3.564-2.2-3.342 1.932a.5.5 0 0 1 -.511-.859l.717-.441-.42.242a.5.5 0 0 1 -.522-.853l11.144-7.191-10.866 6.273a.5.5 0 0 1 -.516-.855l4.083-2.573-3.662 2.111a.5.5 0 0 1 -.517-.856l2.136-1.344-1.64.946a.5.5 0 0 1 -.523-.85l6.093-3.988-5.5 3.174a.5.5 0 0 1 -.526-.849l5.043-3.352-4.328 2.5a.5.5 0 0 1 -.543-.839l6.621-4.81-5.567 3.214a.5.5 0 0 1 -.556-.828l4.468-3.456-3.023 1.744a.5.5 0 0 1 -.6-.786l2.788-2.786a.521.521 0 0 1 -.469-.249.5.5 0 0 1 .183-.683l2.941-1.7a.5.5 0 0 1 .6.786l-2.651 2.652 6.142-3.54a.5.5 0 0 1 .556.828l-4.468 3.451 7.426-4.286a.5.5 0 0 1 .544.837l-6.62 4.807 9.785-5.647a.5.5 0 0 1 .526.848l-5.047 3.356 7.286-4.206a.5.5 0 0 1 .524.85l-6.089 3.982 8.373-4.834a.5.5 0 0 1 .516.855l-2.137 1.348 3.82-2.205a.5.5 0 0 1 .517.855l-4.089 2.581 5.952-3.437a.5.5 0 0 1 .521.853l-11.141 7.19 13.935-8.046a.5.5 0 0 1 .512.858l-.724.446 2.261-1.3a.5.5 0 0 1 .513.859l-3.562 2.2 5.294-3.056a.5.5 0 0 1 .517.856l-12.578 7.909 15.2-8.777a.5.5 0 0 1 .518.856l-15.969 10.091 18.967-10.95a.5.5 0 0 1 .509.861l-.872.528 2.409-1.39a.5.5 0 0 1 .513.858l-13.724 8.5 16.21-9.359a.5.5 0 0 1 .509.861l-5.07 3.081 6.72-3.882a.5.5 0 0 1 .509.86l-4.666 2.828 4.159-2.4a.5.5 0 0 1 .516.855l-20.547 12.958 20.033-11.564a.5.5 0 0 1 .512.858l-10.39 6.412 9.88-5.7a.5.5 0 0 1 .517.856l-15.408 9.754 14.893-8.6a.5.5 0 0 1 .517.855l-12.624 8.014 12.108-6.99a.5.5 0 0 1 .525.851l-14.042 9.2 13.52-7.806a.5.5 0 0 1 .517.856l-4.12 2.591 3.6-2.081a.5.5 0 0 1 .523.852l-7.865 5.122 7.344-4.24a.5.5 0 0 1 .534.844l-9.217 6.33 8.685-5.014a.5.5 0 0 1 .527.849l-3.738 2.478 3.217-1.858a.5.5 0 0 1 .538.841l-5.017 3.537 4.481-2.587a.5.5 0 0 1 .556.828l-4.628 3.567 4.074-2.351a.5.5 0 0 1 .583.8l-3.215 2.87 2.635-1.52a.5.5 0 0 1 .622.766l-1.444 1.608.824-.476a.5.5 0 0 1 .7.647l-.37.783a.5.5 0 0 1 .169.926l-.968.558a.5.5 0 0 1 -.7-.645l.285-.6-2.164 1.248a.5.5 0 0 1 -.622-.766l1.445-1.607-4.115 2.373a.5.5 0 0 1 -.583-.8l3.213-2.868-6.364 3.668a.5.5 0 0 1 -.556-.828l4.63-3.569-7.618 4.397a.5.5 0 0 1 -.538-.841l5.008-3.527-7.57 4.37a.5.5 0 0 1 -.526-.849l3.743-2.482-5.767 3.329a.5.5 0 0 1 -.533-.844l9.216-6.329-12.426 7.173a.5.5 0 0 1 -.522-.851l7.863-5.12-10.345 5.971a.5.5 0 0 1 -.516-.855l4.128-2.6-5.98 3.455a.5.5 0 0 1 -.524-.85l14.042-9.2-17.409 10.05a.5.5 0 0 1 -.518-.854l12.618-8.009-15.352 8.863a.5.5 0 0 1 -.518-.855l15.415-9.764-18.393 10.619a.5.5 0 0 1 -.25.07z" fill="#7d9cff"/><path d="m51.25 50.455a.5.5 0 0 1 -.336-.87l2.63-2.384-4.55 2.627a.5.5 0 0 1 -.551-.828l2.879-2.173-3.637 2.1a.5.5 0 0 1 -.546-.836l3.761-2.758-4.278 2.467a.5.5 0 0 1 -.543-.838l4.526-3.269-4.87 2.812a.5.5 0 0 1 -.528-.849l.8-.531-.778.448a.5.5 0 0 1 -.539-.842l4.863-3.42-4.934 2.847a.5.5 0 0 1 -.526-.849l1.184-.787-1.02.589a.5.5 0 0 1 -.529-.847l2.6-1.748-2.408 1.39a.5.5 0 0 1 -.54-.84l6.311-4.5-6.129 3.534a.5.5 0 0 1 -.53-.847l3.245-2.2-2.89 1.668a.5.5 0 0 1 -.533-.846l3.59-2.45-3.144 1.816a.5.5 0 0 1 -.528-.848l1.469-.982-.949.548a.5.5 0 0 1 -.535-.844l3.7-2.568-3.084 1.78a.5.5 0 0 1 -.549-.834l5.576-4.148-4.723 2.726a.5.5 0 0 1 -.555-.829l4.826-3.7-3.662 2.114a.5.5 0 0 1 -.572-.815l3.961-3.33-2.167 1.25a.5.5 0 0 1 -.58-.809l1.915-1.678a.513.513 0 0 1 -.185-.185.5.5 0 0 1 .183-.683l2.941-1.7a.5.5 0 0 1 .58.809l-.96.841 2.69-1.556a.5.5 0 0 1 .572.815l-3.959 3.329 5.347-3.087a.5.5 0 0 1 .554.829l-4.828 3.714 5.578-3.22a.5.5 0 0 1 .549.834l-5.579 4.149 6.046-3.489a.5.5 0 0 1 .535.844l-3.694 2.563 3.777-2.181a.5.5 0 0 1 .528.848l-1.474.985 1.376-.794a.5.5 0 0 1 .532.845l-3.586 2.449 3.483-2.011a.5.5 0 0 1 .53.846l-3.252 2.2 3.048-1.759a.5.5 0 0 1 .54.84l-6.309 4.5 6.1-3.519a.5.5 0 0 1 .529.848l-2.6 1.745 2.2-1.273a.5.5 0 0 1 .526.85l-1.194.793.732-.423a.5.5 0 0 1 .538.842l-4.859 3.419 4.322-2.488a.5.5 0 0 1 .529.848l-.8.535.183-.105a.5.5 0 0 1 .543.838l-4.524 3.266 3.7-2.138a.5.5 0 0 1 .546.836l-3.757 2.752 2.734-1.575a.5.5 0 0 1 .55.832l-2.877 2.168 1.576-.909a.5.5 0 0 1 .585.8l-2.63 2.384.219-.126a.5.5 0 1 1 .5.865l-4.277 2.474a.489.489 0 0 1 -.25.067z" fill="#6886ff"/><path d="m48.787 48.389a.5.5 0 0 1 -.326-.879l.22-.189-1.581.912a.5.5 0 0 1 -.566-.821l2.275-1.844-2.68 1.547a.5.5 0 0 1 -.547-.835l1.388-1.022-1.47.842a.5.5 0 0 1 -.54-.839l.844-.6-.792.457a.5.5 0 0 1 -.559-.826l4.676-3.674-4.791 2.772a.5.5 0 0 1 -.54-.84l2.381-1.7-1.849 1.069a.5.5 0 0 1 -.542-.839l2.643-1.9-.911.525a.5.5 0 0 1 -.541-.84l1.332-.948a.509.509 0 0 1 -.457-.216.5.5 0 0 1 .1-.672l3.061-2.461-1.714.99a.5.5 0 0 1 -.589-.8l3.328-3.076-2.477 1.429a.5.5 0 0 1 -.609-.78l2.57-2.656-1.194.688a.5.5 0 0 1 -.6-.787l1.067-1.06a.493.493 0 0 1 -.124-.144.5.5 0 0 1 .183-.683l1.892-1.089a.5.5 0 0 1 .6.787l-.2.2.96-.554a.5.5 0 0 1 .61.781l-2.57 2.655 3.265-1.884a.5.5 0 0 1 .589.8l-3.328 3.075 3.462-2a.5.5 0 0 1 .563.822l-3.057 2.458 2.839-1.64a.5.5 0 0 1 .54.839l-.931.664.531-.306a.5.5 0 0 1 .542.839l-2.642 1.9 2.186-1.262a.5.5 0 0 1 .54.84l-2.379 1.7 1.836-1.06a.5.5 0 0 1 .559.826l-4.675 3.67 3.923-2.265a.5.5 0 0 1 .54.84l-.845.6.037-.022a.5.5 0 0 1 .547.835l-1.39 1.023.382-.221a.5.5 0 0 1 .566.821l-2.275 1.844.738-.426a.5.5 0 0 1 .577.812l-1.518 1.309a.5.5 0 0 1 -.062.824l-2.771 1.6a.49.49 0 0 1 -.25.065z" fill="#3556a8"/><path d="m38.4 23.21a.5.5 0 0 1 -.456-.705l.737-1.642-2.043 1.18a.5.5 0 0 1 -.678-.69l1.04-1.729-1.7.983a.5.5 0 0 1 -.646-.739l.8-1.031-1.175.678a.5.5 0 0 1 -.661-.717l.949-1.371-1.454.839a.5.5 0 0 1 -.679-.688l1.047-1.768-1.728 1a.5.5 0 0 1 -.638-.749l.7-.862-1.02.589a.5.5 0 0 1 -.628-.76l.565-.654-.817.472a.5.5 0 0 1 -.679-.691l1.044-1.737-1.78 1.029a.5.5 0 1 1 -.5-.865l3.46-2a.5.5 0 0 1 .679.69l-1.044 1.738 1.71-.987a.5.5 0 0 1 .628.76l-.566.654.818-.471a.5.5 0 0 1 .63.108.5.5 0 0 1 .007.641l-.7.86 1.019-.588a.5.5 0 0 1 .679.688l-1.047 1.768 1.728-1a.5.5 0 0 1 .661.717l-.949 1.371 1.454-.839a.5.5 0 0 1 .646.74l-.8 1.032 1.177-.679a.5.5 0 0 1 .677.69l-1.041 1.727 1.7-.982a.5.5 0 0 1 .707.637l-.742 1.643 1.4-.81a.5.5 0 0 1 .5.866l-2.743 1.584a.5.5 0 0 1 -.248.07z" fill="#305470"/><path d="m14.943 23.5a.5.5 0 0 1 -.289-.908l1.353-.958-1.618.933a.5.5 0 0 1 -.526-.849l3.47-2.293-.271.155a.5.5 0 0 1 -.529-.847l2.919-1.97a.5.5 0 0 1 -.263-.906l2.88-2.047a.5.5 0 0 1 -.213-.852l3.859-3.558a.407.407 0 0 1 -.04-.059.5.5 0 0 1 .182-.683l1.83-1.058a.5.5 0 0 1 .589.8l-2.42 2.228 3.668-2.117a.5.5 0 0 1 .54.84l-1.633 1.161 1.924-1.112a.5.5 0 0 1 .53.847l-1.955 1.323 2.241-1.294a.5.5 0 0 1 .525.85l-6.417 4.241a.49.49 0 0 1 .21.184.5.5 0 0 1 -.132.678l-2.776 1.971a.5.5 0 0 1 .178.854l-2.8 2.439c.01.015.02.03.028.045a.5.5 0 0 1 -.182.683l-2.063 1.19a.5.5 0 0 1 -.578-.809l1.042-.909-3.013 1.74a.491.491 0 0 1 -.25.067z" fill="#305470"/><path d="m14.567 50.477a.5.5 0 0 1 -.453-.712l.744-1.594-1.764 1.018a.5.5 0 0 1 -.662-.715l1-1.454-1.352.78a.5.5 0 0 1 -.607-.782l.246-.252-.173.1a.5.5 0 0 1 -.63-.758l.9-1.043-.866.5a.5.5 0 0 1 -.622-.1.5.5 0 0 1 -.032-.629l1.464-2.008-1.471.849a.5.5 0 0 1 -.622-.767l1.115-1.241-.878.507a.5.5 0 0 1 -.629-.757l1.5-1.762-1.213.7a.5.5 0 0 1 -.634-.753l1.872-2.255-1.46.842a.5.5 0 0 1 -.585-.8l.459-.414a.5.5 0 0 1 -.529-.822l1.577-1.586-.952.549a.5.5 0 0 1 -.578-.809l.611-.533a.5.5 0 0 1 -.521-.833l1.718-1.591-.882.508a.5.5 0 0 1 -.563-.822l.609-.489a.514.514 0 0 1 -.428-.221.5.5 0 0 1 .107-.673l4.626-3.615-3.326 1.92a.5.5 0 0 1 -.56-.825l1.5-1.184-.079.049a.5.5 0 0 1 -.613-.776l1.892-2a.493.493 0 0 1 -.075-.1.5.5 0 0 1 .183-.683l1.46-.842a.5.5 0 0 1 .613.776l-.985 1.041 3.148-1.816a.5.5 0 0 1 .56.825l-1.5 1.181 3.473-2.006a.5.5 0 0 1 .558.826l-5.358 4.183a.5.5 0 0 1 .208.878l-.883.71a.5.5 0 0 1 .257.861l-1.72 1.594.535-.308a.5.5 0 0 1 .578.809l-.7.612a.507.507 0 0 1 .485.187.5.5 0 0 1 -.042.657l-1.575 1.585.748-.431a.5.5 0 0 1 .585.8l-.509.459a.5.5 0 0 1 .5.808l-1.88 2.257 1.3-.752a.5.5 0 0 1 .63.757l-1.5 1.759 1.083-.622a.5.5 0 0 1 .622.767l-1.116 1.242.791-.456a.5.5 0 0 1 .654.728l-1.463 2.007 1.36-.786a.5.5 0 0 1 .63.758l-.9 1.044.789-.455a.5.5 0 0 1 .608.782l-.249.254.109-.062a.5.5 0 0 1 .662.716l-1 1.454 1.229-.71a.5.5 0 0 1 .7.644l-.745 1.594 1.322-.763a.5.5 0 0 1 .635.115l1.011 1.226.214-.124a.5.5 0 1 1 .5.867l-.581.335a.5.5 0 0 1 -.636-.115l-1.01-1.227-2.33 1.345a.5.5 0 0 1 -.239.068z" fill="#436e8e"/><path d="m37.554 50.476a.5.5 0 0 1 -.456-.7l.341-.758-1.693.977a.5.5 0 0 1 -.673-.7l.912-1.449-1.44.832a.5.5 0 0 1 -.655-.726l1.017-1.406-1.271.733a.5.5 0 0 1 -.644-.124.5.5 0 0 1 .032-.654l.427-.446-.339.2a.5.5 0 0 1 -.655-.725l1.382-1.908-1.442.831a.5.5 0 0 1 -.642-.742l1.437-1.82-1.32.762a.5.5 0 0 1 -.607-.783l.821-.838-.5.287a.5.5 0 0 1 -.611-.78l1.081-1.123-.7.4a.5.5 0 0 1 -.6-.788l1.031-1.027-.569.328a.5.5 0 0 1 -.586-.8l.477-.433a.509.509 0 0 1 -.591-.151.5.5 0 0 1 .034-.656l1.767-1.836-1.138.658a.5.5 0 0 1 -.577-.812l.53-.456a.5.5 0 0 1 -.437-.864l1.078-.948-.3.172a.5.5 0 0 1 -.588-.8l2.454-2.263-1.4.81a.5.5 0 0 1 -.553-.83l.781-.6a.5.5 0 0 1 -.35-.886l2.555-2.09-1.035.6a.5.5 0 0 1 -.616-.774l1.983-2.129a.549.549 0 0 1 -.089-.112.5.5 0 0 1 .184-.684l1.461-.841a.5.5 0 0 1 .616.773l-1.149 1.223 3.471-2a.5.5 0 0 1 .567.819l-2.554 2.09.856-.494a.5.5 0 0 1 .554.83l-1.48 1.13a.487.487 0 0 1 .251.18.5.5 0 0 1 -.063.664l-2.451 2.259.763-.439a.5.5 0 0 1 .58.808l-1.074.944.011-.006a.5.5 0 0 1 .576.811l-.636.548a.5.5 0 0 1 .4.846l-1.768 1.836.924-.533a.5.5 0 0 1 .586.8l-.523.475a.5.5 0 0 1 .485.837l-1.03 1.026.449-.259a.5.5 0 0 1 .61.78l-1.081 1.124.6-.348a.5.5 0 0 1 .607.782l-.82.838.412-.238a.5.5 0 0 1 .643.742l-1.439 1.821 1.213-.7a.5.5 0 0 1 .655.726l-1.38 1.906 1.335-.77a.5.5 0 0 1 .611.778l-.428.447.274-.157a.5.5 0 0 1 .655.725l-1.018 1.407 1.164-.672a.5.5 0 0 1 .673.7l-.909 1.45 1.286-.742a.5.5 0 0 1 .706.638l-.342.758.691-.4a.5.5 0 0 1 .542.028l1.362.981a.5.5 0 0 1 .492.87l-.272.157a.494.494 0 0 1 -.542-.027l-1.365-.976-1.758 1.008a.5.5 0 0 1 -.246.068z" fill="#436e8e"/><path d="m48.684 42.385a.5.5 0 0 1 -.41-.788l.7-1-.931.537a.5.5 0 0 1 -.633-.755l1.313-1.558-1.164.671a.5.5 0 0 1 -.646-.737l.8-1.037-.367.211a.5.5 0 0 1 -.73-.576l.179-.6a.492.492 0 0 1 -.191-.188.5.5 0 0 1 .183-.682l.494-.285a.5.5 0 0 1 .73.575l-.079.265 1.459-.841a.5.5 0 0 1 .646.737l-.8 1.039 1.454-.839a.5.5 0 0 1 .633.755l-1.31 1.556.426-.246a.5.5 0 0 1 .66.72l-.939 1.332a.5.5 0 0 1 .088.906l-1.317.76a.493.493 0 0 1 -.248.068z" fill="#6886ff"/><path d="m46.922 42.479a.5.5 0 0 1 -.492-.589l.248-1.363-2.709 1.564a.5.5 0 0 1 -.632-.755l1.491-1.767-1.236.713a.5.5 0 0 1 -.6-.789l.846-.832-.43.247a.5.5 0 0 1 -.587-.8l.446-.406a.5.5 0 0 1 -.568-.8l1.849-1.967-1.249.72a.5.5 0 0 1 -.6-.794l1.692-1.621-.964.556a.5.5 0 0 1 -.571-.817l.8-.668-.024.013a.5.5 0 0 1 -.613-.777l2.238-2.357-1.007.582a.5.5 0 0 1 -.678-.692l.791-1.309a.55.55 0 0 1 -.077-.1.5.5 0 0 1 .184-.684l.672-.387a.5.5 0 0 1 .678.692l-.389.645 2.322-1.337a.5.5 0 0 1 .612.777l-2.237 2.356 2.1-1.211a.5.5 0 0 1 .57.817l-1.084.9a.485.485 0 0 1 .409.2.5.5 0 0 1 -.054.662l-1.691 1.621.6-.348a.5.5 0 0 1 .615.775l-1.85 1.969 1-.578a.5.5 0 0 1 .587.8l-.491.448a.5.5 0 0 1 .483.839l-.844.83.322-.185a.5.5 0 0 1 .632.755l-1.487 1.773 1.167-.673a.5.5 0 0 1 .742.522l-.248 1.362.193-.11a.5.5 0 0 1 .5.865l-1.127.651a.5.5 0 0 1 -.25.062z" fill="#4767cc"/><g fill="#262626"><path d="m7.243 50.23c6.51.715 13.188-.031 19.741.216 8.562-.291 17.259.62 25.737-.384 9.2-3.514 9.367-23.457.984-27.906-3.578-1.266-7.485-.328-11.208-.6-17.412-18.115-11.164-18.356-28.536-.028-8.219-1.086-12.305 3.172-13.432 11.03-.79 6.164.151 15.042 6.714 17.672zm7.363-.675c-6.606-6.005-6.683-20.924-.288-27.116 1.148.012 2.3 0 3.444.006-7.337 5.469-7.447 21.464-.238 27.11zm13.325-35.989a.93.93 0 0 0 .241-.351c-.072.322-.15.4-.21.4 2.446 2.649 4.947 5.29 7.407 7.941-4.959.018-9.941-.029-14.883-.028 2.5-2.647 4.837-5.362 7.424-7.939-.052-.054-.057-.14.021-.023zm-6.364 35.989c-10.414-1.173-10.6-25.7-.3-27.11q6.753 0 13.5.007c-6.267 6.548-6.34 20.379-.282 27.103zm14.9 0c-6.588-6.011-6.668-20.873-.324-27.1q1.789 0 3.58 0c-7.441 5.333-7.577 21.6-.251 27.1zm6.793 0c-8.933-1.9-8.919-15.974-5.754-22.677 2.01-5.029 6.19-4.549 10.737-4.431-7.69 5.353-7.743 18.48-2.3 25.467-.032.155.1.324.356.377a7.883 7.883 0 0 0 1.585 1.264zm3.989-2.246a13.138 13.138 0 0 1 -2.54-4.792c2.706-.136 5.993.978 6.557-2.729 1.187-3.852.4-4.67-3.526-4.338-.141-7.3 4.842-12.219 6.378-2.114.551 4.564-.479 14.664-6.866 13.973zm2.057-6.209a1.757 1.757 0 0 1 -.212.3c-1.186-1.223-1.2-3.245-1.346-4.874a16.585 16.585 0 0 1 2.344.025c.431 1.23-.192 3.361-.786 4.549zm-2.442-9.8c-.809 3.28-1.08 7.079.494 10.187h-2.942a22.027 22.027 0 0 1 .96-14.054h3.5a8.306 8.306 0 0 0 -2.012 3.867zm11.412 4.9c.314 5-2.976 16.8-9.826 12.294 7.89-1.775 9.2-15.138 5.134-20.923-2.044-2.02-5.221-.628-7.794-1 6.181-11.066 13.324 2.567 12.486 9.623zm-32.476-26.163c1.376-1.943 2.429-2.243 3.929-.209l10.943 11.727h-3.449c-11.018-11.5-7.043-11.687-18.044-.03q-2 0-4 0zm-22.522 17.602c1.675-4.682 5.01-5.725 9.63-5.215-6.285 6.549-6.347 20.4-.3 27.131-11.321 1.593-12.599-14.255-9.33-21.916z"/><path d="m27.962 13.614a.405.405 0 0 0 -.031-.048l-.021.022a.077.077 0 0 0 .052.026z"/></g></svg>