<svg width="23" height="23" viewBox="0 0 23 23" fill="none" xmlns="http://www.w3.org/2000/svg">
<path d="M22.4269 11.6626C22.4305 13.7599 21.8403 15.8153 20.7246 17.5911C19.6089 19.367 18.0132 20.7907 16.1221 21.6976C14.2311 22.6044 12.1219 22.9574 10.0386 22.7157C7.95535 22.474 5.98307 21.6474 4.34991 20.3316C4.2329 20.2368 4.13715 20.1184 4.06887 19.9841C4.00058 19.8499 3.9613 19.7028 3.95357 19.5524C3.94583 19.402 3.96983 19.2516 4.02398 19.111C4.07814 18.9705 4.16125 18.8429 4.26791 18.7366L4.76791 18.2366C4.95347 18.0478 5.20204 17.934 5.46617 17.9169C5.7303 17.8997 5.9915 17.9804 6.19991 18.1436C7.43723 19.1238 8.93004 19.7281 10.5008 19.8845C12.0716 20.0409 13.6542 19.7429 15.0606 19.0259C16.4669 18.3089 17.6377 17.2031 18.4337 15.8399C19.2298 14.4768 19.6176 12.9137 19.551 11.3366C19.4845 9.75946 18.9664 8.23461 18.0583 6.9434C17.1503 5.65219 15.8905 4.64894 14.4287 4.05296C12.967 3.45699 11.3649 3.29336 9.81286 3.58155C8.26084 3.86974 6.82425 4.5976 5.67391 5.6786L7.94991 7.9516C8.05037 8.05205 8.11873 8.18009 8.1463 8.31945C8.17387 8.45882 8.15942 8.60323 8.10478 8.73437C8.05013 8.86551 7.95777 8.97746 7.83939 9.05602C7.72102 9.13457 7.58198 9.17619 7.43991 9.1756H0.928914C0.834756 9.1756 0.741521 9.15705 0.65453 9.12102C0.56754 9.08499 0.488498 9.03217 0.421919 8.96559C0.355339 8.89901 0.302525 8.81997 0.266492 8.73298C0.23046 8.64599 0.211914 8.55275 0.211914 8.4586V1.9476C0.212109 1.80599 0.254231 1.66761 0.332966 1.54992C0.411702 1.43222 0.523526 1.34047 0.654337 1.28624C0.785147 1.23202 0.929086 1.21774 1.068 1.24521C1.20692 1.27267 1.33459 1.34066 1.43491 1.4406L3.64991 3.6526C5.22138 2.1511 7.19885 1.14366 9.33731 0.755106C11.4758 0.366549 13.6812 0.613948 15.6805 1.46665C17.6797 2.31936 19.3848 3.73989 20.5845 5.55224C21.7843 7.3646 22.4259 9.48913 22.4299 11.6626H22.4269ZM14.3269 15.1916L14.7669 14.6256C14.9417 14.4005 15.02 14.1152 14.9846 13.8325C14.9491 13.5497 14.8029 13.2926 14.5779 13.1176L12.7499 11.6996V7.0256C12.7499 6.74049 12.6367 6.46706 12.4351 6.26546C12.2335 6.06386 11.96 5.9506 11.6749 5.9506H10.9579C10.6728 5.9506 10.3994 6.06386 10.1978 6.26546C9.99617 6.46706 9.88291 6.74049 9.88291 7.0256V13.1016L12.8129 15.3806C13.038 15.5554 13.3233 15.6337 13.606 15.5983C13.8888 15.5628 14.1459 15.4166 14.3209 15.1916H14.3269Z" fill="white"/>
</svg>
