<svg id="icons" height="512" viewBox="0 0 60 60" width="512" xmlns="http://www.w3.org/2000/svg"><path d="m7.914 56.485a.5.5 0 0 1 -.414-.785l.85-1.251-2.071 1.2a.5.5 0 0 1 -.6-.787l1.245-1.242-.644.371a.5.5 0 0 1 -.585-.8l.487-.44a.5.5 0 0 1 -.53-.8l2-2.3-1.369.79a.5.5 0 0 1 -.624-.765l1.9-2.138-1.272.735a.5.5 0 0 1 -.612-.778l.409-.429a.51.51 0 0 1 -.362-.111.5.5 0 0 1 -.159-.545l.215-.655a.485.485 0 0 1 -.173-.178.5.5 0 0 1 .182-.682l.506-.292a.5.5 0 0 1 .725.59l-.095.286 1.548-.893a.5.5 0 0 1 .612.777l-.3.313.944-.544a.5.5 0 0 1 .624.765l-1.9 2.137 1.279-.737a.5.5 0 0 1 .627.76l-2 2.3 1.373-.793a.5.5 0 0 1 .585.8l-.487.44a.5.5 0 0 1 .509.83l-1.243 1.236.648-.374a.5.5 0 0 1 .663.714l-.85 1.251.192-.11a.5.5 0 1 1 .5.865l-2.083 1.2a.489.489 0 0 1 -.25.069z" fill="#bac5d8"/><path d="m6.55 43.479a.5.5 0 0 1 -.274-.918l1.734-1.135-3.44 1.985a.5.5 0 0 1 -.535-.844l5.929-4.117-8.026 4.633a.5.5 0 0 1 -.541-.84l6.451-4.605-6.568 3.791a.5.5 0 0 1 -.544-.837l4.664-3.392-4.12 2.376a.5.5 0 0 1 -.556-.828l3.369-2.612-2.813 1.624a.5.5 0 0 1 -.591-.8l2.468-2.3-1.804 1.04a.5.5 0 0 1 -.6-.788l1-.989a.494.494 0 0 1 -.239-.211.5.5 0 0 1 .182-.683l2.376-1.372a.5.5 0 0 1 .6.788l-.446.441 2.241-1.286a.5.5 0 0 1 .591.8l-2.468 2.3 5.365-3.1a.5.5 0 0 1 .557.828l-3.37 2.612 5.958-3.44a.5.5 0 0 1 .544.837l-4.66 3.389 7.326-4.226a.5.5 0 0 1 .67.162.5.5 0 0 1 -.129.678l-6.451 4.605 9.434-5.445a.5.5 0 0 1 .535.843l-5.929 4.116 8.594-4.959a.5.5 0 0 1 .524.85l-1.728 1.129 3.433-1.979a.5.5 0 0 1 .544.837l-7.33 5.321 10.667-6.158a.5.5 0 0 1 .533.844l-5.543 3.816 8.076-4.66a.5.5 0 0 1 .534.843l-5.706 3.944 8.293-4.787a.5.5 0 0 1 .528.848l-3.723 2.49 5.781-3.338a.5.5 0 0 1 .527.848l-3.4 2.266 5.393-3.114a.5.5 0 0 1 .538.841l-6.467 4.555 9.347-5.4a.5.5 0 0 1 .528.848l-3.407 2.27 5.4-3.118a.5.5 0 0 1 .529.847l-4.083 2.743 6.22-3.59a.5.5 0 0 1 .529.847l-4.077 2.74 6.064-3.5a.5.5 0 0 1 .533.844l-5.191 3.563 6.308-3.642a.5.5 0 0 1 .535.844l-4.65 3.226 5.095-2.941a.5.5 0 0 1 .552.831l-5.485 4.165 5.458-3.15a.5.5 0 0 1 .539.841l-1.271.9.744-.429a.5.5 0 0 1 .568.819l-2.4 1.976 1.832-1.057a.5.5 0 0 1 .627.761l-1.571 1.8.947-.546a.5.5 0 0 1 .655.725l-.471.654a.5.5 0 0 1 0 .867l-1.162.666a.5.5 0 0 1 -.655-.725l.115-.16-1.535.885a.5.5 0 0 1 -.627-.761l1.571-1.8-4.436 2.561a.5.5 0 0 1 -.569-.818l2.4-1.975-4.844 2.793a.5.5 0 0 1 -.539-.841l1.272-.9-3.018 1.741a.5.5 0 0 1 -.553-.831l5.486-4.166-8.658 5a.5.5 0 0 1 -.535-.843l4.649-3.226-7.048 4.069a.5.5 0 0 1 -.534-.844l5.192-3.559-7.631 4.405a.5.5 0 0 1 -.529-.847l4.088-2.746-6.226 3.593a.5.5 0 0 1 -.529-.847l4.076-2.739-6.213 3.588a.5.5 0 0 1 -.527-.848l3.412-2.273-5.405 3.121a.5.5 0 0 1 -.538-.842l6.468-4.554-9.35 5.4a.5.5 0 0 1 -.528-.848l3.4-2.263-5.39 3.111a.5.5 0 0 1 -.528-.848l3.72-2.487-5.779 3.336a.5.5 0 0 1 -.534-.844l5.711-3.947-8.3 4.791a.5.5 0 0 1 -.533-.845l5.538-3.813-8.074 4.656a.5.5 0 0 1 -.544-.837l7.33-5.321-10.669 6.159a.5.5 0 0 1 -.25.068z" fill="#dd4e6d"/><path d="m42.207 46.47a.5.5 0 0 1 -.321-.883l.315-.265-1.872 1.078a.5.5 0 0 1 -.572-.814l.373-.316-1.958 1.13a.5.5 0 0 1 -.619-.769l1.42-1.557-4.031 2.326a.5.5 0 0 1 -.578-.809l.616-.536-2.332 1.345a.5.5 0 0 1 -.648-.731l1.49-1.976-4.69 2.707a.5.5 0 0 1 -.574-.813l.442-.376-2.068 1.189a.5.5 0 0 1 -.637-.749l1.49-1.821-4.453 2.57a.5.5 0 0 1 -.572-.815l.34-.285-1.908 1.1a.5.5 0 0 1 -.572-.815l.355-.3-1.927 1.115a.5.5 0 0 1 -.6-.786l1.252-1.251-3.533 2.037a.5.5 0 0 1 -.613-.775l1.378-1.455-3.872 2.23a.5.5 0 0 1 -.622-.767l1.434-1.591-4.086 2.358a.5.5 0 0 1 -.567-.819l.078-.063-1.53.882a.5.5 0 0 1 -.627-.76l1.464-1.687-4.24 2.447a.5.5 0 0 1 -.579-.809l.643-.56-2.23 1.286a.5.5 0 0 1 -.566-.817l.229-.193-.242.139a.5.5 0 0 1 -.618-.77l.552-.6a.5.5 0 0 1 -.662-.614l.224-.713a.5.5 0 0 1 0-.865l.5-.288a.5.5 0 0 1 .727.584l-.112.356 1.624-.936a.5.5 0 0 1 .619.77l-.54.589 2.355-1.359a.5.5 0 0 1 .571.815l-.23.194 1.749-1.009a.5.5 0 0 1 .579.809l-.645.562 2.377-1.371a.5.5 0 0 1 .627.76l-1.464 1.684 4.239-2.444a.5.5 0 0 1 .567.819l-.078.063 1.53-.882a.5.5 0 0 1 .621.767l-1.434 1.591 4.088-2.358a.5.5 0 0 1 .613.775l-1.374 1.456 3.867-2.231a.5.5 0 0 1 .6.786l-1.252 1.251 3.533-2.037a.5.5 0 0 1 .572.815l-.354.3 1.929-1.115a.5.5 0 0 1 .573.815l-.34.285 1.907-1.1a.5.5 0 0 1 .637.749l-1.491 1.821 4.454-2.57a.5.5 0 0 1 .574.813l-.44.375 2.058-1.188a.5.5 0 0 1 .65.733l-1.491 1.976 4.7-2.709a.5.5 0 0 1 .578.809l-.616.536 2.327-1.345a.5.5 0 0 1 .619.769l-1.42 1.557 4.034-2.326a.5.5 0 0 1 .572.814l-.373.316 1.958-1.13a.5.5 0 0 1 .572.815l-.316.265 1.872-1.08a.5.5 0 0 1 .62.768l-1.424 1.568 4.076-2.353a.5.5 0 0 1 .59.8l-1 .921 3.005-1.735a.5.5 0 0 1 .587.8l-.932.848.414-.239a.5.5 0 0 1 .7.648l-.558 1.174a.5.5 0 0 1 .3.929l-1.161.67a.5.5 0 0 1 -.7-.647l.525-1.108-3.038 1.756a.5.5 0 0 1 -.587-.8l.932-.847-2.859 1.647a.5.5 0 0 1 -.589-.8l1-.921-2.986 1.721a.5.5 0 0 1 -.62-.768l1.425-1.569-4.048 2.337a.493.493 0 0 1 -.25.07z" fill="#d6ddef"/><path d="m46.029 56.492a.5.5 0 0 1 -.352-.854l.246-.244-.643.37a.5.5 0 0 1 -.587-.8l.57-.521a.5.5 0 0 1 -.562-.818l.347-.3a.467.467 0 0 1 -.406-.185.5.5 0 0 1 .016-.649l1.863-2.072-1.241.715a.5.5 0 0 1 -.61-.779l1.518-1.581-.908.524a.5.5 0 0 1 -.614-.775l1.622-1.723-1.008.582a.5.5 0 0 1 -.585-.8l.491-.442a.5.5 0 0 1 -.5-.842l.739-.687-.148.085a.5.5 0 0 1 -.606-.785l1.357-1.376-.751.434a.5.5 0 0 1 -.58-.808l.365-.321a.486.486 0 0 1 -.42-.181.5.5 0 0 1 .01-.659l2-2.306-1.373.792a.5.5 0 0 1 -.609-.78l1.456-1.5-.847.488a.5.5 0 0 1 -.6-.791l1.065-1.036-.467.27a.5.5 0 0 1 -.58-.809l.352-.308a.534.534 0 0 1 -.419-.2.5.5 0 0 1 .046-.658l1.18-1.162-.576.332a.5.5 0 0 1 -.592-.8l.774-.725-.182.105a.5.5 0 0 1 -.6-.793l.994-.958-.4.229a.5.5 0 0 1 -.618-.771l1.729-1.879-1.111.641a.5.5 0 0 1 -.6-.787l1.2-1.193-.6.346a.5.5 0 0 1 -.542-.027.5.5 0 0 1 -.2-.506l.328-1.6a.489.489 0 0 1 -.27-.222.5.5 0 0 1 .181-.683l.506-.293a.5.5 0 0 1 .741.533l-.282 1.375 2.976-1.719a.5.5 0 0 1 .6.787l-1.2 1.193.6-.347a.5.5 0 0 1 .618.772l-1.721 1.89 1.115-.642a.5.5 0 0 1 .6.793l-.995.949.4-.229a.5.5 0 0 1 .591.8l-.776.728.187-.108a.5.5 0 0 1 .6.788l-1.177 1.163.577-.332a.5.5 0 0 1 .58.808l-.351.307a.527.527 0 0 1 .42.2.5.5 0 0 1 -.05.66l-1.069 1.035.469-.27a.5.5 0 0 1 .61.78l-1.458 1.505.85-.491a.5.5 0 0 1 .628.76l-2 2.306 1.375-.793a.5.5 0 0 1 .58.808l-.362.319a.509.509 0 0 1 .429.194.5.5 0 0 1 -.039.656l-1.36 1.379.755-.436a.5.5 0 0 1 .591.8l-.737.686.147-.084a.5.5 0 0 1 .585.8l-.488.442a.5.5 0 0 1 .519.818l-1.625 1.724 1.011-.583a.5.5 0 0 1 .611.779l-1.521 1.581.912-.526a.5.5 0 0 1 .622.766l-1.859 2.071 1.239-.716a.5.5 0 0 1 .579.808l-.347.3a.569.569 0 0 1 .422.2.5.5 0 0 1 -.066.664l-.565.517a.5.5 0 0 1 .582.8l-.387.384a.489.489 0 0 1 .345.107.5.5 0 0 1 .17.535l-.245.818a.5.5 0 0 1 .017.876l-.507.292a.5.5 0 0 1 -.729-.576l.146-.492-1.881 1.086a.489.489 0 0 1 -.25.078z" fill="#bac5d8"/><path d="m45.559 59.47a.5.5 0 0 1 -.319-.886l.163-.135-1.651.953a.5.5 0 0 1 -.6-.789l1.212-1.192-3.035 1.751a.5.5 0 0 1 -.608-.781l1.1-1.128-1.423.821a.5.5 0 0 1 -.661-.719l.614-.878a.5.5 0 0 1 -.281-.931l1.657-.956a.5.5 0 0 1 .66.718l-.542.777 2.594-1.5a.5.5 0 0 1 .608.781l-1.1 1.128 3.307-1.904a.5.5 0 0 1 .6.789l-1.21 1.192 3.432-1.981a.5.5 0 0 1 .569.818l-.166.136 1.6-.925a.5.5 0 0 1 .633.754l-1.459 1.741 2.3-1.327a.5.5 0 0 1 .616.772l-.351.379a.5.5 0 0 1 .343.924l-2.649 1.528a.5.5 0 0 1 -.616-.772l.288-.312-1.878 1.084a.5.5 0 0 1 -.633-.754l1.459-1.741-4.323 2.5a.5.5 0 0 1 -.25.065z" fill="#d6ddef"/><path d="m8.522 59.47a.5.5 0 0 1 -.338-.868l.953-.876-2.906 1.674a.5.5 0 0 1 -.627-.76l1.464-1.686-4.176 2.413a.5.5 0 0 1 -.606-.784l1.25-1.266-1.966 1.135a.5.5 0 0 1 -.687-.675l.781-1.413-.1.057a.5.5 0 0 1 -.5-.865l1.658-.956a.5.5 0 0 1 .687.674l-.781 1.414 3.62-2.09a.5.5 0 0 1 .606.784l-1.254 1.265 3.554-2.047a.5.5 0 0 1 .627.76l-1.465 1.684 4.24-2.446a.5.5 0 0 1 .589.8l-.953.875 1.933-1.115a.5.5 0 0 1 .589.8l-.348.32.294-.17a.5.5 0 0 1 .646.74l-.523.672a.5.5 0 0 1 .151.923l-1.655.956a.5.5 0 0 1 -.645-.739l.32-.413-2 1.154a.5.5 0 0 1 -.589-.8l.348-.321-1.941 1.12a.49.49 0 0 1 -.25.07z" fill="#d6ddef"/><path d="m46.029 25.427a.5.5 0 0 1 -.279-.915l.164-.111-1.243.718a.5.5 0 0 1 -.546-.836l7.187-5.283-9.126 5.268a.5.5 0 0 1 -.523-.852l.889-.576-1.467.846a.5.5 0 0 1 -.528-.848l5.332-3.564-6.089 3.518a.5.5 0 0 1 -.527-.849l5.727-3.805-6.318 3.647a.5.5 0 0 1 -.526-.849l5.813-3.836-6.23 3.6a.5.5 0 0 1 -.521-.852l3.209-2.073-3.369 1.935a.5.5 0 0 1 -.534-.845l9.159-6.288-9.483 5.472a.5.5 0 0 1 -.528-.848l7.1-4.76-7.088 4.092a.5.5 0 0 1 -.523-.851l3.515-2.282-3.25 1.876a.5.5 0 0 1 -.533-.845l7.392-5.091-7 4.043a.5.5 0 0 1 -.542-.839l7.587-5.453-6.8 3.927a.5.5 0 0 1 -.549-.833l5.989-4.488-4.529 2.608a.5.5 0 0 1 -.581-.805l3.355-2.962a.5.5 0 0 1 -.421-.9l4.216-2.438a.5.5 0 0 1 .581.808l-3.326 2.934 7.452-4.302a.5.5 0 0 1 .55.833l-5.993 4.489 8.239-4.757a.5.5 0 0 1 .542.839l-7.587 5.456 9.214-5.319a.5.5 0 0 1 .533.844l-7.393 5.088 8.427-4.865a.5.5 0 0 1 .523.852l-3.524 2.3 3.968-2.291a.5.5 0 0 1 .528.848l-7.1 4.758 7.618-4.4a.5.5 0 0 1 .533.845l-9.162 6.291 9.644-5.567a.5.5 0 0 1 .522.852l-3.199 2.064 3.2-1.848a.5.5 0 0 1 .525.85l-5.81 3.84 5.759-3.325a.5.5 0 0 1 .527.849l-5.725 3.805 5.511-3.182a.5.5 0 0 1 .528.849l-5.329 3.562 4.927-2.845a.5.5 0 0 1 .522.852l-.909.59.345-.2a.5.5 0 0 1 .546.836l-7.184 5.278 6.126-3.537a.5.5 0 0 1 .529.847l-.893.6a.555.555 0 0 1 .432.224.5.5 0 0 1 -.114.674l-2.48 1.885.3-.176a.5.5 0 0 1 .5.866l-7.144 4.124a.5.5 0 0 1 -.553-.831l2.477-1.882-4.939 2.85a.5.5 0 0 1 -.245.072z" fill="#436e8e"/><path d="m45.813 16.222a.5.5 0 0 1 -.381-.823l1.823-2.161-2.655 1.531a.5.5 0 0 1 -.592-.8l.992-.923-.718.414a.5.5 0 0 1 -.624-.764l.858-.969a.5.5 0 0 1 -.151-.923l2.05-1.184a.5.5 0 0 1 .624.764l-.6.675 1.818-1.049a.5.5 0 0 1 .592.8l-.988.924 1.367-.789a.5.5 0 0 1 .632.755l-1.823 2.161 1.663-.961a.5.5 0 1 1 .5.866l-4.134 2.386a.49.49 0 0 1 -.253.07z" fill="#bac5d8"/><g fill="#262626"><path d="m1.532 46.274c1.243.036 2.494-.02 3.739 0v8.326c-1.984-.154-5.042.042-4.991 2.691.147 2.678 3.735 2.109 5.535 2.109 2.394-.024 4.789.048 7.181-.026 1.632-.212 3.344-1.58 2.551-3.391-.866-1.873-3.154-1.294-4.817-1.389v-8.32h33.546v8.261c-2.039-.175-5.192.1-4.991 2.852.294 2.631 3.707 2.078 5.547 2.078 2.361 0 4.726.006 7.085 0 1.749-.083 3.452-1.761 2.593-3.559-.9-1.818-3.122-1.284-4.778-1.368v-8c2.088-.219 6.4 1.045 6-2.368-.243-4.983 1.854-13.643-6-12.644v-6.594c12.294-2.614 13.5-20.058 1.257-23.732-16.638-4.465-24.02 19.823-6.713 23.855v6.506c-12.986.062-25.976-.124-38.959 0-5.873.007-5.197 6.421-5.027 10.592-.033 1.301-.609 3.971 1.242 4.121zm11.1 9.129a1.658 1.658 0 0 1 1.434.888c.36.673.25 2.257-.777 2.306-3.3 0-6.614.1-9.911 0a1.749 1.749 0 0 1 -1.217-2.879c.9-.679 2.257-.167 3.329-.315 1.27.085 2.679-.054 3.988 0 .97.146 2.122-.109 3.149-.003zm-3.362-1.449v.646h-2.541v-8.326h2.541zm19.787-8.228h-18.386c-.2-.313-.854-.255-1.194 0h-2.808c-.193-.292-.83-.237-1.174 0-2.888.143-4.278.4-3.8-3.288h42.581v3.288zm22.613 9.739c1.739-.1 2.268 2.87.424 3.071-2.2-.44-13.98 1.786-10.85-2.849 3.334-.608 6.992-.029 10.426-.222zm2.456-10h-.01c.022-.014.056-.019.01 0zm.14-.617a.875.875 0 0 1 -.156.617c-1.459-.006-2.919 0-4.378 0v-2.928h4.534zm-3.322-12.374c4.485.465 3.138 5.845 3.327 8.989h-4.539v-9.005c.405-.005.809-.005 1.212.016zm-13.014-12.733c-6.198-8.041 1.57-21.09 11.719-18.011 11.215 2.9 11.405 20.134-.069 22.73a.984.984 0 0 0 -1.219.188 11.781 11.781 0 0 1 -10.431-4.907zm10.338 5.447v29.347h-2.544v-29.284a13.3 13.3 0 0 0 2.544-.063zm-43.412 7.25c13.135-.044 26.281.03 39.42 0v9.124h-42.549c.306-3.079-1.322-8.641 3.129-9.124z"/><path d="m50.724 12.806c-.264-5.6-9.835-2.783-6.942 2.058 1.832 2.788 6.949 1.303 6.942-2.058zm-3.424 2.858c-2.746-.053-3.568-4.38-.956-5.3 2.836-.446 4.116 4.222 1.37 5.263a2.014 2.014 0 0 1 -.414.037z"/><path d="m47.659 15.635h.021z"/></g></svg>